Golos Text-SemiBold.ufo
<glyph name="exclam" format="2">
	<advance width="310" height="0"/>
	<unicode hex="0021"/>
	<outline>
		<contour>
			<point x="91" y="230" type="line"/>
			<point x="223" y="230" type="line" name="iv01"/>
			<point x="223" y="700" type="line"/>
			<point x="91" y="700" type="line" name="sh01"/>
		</contour>
		<contour>
			<point x="155" y="-12" type="curve" smooth="yes"/>
			<point x="202" y="-12"/>
			<point x="240" y="26" name="sv01"/>
			<point x="240" y="73" type="curve" smooth="yes"/>
			<point x="240" y="122" name="ih01"/>
			<point x="202" y="158" name="ih02"/>
			<point x="155" y="158" type="curve" smooth="yes" name="ih03"/>
			<point x="108" y="158"/>
			<point x="70" y="122"/>
			<point x="70" y="73" type="curve" smooth="yes"/>
			<point x="70" y="26"/>
			<point x="108" y="-12"/>
		</contour>
	</outline>
</glyph>
<glyph name="numbersign" format="2">
	<advance width="680" height="0"/>
	<unicode hex="0023"/>
	<outline>
		<contour>
			<point x="90" y="0" type="line"/>
			<point x="210" y="0" type="line" name="ab02"/>
			<point x="244" y="186" type="line"/>
			<point x="374" y="186" type="line" name="sv08"/>
			<point x="340" y="0" type="line"/>
			<point x="460" y="0" type="line" name="ab01"/>
			<point x="494" y="186" type="line"/>
			<point x="596" y="186" type="line" name="sv07"/>
			<point x="596" y="284" type="line"/>
			<point x="512" y="284" type="line" name="sv06"/>
			<point x="537" y="416" type="line"/>
			<point x="635" y="416" type="line" name="sv05"/>
			<point x="635" y="514" type="line"/>
			<point x="555" y="514" type="line" name="sv04"/>
			<point x="590" y="700" type="line"/>
			<point x="470" y="700" type="line" name="at02"/>
			<point x="435" y="514" type="line"/>
			<point x="305" y="514" type="line" name="sv03"/>
			<point x="340" y="700" type="line" name="ih01"/>
			<point x="220" y="700" type="line" name="at01"/>
			<point x="185" y="514" type="line" name="iv02"/>
			<point x="84" y="514" type="line"/>
			<point x="84" y="416" type="line"/>
			<point x="167" y="416" type="line" name="sv02"/>
			<point x="142" y="284" type="line" name="iv01"/>
			<point x="45" y="284" type="line"/>
			<point x="45" y="186" type="line"/>
			<point x="124" y="186" type="line" name="sv01"/>
		</contour>
		<contour>
			<point x="262" y="284" type="line"/>
			<point x="287" y="416" type="line"/>
			<point x="417" y="416" type="line" name="sv09"/>
			<point x="392" y="284" type="line" name="sh01"/>
		</contour>
	</outline>
</glyph>
<glyph name="dollar" format="2">
	<advance width="660" height="0"/>
	<unicode hex="0024"/>
	<outline>
		<contour>
			<point x="270" y="-120" type="line" name="sv05"/>
			<point x="390" y="-120" type="line"/>
			<point x="390" y="-8" type="line" name="sv04"/>
			<point x="534" y="8"/>
			<point x="615" y="85" name="iv04"/>
			<point x="615" y="200" type="curve" smooth="yes"/>
			<point x="615" y="337" name="sv01"/>
			<point x="526" y="388" name="iv03"/>
			<point x="375" y="417" type="curve" smooth="yes"/>
			<point x="264" y="438" name="at01"/>
			<point x="215" y="465" name="sv03"/>
			<point x="215" y="516" type="curve" smooth="yes"/>
			<point x="215" y="559" name="sv02"/>
			<point x="251" y="586"/>
			<point x="330" y="586" type="curve" smooth="yes" name="iv02"/>
			<point x="407" y="586"/>
			<point x="436" y="563" name="ih01"/>
			<point x="445" y="515" type="curve" name="iv01"/>
			<point x="595" y="515" type="line"/>
			<point x="586" y="619" name="ab01"/>
			<point x="523" y="692" name="ih02"/>
			<point x="390" y="708" type="curve" name="ih03"/>
			<point x="390" y="800" type="line"/>
			<point x="270" y="800" type="line"/>
			<point x="270" y="708" type="line"/>
			<point x="142" y="689"/>
			<point x="65" y="617"/>
			<point x="65" y="512" type="curve" smooth="yes"/>
			<point x="65" y="380"/>
			<point x="147" y="323"/>
			<point x="291" y="296" type="curve" smooth="yes"/>
			<point x="412" y="272"/>
			<point x="465" y="248"/>
			<point x="465" y="189" type="curve" smooth="yes"/>
			<point x="465" y="141"/>
			<point x="426" y="114"/>
			<point x="330" y="114" type="curve" smooth="yes"/>
			<point x="236" y="114"/>
			<point x="205" y="143"/>
			<point x="195" y="195" type="curve"/>
			<point x="45" y="195" type="line"/>
			<point x="50" y="84"/>
			<point x="123" y="8"/>
			<point x="270" y="-8" type="curve"/>
		</contour>
	</outline>
</glyph>
<glyph name="ampersand" format="2">
	<advance width="700" height="0"/>
	<unicode hex="0026"/>
	<outline>
		<contour>
			<point x="295" y="-12" type="curve" smooth="yes"/>
			<point x="372" y="-12"/>
			<point x="438" y="7"/>
			<point x="491" y="44" type="curve"/>
			<point x="532" y="0" type="line" name="hr01"/>
			<point x="690" y="0" type="line"/>
			<point x="573" y="132" type="line"/>
			<point x="606" y="188"/>
			<point x="625" y="256"/>
			<point x="625" y="340" type="curve"/>
			<point x="491" y="340" type="line"/>
			<point x="491" y="305"/>
			<point x="486" y="271"/>
			<point x="477" y="240" type="curve"/>
			<point x="348" y="385" type="line"/>
			<point x="442" y="463"/>
			<point x="465" y="506"/>
			<point x="465" y="560" type="curve" smooth="yes"/>
			<point x="465" y="622"/>
			<point x="421" y="712"/>
			<point x="285" y="712" type="curve" smooth="yes"/>
			<point x="158" y="712"/>
			<point x="105" y="632"/>
			<point x="105" y="560" type="curve" smooth="yes"/>
			<point x="105" y="487"/>
			<point x="131" y="443"/>
			<point x="172" y="396" type="curve"/>
			<point x="72" y="313"/>
			<point x="50" y="263" name="hr02"/>
			<point x="50" y="190" type="curve" smooth="yes" name="hr01"/>
			<point x="50" y="75"/>
			<point x="130" y="-12"/>
		</contour>
		<contour>
			<point x="295" y="100" type="curve" smooth="yes"/>
			<point x="226" y="100"/>
			<point x="184" y="138"/>
			<point x="184" y="190" type="curve" smooth="yes"/>
			<point x="184" y="231"/>
			<point x="197" y="261"/>
			<point x="252" y="308" type="curve"/>
			<point x="408" y="136" type="line"/>
			<point x="377" y="113"/>
			<point x="339" y="100"/>
		</contour>
		<contour>
			<point x="234" y="560" type="curve" smooth="yes"/>
			<point x="234" y="585"/>
			<point x="254" y="605" name="hr03"/>
			<point x="285" y="605" type="curve" smooth="yes"/>
			<point x="316" y="605"/>
			<point x="336" y="587"/>
			<point x="336" y="560" type="curve" smooth="yes"/>
			<point x="336" y="536"/>
			<point x="326" y="516"/>
			<point x="272" y="473" type="curve"/>
			<point x="245" y="508"/>
			<point x="234" y="533"/>
		</contour>
	</outline>
</glyph>
<glyph name="parenleft" format="2">
	<advance width="380" height="0"/>
	<unicode hex="0028"/>
	<outline>
		<contour>
			<point x="70" y="240" type="line" smooth="yes"/>
			<point x="70" y="100"/>
			<point x="108" y="-10"/>
			<point x="148" y="-85" type="curve" smooth="yes"/>
			<point x="171" y="-129"/>
			<point x="197" y="-167"/>
			<point x="227" y="-200" type="curve"/>
			<point x="370" y="-200" type="line"/>
			<point x="338" y="-167"/>
			<point x="309" y="-129"/>
			<point x="284" y="-85" type="curve" smooth="yes"/>
			<point x="241" y="-10"/>
			<point x="198" y="100"/>
			<point x="198" y="240" type="curve" smooth="yes"/>
			<point x="198" y="260" type="line" smooth="yes"/>
			<point x="198" y="399"/>
			<point x="242" y="511"/>
			<point x="284" y="585" type="curve" smooth="yes"/>
			<point x="309" y="629"/>
			<point x="338" y="667"/>
			<point x="370" y="700" type="curve"/>
			<point x="230" y="700" type="line"/>
			<point x="200" y="667"/>
			<point x="173" y="629"/>
			<point x="150" y="585" type="curve" smooth="yes"/>
			<point x="110" y="509"/>
			<point x="70" y="401"/>
			<point x="70" y="260" type="curve" smooth="yes"/>
		</contour>
	</outline>
</glyph>
<glyph name="parenright" format="2">
	<advance width="380" height="0"/>
	<unicode hex="0029"/>
	<outline>
		<contour>
			<point x="310" y="260" type="line" smooth="yes"/>
			<point x="310" y="400"/>
			<point x="272" y="510"/>
			<point x="232" y="585" type="curve" smooth="yes"/>
			<point x="209" y="629"/>
			<point x="183" y="667"/>
			<point x="153" y="700" type="curve"/>
			<point x="10" y="700" type="line"/>
			<point x="42" y="667"/>
			<point x="71" y="629"/>
			<point x="96" y="585" type="curve" smooth="yes"/>
			<point x="139" y="510"/>
			<point x="182" y="400"/>
			<point x="182" y="260" type="curve" smooth="yes"/>
			<point x="182" y="240" type="line" smooth="yes"/>
			<point x="182" y="101"/>
			<point x="138" y="-11"/>
			<point x="96" y="-85" type="curve" smooth="yes"/>
			<point x="71" y="-129"/>
			<point x="42" y="-167"/>
			<point x="10" y="-200" type="curve"/>
			<point x="150" y="-200" type="line"/>
			<point x="180" y="-167"/>
			<point x="207" y="-129"/>
			<point x="230" y="-85" type="curve" smooth="yes"/>
			<point x="270" y="-9"/>
			<point x="310" y="99"/>
			<point x="310" y="240" type="curve" smooth="yes"/>
		</contour>
	</outline>
</glyph>
<glyph name="asterisk" format="2">
	<advance width="450" height="0"/>
	<unicode hex="002A"/>
	<outline>
		<contour>
			<point x="178" y="350" type="line" name="iv01"/>
			<point x="272" y="350" type="line"/>
			<point x="262" y="461" type="line"/>
			<point x="354" y="393" type="line" name="sv02"/>
			<point x="405" y="482" type="line"/>
			<point x="298" y="525" type="line"/>
			<point x="405" y="568" type="line"/>
			<point x="355" y="657" type="line" name="sv01"/>
			<point x="262" y="589" type="line"/>
			<point x="272" y="700" type="line"/>
			<point x="178" y="700" type="line" name="at01"/>
			<point x="188" y="589" type="line"/>
			<point x="96" y="657" type="line" name="iv03"/>
			<point x="45" y="568" type="line"/>
			<point x="152" y="525" type="line"/>
			<point x="45" y="482" type="line"/>
			<point x="96" y="393" type="line" name="iv02"/>
			<point x="188" y="461" type="line" name="ih01"/>
		</contour>
	</outline>
</glyph>
<glyph name="zero" format="2">
	<advance width="640" height="0"/>
	<unicode hex="0030"/>
	<outline>
		<contour>
			<point x="320" y="-12" type="curve" smooth="yes"/>
			<point x="472" y="-12"/>
			<point x="590" y="80"/>
			<point x="590" y="350" type="curve" smooth="yes" name="at01"/>
			<point x="590" y="370" type="line" smooth="yes"/>
			<point x="590" y="620"/>
			<point x="472" y="712" name="ih01"/>
			<point x="320" y="712" type="curve" smooth="yes"/>
			<point x="168" y="712"/>
			<point x="50" y="620"/>
			<point x="50" y="370" type="curve" smooth="yes" name="sv01"/>
			<point x="50" y="350" type="line" smooth="yes"/>
			<point x="50" y="80"/>
			<point x="168" y="-12" name="sh01"/>
		</contour>
		<contour>
			<point x="320" y="114" type="curve" smooth="yes" name="ih03"/>
			<point x="252" y="114"/>
			<point x="200" y="160"/>
			<point x="200" y="350" type="curve" smooth="yes"/>
			<point x="200" y="370" type="line" smooth="yes"/>
			<point x="200" y="540"/>
			<point x="252" y="586"/>
			<point x="320" y="586" type="curve" smooth="yes"/>
			<point x="388" y="586"/>
			<point x="440" y="540"/>
			<point x="440" y="370" type="curve" smooth="yes"/>
			<point x="440" y="350" type="line" smooth="yes"/>
			<point x="440" y="160"/>
			<point x="388" y="114"/>
		</contour>
	</outline>
</glyph>
<glyph name="two" format="2">
	<advance width="600" height="0"/>
	<unicode hex="0032"/>
	<outline>
		<contour>
			<point x="30" y="0" type="line"/>
			<point x="560" y="0" type="line" name="ab01"/>
			<point x="560" y="124" type="line"/>
			<point x="241" y="124" type="line" name="sv01"/>
			<point x="385" y="244" type="line" smooth="yes" name="iv03"/>
			<point x="476" y="319"/>
			<point x="550" y="394" name="at01"/>
			<point x="550" y="490" type="curve" smooth="yes" name="iv02"/>
			<point x="550" y="619"/>
			<point x="467" y="712" name="ih01"/>
			<point x="305" y="712" type="curve" smooth="yes"/>
			<point x="132" y="712" name="iv01"/>
			<point x="40" y="614" name="sv02"/>
			<point x="40" y="455" type="curve" name="ih02"/>
			<point x="190" y="455" type="line" name="ih03"/>
			<point x="190" y="551"/>
			<point x="233" y="586"/>
			<point x="305" y="586" type="curve" smooth="yes"/>
			<point x="368" y="586"/>
			<point x="400" y="547"/>
			<point x="400" y="490" type="curve" smooth="yes"/>
			<point x="400" y="433"/>
			<point x="366" y="401"/>
			<point x="275" y="320" type="curve" smooth="yes"/>
			<point x="30" y="109" type="line"/>
		</contour>
	</outline>
</glyph>
<glyph name="three" format="2">
	<advance width="605" height="0"/>
	<unicode hex="0033"/>
	<outline>
		<contour>
			<point x="295" y="-12" type="curve" smooth="yes"/>
			<point x="456" y="-12"/>
			<point x="555" y="75" name="iv04"/>
			<point x="555" y="195" type="curve" smooth="yes"/>
			<point x="555" y="287" name="at01"/>
			<point x="509" y="342" name="iv03"/>
			<point x="426" y="365" type="curve"/>
			<point x="498" y="388" name="sv03"/>
			<point x="545" y="444"/>
			<point x="545" y="521" type="curve" smooth="yes" name="iv02"/>
			<point x="545" y="630"/>
			<point x="463" y="712"/>
			<point x="295" y="712" type="curve" smooth="yes" name="sv02"/>
			<point x="128" y="712"/>
			<point x="45" y="632" name="sv01"/>
			<point x="45" y="495" type="curve"/>
			<point x="195" y="495" type="line" name="iv01"/>
			<point x="195" y="554" name="ih01"/>
			<point x="227" y="586" name="ih02"/>
			<point x="295" y="586" type="curve" smooth="yes" name="ih03"/>
			<point x="362" y="586"/>
			<point x="395" y="551"/>
			<point x="395" y="500" type="curve" smooth="yes"/>
			<point x="395" y="444"/>
			<point x="359" y="418"/>
			<point x="295" y="418" type="curve" smooth="yes"/>
			<point x="230" y="418" type="line"/>
			<point x="230" y="302" type="line"/>
			<point x="295" y="302" type="line" smooth="yes"/>
			<point x="368" y="302"/>
			<point x="405" y="271"/>
			<point x="405" y="208" type="curve" smooth="yes"/>
			<point x="405" y="148"/>
			<point x="368" y="114"/>
			<point x="295" y="114" type="curve" smooth="yes"/>
			<point x="219" y="114"/>
			<point x="185" y="147"/>
			<point x="185" y="215" type="curve" name="hr01"/>
			<point x="35" y="215" type="line"/>
			<point x="35" y="74"/>
			<point x="124" y="-12"/>
		</contour>
	</outline>
</glyph>
<glyph name="five" format="2">
	<advance width="600" height="0"/>
	<unicode hex="0035"/>
	<outline>
		<contour>
			<point x="300" y="-12" type="curve" smooth="yes"/>
			<point x="457" y="-12"/>
			<point x="560" y="86" name="iv02"/>
			<point x="560" y="239" type="curve" smooth="yes" name="iv04"/>
			<point x="560" y="400"/>
			<point x="471" y="484" name="sv03"/>
			<point x="335" y="484" type="curve" smooth="yes"/>
			<point x="284" y="484" name="at01"/>
			<point x="243" y="473"/>
			<point x="215" y="448" type="curve" name="iv03"/>
			<point x="215" y="576" type="line" name="sv02"/>
			<point x="521" y="576" type="line"/>
			<point x="521" y="700" type="line" name="sv01"/>
			<point x="65" y="700" type="line"/>
			<point x="65" y="310" type="line" name="iv01"/>
			<point x="205" y="310" type="line" name="ih01"/>
			<point x="224" y="339" name="ih02"/>
			<point x="253" y="358" name="ih03"/>
			<point x="300" y="358" type="curve" smooth="yes"/>
			<point x="359" y="358"/>
			<point x="410" y="326"/>
			<point x="410" y="238" type="curve" smooth="yes"/>
			<point x="410" y="155"/>
			<point x="373" y="114"/>
			<point x="300" y="114" type="curve" smooth="yes"/>
			<point x="236" y="114"/>
			<point x="204" y="147"/>
			<point x="200" y="195" type="curve" name="hr01"/>
			<point x="50" y="195" type="line"/>
			<point x="53" y="86"/>
			<point x="123" y="-12"/>
		</contour>
	</outline>
</glyph>
<glyph name="seven" format="2">
	<advance width="540" height="0"/>
	<unicode hex="0037"/>
	<outline>
		<contour>
			<point x="120" y="0" type="line"/>
			<point x="280" y="0" type="line" name="ih01"/>
			<point x="510" y="591" type="line" name="sv02"/>
			<point x="510" y="700" type="line"/>
			<point x="20" y="700" type="line" name="at01"/>
			<point x="20" y="576" type="line"/>
			<point x="356" y="576" type="line" name="sv01"/>
		</contour>
	</outline>
</glyph>
<glyph name="eight" format="2">
	<advance width="630" height="0"/>
	<unicode hex="0038"/>
	<outline>
		<contour>
			<point x="315" y="-12" type="curve" smooth="yes"/>
			<point x="485" y="-12"/>
			<point x="585" y="68" name="sv03"/>
			<point x="585" y="191" type="curve" smooth="yes"/>
			<point x="585" y="276" name="at01"/>
			<point x="537" y="333"/>
			<point x="442" y="362" type="curve" name="sv02"/>
			<point x="514" y="389"/>
			<point x="566" y="444" name="ih01"/>
			<point x="566" y="521" type="curve" smooth="yes"/>
			<point x="566" y="633"/>
			<point x="475" y="712" name="iv01"/>
			<point x="315" y="712" type="curve" smooth="yes"/>
			<point x="155" y="712" name="sh01"/>
			<point x="65" y="633"/>
			<point x="65" y="521" type="curve" smooth="yes"/>
			<point x="65" y="444" name="sv01"/>
			<point x="117" y="385"/>
			<point x="188" y="362" type="curve" name="sh02"/>
			<point x="93" y="337" name="ih02"/>
			<point x="45" y="270" name="ih03"/>
			<point x="45" y="191" type="curve" smooth="yes" name="hr01"/>
			<point x="45" y="68"/>
			<point x="146" y="-12"/>
		</contour>
		<contour>
			<point x="315" y="114" type="curve" smooth="yes"/>
			<point x="235" y="114"/>
			<point x="195" y="148"/>
			<point x="195" y="203" type="curve" smooth="yes"/>
			<point x="195" y="263"/>
			<point x="244" y="298"/>
			<point x="315" y="309" type="curve"/>
			<point x="386" y="298"/>
			<point x="435" y="263"/>
			<point x="435" y="203" type="curve" smooth="yes"/>
			<point x="435" y="148"/>
			<point x="398" y="114"/>
		</contour>
		<contour>
			<point x="315" y="411" type="curve"/>
			<point x="255" y="422"/>
			<point x="215" y="452"/>
			<point x="215" y="508" type="curve" smooth="yes"/>
			<point x="215" y="560" name="hr03"/>
			<point x="252" y="586"/>
			<point x="315" y="586" type="curve" smooth="yes"/>
			<point x="379" y="586"/>
			<point x="416" y="560"/>
			<point x="416" y="508" type="curve" smooth="yes"/>
			<point x="416" y="452"/>
			<point x="375" y="422"/>
		</contour>
	</outline>
</glyph>
<glyph name="nine" format="2">
	<advance width="625" height="0"/>
	<unicode hex="0039"/>
	<outline>
		<contour>
			<point x="295" y="-12" type="curve" smooth="yes"/>
			<point x="456" y="-12"/>
			<point x="575" y="93"/>
			<point x="575" y="361" type="curve" smooth="yes" name="at01"/>
			<point x="575" y="380" type="line" smooth="yes"/>
			<point x="575" y="615"/>
			<point x="477" y="712" name="iv02"/>
			<point x="300" y="712" type="curve" smooth="yes" name="iv03"/>
			<point x="151" y="712" name="sh01"/>
			<point x="45" y="616"/>
			<point x="45" y="474" type="curve" smooth="yes" name="iv01"/>
			<point x="45" y="463" type="line" smooth="yes" name="ab01"/>
			<point x="45" y="323"/>
			<point x="124" y="243"/>
			<point x="265" y="243" type="curve" smooth="yes"/>
			<point x="330" y="243" name="sv01"/>
			<point x="401" y="262"/>
			<point x="435" y="315" type="curve"/>
			<point x="427" y="152" name="ih01"/>
			<point x="373" y="114" name="ih02"/>
			<point x="300" y="114" type="curve" smooth="yes" name="ih03"/>
			<point x="240" y="114"/>
			<point x="213" y="130"/>
			<point x="200" y="165" type="curve" name="hr01"/>
			<point x="60" y="165" type="line"/>
			<point x="77" y="44"/>
			<point x="162" y="-12"/>
		</contour>
		<contour>
			<point x="310" y="359" type="curve" smooth="yes"/>
			<point x="238" y="359"/>
			<point x="195" y="403"/>
			<point x="195" y="467" type="curve" smooth="yes"/>
			<point x="195" y="477" type="line" smooth="yes"/>
			<point x="195" y="541"/>
			<point x="238" y="586"/>
			<point x="310" y="586" type="curve" smooth="yes"/>
			<point x="379" y="586"/>
			<point x="425" y="540"/>
			<point x="425" y="477" type="curve" smooth="yes"/>
			<point x="425" y="467" type="line" smooth="yes"/>
			<point x="425" y="403"/>
			<point x="382" y="359"/>
		</contour>
	</outline>
</glyph>
<glyph name="less" format="2">
	<advance width="570" height="0"/>
	<unicode hex="003C"/>
	<outline>
		<contour>
			<point x="530" y="90" type="line" name="av01"/>
			<point x="530" y="237" type="line" name="iv04"/>
			<point x="215" y="362" type="line" name="ih01"/>
			<point x="530" y="487" type="line" name="iv03"/>
			<point x="530" y="630" type="line" name="sv01"/>
			<point x="40" y="415" type="line" name="iv02"/>
			<point x="40" y="305" type="line" name="iv01"/>
		</contour>
	</outline>
</glyph>
<glyph name="equal" format="2">
	<advance width="570" height="0"/>
	<unicode hex="003D"/>
	<outline>
		<contour>
			<point x="40" y="178" type="line" name="sv01"/>
			<point x="530" y="178" type="line"/>
			<point x="530" y="302" type="line"/>
			<point x="40" y="302" type="line" name="ih01"/>
		</contour>
		<contour>
			<point x="40" y="418" type="line" name="sv02"/>
			<point x="530" y="418" type="line"/>
			<point x="530" y="542" type="line"/>
			<point x="40" y="542" type="line" name="sh01"/>
		</contour>
	</outline>
</glyph>
<glyph name="A" format="2">
	<advance width="690" height="0"/>
	<unicode hex="0041"/>
	<anchor x="345" y="0" name="bottom"/>
	<anchor x="680" y="0" name="ogonek"/>
	<anchor x="345" y="700" name="top"/>
	<outline>
		<contour>
			<point x="10" y="0" type="line"/>
			<point x="156" y="0" type="line" name="ab01"/>
			<point x="209" y="143" type="line"/>
			<point x="468" y="143" type="line" name="sv01"/>
			<point x="522" y="0" type="line"/>
			<point x="680" y="0" type="line" name="ab02"/>
			<point x="420" y="700" type="line"/>
			<point x="270" y="700" type="line" name="sh01"/>
		</contour>
		<contour>
			<point x="255" y="267" type="line"/>
			<point x="339" y="510" type="line" name="ih01"/>
			<point x="423" y="267" type="line" name="iv01"/>
		</contour>
	</outline>
</glyph>
<glyph name="B" format="2">
	<advance width="680" height="0"/>
	<unicode hex="0042"/>
	<anchor x="340" y="0" name="bottom"/>
	<anchor x="340" y="350" name="center"/>
	<anchor x="340" y="700" name="top"/>
	<outline>
		<contour>
			<point x="80" y="0" type="line"/>
			<point x="393" y="0" type="line" smooth="yes" name="ab01"/>
			<point x="569" y="0"/>
			<point x="640" y="78" name="iv01"/>
			<point x="640" y="198" type="curve" smooth="yes"/>
			<point x="640" y="289" name="sh01"/>
			<point x="591" y="346" name="at01"/>
			<point x="511" y="365" type="curve"/>
			<point x="572" y="388"/>
			<point x="610" y="441" name="sh02"/>
			<point x="610" y="513" type="curve" smooth="yes" name="hr01"/>
			<point x="610" y="630" name="sv01"/>
			<point x="537" y="700"/>
			<point x="380" y="700" type="curve" smooth="yes"/>
			<point x="80" y="700" type="line" name="sv02"/>
		</contour>
		<contour>
			<point x="230" y="114" type="line"/>
			<point x="230" y="309" type="line" name="ih01"/>
			<point x="365" y="309" type="line" smooth="yes" name="ih02"/>
			<point x="460" y="309" name="ih03"/>
			<point x="490" y="272" name="hr02"/>
			<point x="490" y="209" type="curve" smooth="yes"/>
			<point x="490" y="146"/>
			<point x="459" y="114"/>
			<point x="366" y="114" type="curve" smooth="yes"/>
		</contour>
		<contour>
			<point x="230" y="411" type="line"/>
			<point x="230" y="586" type="line"/>
			<point x="351" y="586" type="line" smooth="yes"/>
			<point x="432" y="586"/>
			<point x="460" y="556" name="hr03"/>
			<point x="460" y="500" type="curve" smooth="yes"/>
			<point x="460" y="445"/>
			<point x="431" y="411"/>
			<point x="350" y="411" type="curve" smooth="yes"/>
		</contour>
	</outline>
</glyph>
<glyph name="C" format="2">
	<advance width="700" height="0"/>
	<unicode hex="0043"/>
	<anchor x="350" y="0" name="bottom"/>
	<anchor x="350" y="700" name="top"/>
	<outline>
		<contour>
			<point x="365" y="-12" type="curve" smooth="yes"/>
			<point x="526" y="-12"/>
			<point x="647" y="54"/>
			<point x="660" y="230" type="curve"/>
			<point x="504" y="230" type="line"/>
			<point x="493" y="154"/>
			<point x="441" y="114" name="hr01"/>
			<point x="365" y="114" type="curve" smooth="yes"/>
			<point x="288" y="114"/>
			<point x="206" y="169"/>
			<point x="206" y="345" type="curve" smooth="yes"/>
			<point x="206" y="365" type="line" smooth="yes"/>
			<point x="206" y="532"/>
			<point x="283" y="586"/>
			<point x="365" y="586" type="curve" smooth="yes"/>
			<point x="437" y="586"/>
			<point x="489" y="550"/>
			<point x="504" y="470" type="curve" name="hr02"/>
			<point x="660" y="470" type="line"/>
			<point x="649" y="639"/>
			<point x="522" y="712"/>
			<point x="365" y="712" type="curve" smooth="yes"/>
			<point x="189" y="712"/>
			<point x="50" y="609"/>
			<point x="50" y="365" type="curve" smooth="yes"/>
			<point x="50" y="345" type="line" smooth="yes"/>
			<point x="50" y="89"/>
			<point x="182" y="-12"/>
		</contour>
	</outline>
</glyph>
<glyph name="E" format="2">
	<advance width="620" height="0"/>
	<unicode hex="0045"/>
	<anchor x="310" y="0" name="bottom"/>
	<anchor x="570" y="0" name="ogonek"/>
	<anchor x="325" y="700" name="top"/>
	<anchor x="20" y="700" name="topleft"/>
	<outline>
		<contour>
			<point x="80" y="0" type="line"/>
			<point x="570" y="0" type="line" name="ab01"/>
			<point x="570" y="124" type="line"/>
			<point x="231" y="124" type="line" name="sv03"/>
			<point x="231" y="300" type="line"/>
			<point x="540" y="300" type="line" name="sv02"/>
			<point x="540" y="420" type="line" name="iv01"/>
			<point x="231" y="420" type="line"/>
			<point x="231" y="576" type="line" name="ih01"/>
			<point x="570" y="576" type="line" name="sv01"/>
			<point x="570" y="700" type="line"/>
			<point x="80" y="700" type="line" name="at01"/>
		</contour>
	</outline>
</glyph>
<glyph name="F" format="2">
	<advance width="595" height="0"/>
	<unicode hex="0046"/>
	<anchor x="298" y="0" name="bottom"/>
	<anchor x="298" y="700" name="top"/>
	<outline>
		<contour>
			<point x="80" y="0" type="line"/>
			<point x="230" y="0" type="line" name="ab01"/>
			<point x="230" y="280" type="line"/>
			<point x="530" y="280" type="line" name="sv02"/>
			<point x="530" y="400" type="line" name="iv01"/>
			<point x="230" y="400" type="line"/>
			<point x="230" y="576" type="line" name="ih01"/>
			<point x="560" y="576" type="line" name="sv01"/>
			<point x="560" y="700" type="line"/>
			<point x="80" y="700" type="line" name="at01"/>
		</contour>
	</outline>
</glyph>
<glyph name="G" format="2">
	<advance width="725" height="0"/>
	<unicode hex="0047"/>
	<anchor x="363" y="0" name="bottom"/>
	<anchor x="363" y="700" name="top"/>
	<outline>
		<contour>
			<point x="375" y="-12" type="curve" smooth="yes"/>
			<point x="559" y="-12"/>
			<point x="680" y="93"/>
			<point x="680" y="325" type="curve" smooth="yes" name="iv02"/>
			<point x="680" y="365" type="line" name="sv03"/>
			<point x="395" y="365" type="line"/>
			<point x="395" y="261" type="line" name="sv02"/>
			<point x="537" y="261" type="line"/>
			<point x="529" y="158"/>
			<point x="461" y="115" name="sv01"/>
			<point x="375" y="115" type="curve" smooth="yes" name="iv01"/>
			<point x="290" y="115"/>
			<point x="206" y="172" name="ih01"/>
			<point x="206" y="345" type="curve" smooth="yes"/>
			<point x="206" y="365" type="line" smooth="yes"/>
			<point x="206" y="528" name="ab01"/>
			<point x="281" y="585" name="ih02"/>
			<point x="370" y="585" type="curve" smooth="yes" name="ih03"/>
			<point x="425" y="585"/>
			<point x="480" y="565"/>
			<point x="509" y="480" type="curve" name="hr01"/>
			<point x="665" y="480" type="line"/>
			<point x="638" y="636"/>
			<point x="530" y="712"/>
			<point x="370" y="712" type="curve" smooth="yes"/>
			<point x="199" y="712"/>
			<point x="50" y="608"/>
			<point x="50" y="365" type="curve" smooth="yes"/>
			<point x="50" y="345" type="line" smooth="yes"/>
			<point x="50" y="91"/>
			<point x="188" y="-12"/>
		</contour>
	</outline>
</glyph>
<glyph name="I" format="2">
	<advance width="330" height="0"/>
	<unicode hex="0049"/>
	<anchor x="165" y="0" name="bottom"/>
	<anchor x="240" y="0" name="ogonek"/>
	<anchor x="165" y="700" name="top"/>
	<anchor x="20" y="700" name="topleft"/>
	<outline>
		<contour>
			<point x="90" y="0" type="line"/>
			<point x="240" y="0" type="line" name="ab01"/>
			<point x="240" y="700" type="line"/>
			<point x="90" y="700" type="line" name="ih01"/>
		</contour>
	</outline>
</glyph>
<glyph name="J" format="2">
	<advance width="575" height="0"/>
	<unicode hex="004A"/>
	<anchor x="288" y="0" name="bottom"/>
	<anchor x="288" y="700" name="top"/>
	<outline>
		<contour>
			<point x="255" y="-12" type="curve" smooth="yes"/>
			<point x="404" y="-12"/>
			<point x="495" y="62"/>
			<point x="495" y="250" type="curve" smooth="yes"/>
			<point x="495" y="700" type="line"/>
			<point x="345" y="700" type="line"/>
			<point x="345" y="250" type="line" smooth="yes"/>
			<point x="345" y="150"/>
			<point x="318" y="115"/>
			<point x="255" y="115" type="curve" smooth="yes"/>
			<point x="199" y="115"/>
			<point x="170" y="150"/>
			<point x="167" y="220" type="curve" name="hr01"/>
			<point x="25" y="220" type="line"/>
			<point x="29" y="71"/>
			<point x="106" y="-12"/>
		</contour>
	</outline>
</glyph>
<glyph name="O" format="2">
	<advance width="760" height="0"/>
	<unicode hex="004F"/>
	<anchor x="380" y="0" name="bottom"/>
	<anchor x="380" y="350" name="center"/>
	<anchor x="684" y="10" name="ogonek"/>
	<anchor x="380" y="700" name="top"/>
	<anchor x="20" y="700" name="topleft"/>
	<anchor x="740" y="700" name="topright"/>
	<outline>
		<contour>
			<point x="380" y="-12" type="curve" smooth="yes"/>
			<point x="555" y="-12"/>
			<point x="710" y="90"/>
			<point x="710" y="345" type="curve" smooth="yes" name="at01"/>
			<point x="710" y="365" type="line" smooth="yes"/>
			<point x="710" y="609"/>
			<point x="555" y="712" name="ih01"/>
			<point x="380" y="712" type="curve" smooth="yes"/>
			<point x="205" y="712"/>
			<point x="50" y="609"/>
			<point x="50" y="365" type="curve" smooth="yes" name="sv01"/>
			<point x="50" y="345" type="line" smooth="yes"/>
			<point x="50" y="90"/>
			<point x="205" y="-12" name="sh01"/>
		</contour>
		<contour>
			<point x="380" y="114" type="curve" smooth="yes" name="ih03"/>
			<point x="289" y="114"/>
			<point x="206" y="170"/>
			<point x="206" y="345" type="curve" smooth="yes"/>
			<point x="206" y="365" type="line" smooth="yes"/>
			<point x="206" y="529"/>
			<point x="289" y="586"/>
			<point x="380" y="586" type="curve" smooth="yes"/>
			<point x="471" y="586"/>
			<point x="554" y="529"/>
			<point x="554" y="365" type="curve" smooth="yes"/>
			<point x="554" y="345" type="line" smooth="yes"/>
			<point x="554" y="170"/>
			<point x="471" y="114"/>
		</contour>
	</outline>
</glyph>
<glyph name="P" format="2">
	<advance width="665" height="0"/>
	<unicode hex="0050"/>
	<anchor x="333" y="0" name="bottom"/>
	<anchor x="333" y="700" name="top"/>
	<outline>
		<contour>
			<point x="80" y="0" type="line"/>
			<point x="230" y="0" type="line" name="ab01"/>
			<point x="230" y="240" type="line"/>
			<point x="350" y="240" type="line" smooth="yes" name="sv01"/>
			<point x="539" y="240"/>
			<point x="630" y="330" name="sh01"/>
			<point x="630" y="470" type="curve" smooth="yes" name="at01"/>
			<point x="630" y="610"/>
			<point x="539" y="700"/>
			<point x="350" y="700" type="curve" smooth="yes" name="sv02"/>
			<point x="80" y="700" type="line"/>
		</contour>
		<contour>
			<point x="230" y="364" type="line" name="ih01"/>
			<point x="230" y="576" type="line" name="ih02"/>
			<point x="335" y="576" type="line" smooth="yes" name="ih03"/>
			<point x="442" y="576"/>
			<point x="480" y="538"/>
			<point x="480" y="470" type="curve" smooth="yes"/>
			<point x="480" y="401"/>
			<point x="442" y="364"/>
			<point x="335" y="364" type="curve" smooth="yes"/>
		</contour>
	</outline>
</glyph>
<glyph name="Q" format="2">
	<advance width="760" height="0"/>
	<unicode hex="0051"/>
	<anchor x="380" y="0" name="bottom"/>
	<anchor x="380" y="700" name="top"/>
	<outline>
		<contour>
			<point x="380" y="-12" type="curve" smooth="yes"/>
			<point x="445" y="-12" name="iv02"/>
			<point x="508" y="2" name="sv01"/>
			<point x="561" y="33" type="curve"/>
			<point x="625" y="-30" type="line" name="iv01"/>
			<point x="700" y="45" type="line"/>
			<point x="640" y="104" type="line"/>
			<point x="683" y="161" name="at01"/>
			<point x="710" y="240"/>
			<point x="710" y="345" type="curve" smooth="yes"/>
			<point x="710" y="365" type="line" smooth="yes" name="ih01"/>
			<point x="710" y="609"/>
			<point x="555" y="712"/>
			<point x="380" y="712" type="curve" smooth="yes"/>
			<point x="205" y="712" name="sv02"/>
			<point x="50" y="609"/>
			<point x="50" y="365" type="curve" smooth="yes"/>
			<point x="50" y="345" type="line" smooth="yes" name="iv04"/>
			<point x="50" y="90" name="iv03"/>
			<point x="205" y="-12"/>
		</contour>
		<contour>
			<point x="380" y="114" type="curve" smooth="yes" name="sh01"/>
			<point x="289" y="114" name="ih02"/>
			<point x="206" y="170" name="ih03"/>
			<point x="206" y="345" type="curve" smooth="yes"/>
			<point x="206" y="365" type="line" smooth="yes"/>
			<point x="206" y="529"/>
			<point x="289" y="586"/>
			<point x="380" y="586" type="curve" smooth="yes"/>
			<point x="471" y="586"/>
			<point x="554" y="529"/>
			<point x="554" y="365" type="curve" smooth="yes"/>
			<point x="554" y="345" type="line" smooth="yes"/>
			<point x="554" y="289"/>
			<point x="546" y="248"/>
			<point x="531" y="213" type="curve"/>
			<point x="435" y="310" type="line"/>
			<point x="360" y="235" type="line"/>
			<point x="461" y="133" type="line"/>
			<point x="436" y="120"/>
			<point x="409" y="114"/>
		</contour>
	</outline>
</glyph>
<glyph name="R" format="2">
	<advance width="690" height="0"/>
	<unicode hex="0052"/>
	<anchor x="345" y="0" name="bottom"/>
	<anchor x="345" y="700" name="top"/>
	<outline>
		<contour>
			<point x="80" y="0" type="line"/>
			<point x="230" y="0" type="line" name="ab02"/>
			<point x="230" y="256" type="line"/>
			<point x="329" y="256" type="line" name="sh01"/>
			<point x="476" y="0" type="line"/>
			<point x="650" y="0" type="line" name="ab01"/>
			<point x="480" y="272" type="line" name="sv01"/>
			<point x="580" y="303"/>
			<point x="630" y="378"/>
			<point x="630" y="475" type="curve" smooth="yes" name="at01"/>
			<point x="630" y="611"/>
			<point x="540" y="700"/>
			<point x="365" y="700" type="curve" smooth="yes" name="sv02"/>
			<point x="80" y="700" type="line"/>
		</contour>
		<contour>
			<point x="230" y="374" type="line" name="ih01"/>
			<point x="230" y="576" type="line" name="ih02"/>
			<point x="335" y="576" type="line" smooth="yes" name="ih03"/>
			<point x="446" y="576"/>
			<point x="480" y="542"/>
			<point x="480" y="475" type="curve" smooth="yes"/>
			<point x="480" y="408"/>
			<point x="446" y="374"/>
			<point x="335" y="374" type="curve" smooth="yes"/>
		</contour>
	</outline>
</glyph>
<glyph name="S" format="2">
	<advance width="660" height="0"/>
	<unicode hex="0053"/>
	<anchor x="330" y="0" name="bottom"/>
	<anchor x="330" y="700" name="top"/>
	<outline>
		<contour>
			<point x="330" y="-12" type="curve" smooth="yes"/>
			<point x="511" y="-12"/>
			<point x="615" y="71" name="iv03"/>
			<point x="615" y="200" type="curve" smooth="yes"/>
			<point x="615" y="337" name="sv02"/>
			<point x="526" y="388" name="iv04"/>
			<point x="375" y="417" type="curve" smooth="yes"/>
			<point x="264" y="438" name="at01"/>
			<point x="215" y="465"/>
			<point x="215" y="516" type="curve" smooth="yes" name="iv01"/>
			<point x="215" y="559"/>
			<point x="251" y="586" name="sv01"/>
			<point x="330" y="586" type="curve" smooth="yes" name="iv02"/>
			<point x="407" y="586"/>
			<point x="436" y="563" name="ih01"/>
			<point x="445" y="515" type="curve" name="ih02"/>
			<point x="595" y="515" type="line" name="ih03"/>
			<point x="584" y="634"/>
			<point x="506" y="712"/>
			<point x="330" y="712" type="curve" smooth="yes"/>
			<point x="167" y="712"/>
			<point x="65" y="633"/>
			<point x="65" y="512" type="curve" smooth="yes"/>
			<point x="65" y="380"/>
			<point x="147" y="323"/>
			<point x="291" y="296" type="curve" smooth="yes"/>
			<point x="412" y="272"/>
			<point x="465" y="248"/>
			<point x="465" y="189" type="curve" smooth="yes"/>
			<point x="465" y="141"/>
			<point x="426" y="114"/>
			<point x="330" y="114" type="curve" smooth="yes"/>
			<point x="236" y="114"/>
			<point x="205" y="143"/>
			<point x="195" y="195" type="curve" name="hr01"/>
			<point x="45" y="195" type="line"/>
			<point x="50" y="71"/>
			<point x="145" y="-12"/>
		</contour>
	</outline>
</glyph>
<glyph name="U" format="2">
	<advance width="730" height="0"/>
	<unicode hex="0055"/>
	<anchor x="365" y="0" name="bottom"/>
	<anchor x="469" y="0" name="ogonek"/>
	<anchor x="365" y="700" name="top"/>
	<anchor x="710" y="700" name="topright"/>
	<outline>
		<contour>
			<point x="365" y="-12" type="curve" smooth="yes"/>
			<point x="546" y="-12"/>
			<point x="660" y="84"/>
			<point x="660" y="280" type="curve" smooth="yes" name="at02"/>
			<point x="660" y="700" type="line"/>
			<point x="510" y="700" type="line" name="sv01"/>
			<point x="510" y="293" type="line" smooth="yes"/>
			<point x="510" y="174"/>
			<point x="465" y="114" name="at01"/>
			<point x="365" y="114" type="curve" smooth="yes"/>
			<point x="265" y="114" name="ih01"/>
			<point x="220" y="174" name="ih02"/>
			<point x="220" y="294" type="curve" smooth="yes" name="ih03"/>
			<point x="220" y="700" type="line"/>
			<point x="70" y="700" type="line"/>
			<point x="70" y="280" type="line" smooth="yes"/>
			<point x="70" y="84"/>
			<point x="185" y="-12"/>
		</contour>
	</outline>
</glyph>
<glyph name="V" format="2">
	<advance width="690" height="0"/>
	<unicode hex="0056"/>
	<anchor x="345" y="0" name="bottom"/>
	<anchor x="345" y="700" name="top"/>
	<outline>
		<contour>
			<point x="275" y="0" type="line"/>
			<point x="425" y="0" type="line" name="ab01"/>
			<point x="680" y="700" type="line"/>
			<point x="530" y="700" type="line" name="at02"/>
			<point x="356" y="180" type="line" name="ih01"/>
			<point x="172" y="700" type="line"/>
			<point x="10" y="700" type="line" name="at01"/>
		</contour>
	</outline>
</glyph>
<glyph name="X" format="2">
	<advance width="700" height="0"/>
	<unicode hex="0058"/>
	<anchor x="350" y="0" name="bottom"/>
	<anchor x="350" y="700" name="top"/>
	<outline>
		<contour>
			<point x="20" y="0" type="line"/>
			<point x="186" y="0" type="line" name="ab02"/>
			<point x="349" y="262" type="line" name="ih01"/>
			<point x="511" y="0" type="line"/>
			<point x="680" y="0" type="line" name="ab01"/>
			<point x="447" y="368" type="line"/>
			<point x="670" y="700" type="line"/>
			<point x="507" y="700" type="line" name="at02"/>
			<point x="352" y="471" type="line" name="iv01"/>
			<point x="198" y="700" type="line"/>
			<point x="30" y="700" type="line" name="at01"/>
			<point x="255" y="365" type="line"/>
		</contour>
	</outline>
</glyph>
<glyph name="backslash" format="2">
	<advance width="480" height="0"/>
	<unicode hex="005C"/>
	<outline>
		<contour>
			<point x="340" y="-200" type="line"/>
			<point x="460" y="-200" type="line" name="ab01"/>
			<point x="140" y="700" type="line" name="ih01"/>
			<point x="20" y="700" type="line" name="at01"/>
		</contour>
	</outline>
</glyph>
<glyph name="bracketright" format="2">
	<advance width="380" height="0"/>
	<unicode hex="005D"/>
	<outline>
		<contour>
			<point x="270" y="700" type="line"/>
			<point x="50" y="700" type="line" name="ab01"/>
			<point x="50" y="602" type="line"/>
			<point x="150" y="602" type="line" name="hr01"/>
			<point x="150" y="-102" type="line" name="ih01"/>
			<point x="50" y="-102" type="line" name="hr02"/>
			<point x="50" y="-200" type="line"/>
			<point x="270" y="-200" type="line" name="at01"/>
		</contour>
	</outline>
</glyph>
<glyph name="underscore" format="2">
	<advance width="500" height="0"/>
	<unicode hex="005F"/>
	<outline>
		<contour>
			<point x="0" y="-149" type="line"/>
			<point x="500" y="-149" type="line" name="sv01"/>
			<point x="500" y="-51" type="line" name="av01"/>
			<point x="0" y="-51" type="line" name="ih01"/>
		</contour>
	</outline>
</glyph>
<glyph name="b" format="2">
	<advance width="615" height="0"/>
	<unicode hex="0062"/>
	<anchor x="308" y="0" name="bottom"/>
	<anchor x="308" y="265" name="center"/>
	<anchor x="308" y="530" name="top"/>
	<outline>
		<contour>
			<point x="355" y="-12" type="curve" smooth="yes"/>
			<point x="494" y="-12"/>
			<point x="580" y="77"/>
			<point x="580" y="260" type="curve" smooth="yes"/>
			<point x="580" y="280" type="line" smooth="yes"/>
			<point x="580" y="455"/>
			<point x="496" y="542"/>
			<point x="355" y="542" type="curve" smooth="yes"/>
			<point x="283" y="542"/>
			<point x="227" y="508"/>
			<point x="192" y="457" type="curve"/>
			<point x="192" y="700" type="line"/>
			<point x="60" y="700" type="line"/>
			<point x="60" y="0" type="line" name="hr01"/>
			<point x="183" y="0" type="line"/>
			<point x="183" y="78" type="line"/>
			<point x="210" y="30"/>
			<point x="267" y="-12" name="hr02"/>
		</contour>
		<contour>
			<point x="324" y="100" type="curve" smooth="yes"/>
			<point x="245" y="100"/>
			<point x="192" y="145"/>
			<point x="192" y="240" type="curve" smooth="yes"/>
			<point x="192" y="300" type="line" smooth="yes"/>
			<point x="192" y="387"/>
			<point x="248" y="430"/>
			<point x="324" y="430" type="curve" smooth="yes"/>
			<point x="396" y="430"/>
			<point x="446" y="380"/>
			<point x="446" y="280" type="curve" smooth="yes"/>
			<point x="446" y="260" type="line" smooth="yes"/>
			<point x="446" y="152"/>
			<point x="393" y="100"/>
		</contour>
	</outline>
</glyph>
<glyph name="c" format="2">
	<advance width="565" height="0"/>
	<unicode hex="0063"/>
	<anchor x="283" y="0" name="bottom"/>
	<anchor x="283" y="530" name="top"/>
	<outline>
		<contour>
			<point x="295" y="-12" type="curve" smooth="yes"/>
			<point x="427" y="-12"/>
			<point x="522" y="63" name="iv02"/>
			<point x="535" y="180" type="curve" name="sv02"/>
			<point x="401" y="180" type="line"/>
			<point x="388" y="128"/>
			<point x="347" y="100" name="sv01"/>
			<point x="295" y="100" type="curve" smooth="yes" name="iv01"/>
			<point x="223" y="100"/>
			<point x="169" y="147" name="at01"/>
			<point x="169" y="260" type="curve" smooth="yes"/>
			<point x="169" y="280" type="line" smooth="yes"/>
			<point x="169" y="383" name="ih01"/>
			<point x="227" y="430" name="ih02"/>
			<point x="295" y="430" type="curve" smooth="yes" name="ih03"/>
			<point x="360" y="430"/>
			<point x="390" y="399"/>
			<point x="401" y="350" type="curve" name="hr02"/>
			<point x="535" y="350" type="line"/>
			<point x="527" y="457"/>
			<point x="444" y="542"/>
			<point x="295" y="542" type="curve" smooth="yes"/>
			<point x="155" y="542"/>
			<point x="35" y="451"/>
			<point x="35" y="280" type="curve" smooth="yes"/>
			<point x="35" y="260" type="line" smooth="yes"/>
			<point x="35" y="79"/>
			<point x="148" y="-12"/>
		</contour>
	</outline>
</glyph>
<glyph name="d" format="2">
	<advance width="615" height="0"/>
	<unicode hex="0064"/>
	<anchor x="308" y="0" name="bottom"/>
	<anchor x="308" y="265" name="center"/>
	<anchor x="308" y="774" name="top"/>
	<anchor x="605" y="700" name="topright"/>
	<outline>
		<contour>
			<point x="260" y="-12" type="curve" smooth="yes"/>
			<point x="348" y="-12"/>
			<point x="405" y="30"/>
			<point x="432" y="78" type="curve"/>
			<point x="432" y="0" type="line" name="hr01"/>
			<point x="555" y="0" type="line"/>
			<point x="555" y="700" type="line"/>
			<point x="423" y="700" type="line"/>
			<point x="423" y="457" type="line"/>
			<point x="388" y="508"/>
			<point x="332" y="542"/>
			<point x="260" y="542" type="curve" smooth="yes"/>
			<point x="123" y="542"/>
			<point x="35" y="451"/>
			<point x="35" y="280" type="curve" smooth="yes"/>
			<point x="35" y="260" type="line" smooth="yes"/>
			<point x="35" y="77"/>
			<point x="121" y="-12" name="hr02"/>
		</contour>
		<contour>
			<point x="291" y="100" type="curve" smooth="yes"/>
			<point x="222" y="100"/>
			<point x="169" y="152"/>
			<point x="169" y="260" type="curve" smooth="yes"/>
			<point x="169" y="280" type="line" smooth="yes"/>
			<point x="169" y="380"/>
			<point x="219" y="430"/>
			<point x="291" y="430" type="curve" smooth="yes"/>
			<point x="367" y="430"/>
			<point x="423" y="387"/>
			<point x="423" y="300" type="curve" smooth="yes"/>
			<point x="423" y="240" type="line" smooth="yes"/>
			<point x="423" y="145"/>
			<point x="370" y="100"/>
		</contour>
	</outline>
</glyph>
<glyph name="e" format="2">
	<advance width="580" height="0"/>
	<unicode hex="0065"/>
	<anchor x="290" y="0" name="bottom"/>
	<anchor x="392" y="0" name="ogonek"/>
	<anchor x="290" y="530" name="top"/>
	<outline>
		<contour>
			<point x="300" y="-12" type="curve" smooth="yes"/>
			<point x="424" y="-12"/>
			<point x="514" y="44" name="iv02"/>
			<point x="535" y="155" type="curve" name="sv02"/>
			<point x="414" y="155" type="line"/>
			<point x="399" y="116" name="sv01"/>
			<point x="368" y="96" name="hr01"/>
			<point x="300" y="96" type="curve" smooth="yes" name="ih01"/>
			<point x="234" y="96"/>
			<point x="173" y="135"/>
			<point x="170" y="229" type="curve" name="ab01"/>
			<point x="545" y="229" type="line"/>
			<point x="545" y="285" type="line" smooth="yes" name="iv01"/>
			<point x="545" y="452"/>
			<point x="457" y="542" name="sh01"/>
			<point x="290" y="542" type="curve" smooth="yes" name="ih02"/>
			<point x="150" y="542" name="ih03"/>
			<point x="35" y="455"/>
			<point x="35" y="280" type="curve" smooth="yes"/>
			<point x="35" y="260" type="line" smooth="yes"/>
			<point x="35" y="75"/>
			<point x="155" y="-12"/>
		</contour>
		<contour>
			<point x="295" y="434" type="curve" smooth="yes"/>
			<point x="363" y="434"/>
			<point x="414" y="410"/>
			<point x="417" y="321" type="curve"/>
			<point x="170" y="321" type="line"/>
			<point x="173" y="405"/>
			<point x="232" y="434"/>
		</contour>
	</outline>
</glyph>
<glyph name="g" format="2">
	<advance width="615" height="0"/>
	<unicode hex="0067"/>
	<anchor x="308" y="-226" name="bottom"/>
	<anchor x="308" y="530" name="top"/>
	<outline>
		<contour>
			<point x="290" y="-212" type="curve" smooth="yes"/>
			<point x="469" y="-212"/>
			<point x="555" y="-127"/>
			<point x="555" y="30" type="curve" smooth="yes"/>
			<point x="555" y="530" type="line"/>
			<point x="432" y="530" type="line"/>
			<point x="432" y="452" type="line"/>
			<point x="405" y="500"/>
			<point x="348" y="542" name="hr01"/>
			<point x="260" y="542" type="curve" smooth="yes"/>
			<point x="123" y="542"/>
			<point x="35" y="450"/>
			<point x="35" y="285" type="curve" smooth="yes"/>
			<point x="35" y="265" type="line" smooth="yes"/>
			<point x="35" y="88"/>
			<point x="121" y="-2"/>
			<point x="260" y="-2" type="curve" smooth="yes"/>
			<point x="332" y="-2"/>
			<point x="388" y="32"/>
			<point x="423" y="83" type="curve"/>
			<point x="423" y="20" type="line" smooth="yes"/>
			<point x="423" y="-65"/>
			<point x="379" y="-108"/>
			<point x="290" y="-108" type="curve" smooth="yes"/>
			<point x="220" y="-108"/>
			<point x="197" y="-78"/>
			<point x="189" y="-50" type="curve" name="hr01"/>
			<point x="55" y="-50" type="line"/>
			<point x="63" y="-147"/>
			<point x="122" y="-212"/>
		</contour>
		<contour>
			<point x="291" y="110" type="curve" smooth="yes"/>
			<point x="222" y="110"/>
			<point x="169" y="162"/>
			<point x="169" y="265" type="curve" smooth="yes"/>
			<point x="169" y="285" type="line" smooth="yes"/>
			<point x="169" y="380"/>
			<point x="219" y="430"/>
			<point x="291" y="430" type="curve" smooth="yes"/>
			<point x="367" y="430"/>
			<point x="423" y="386"/>
			<point x="423" y="305" type="curve" smooth="yes"/>
			<point x="423" y="245" type="line" smooth="yes"/>
			<point x="423" y="156"/>
			<point x="370" y="110"/>
		</contour>
	</outline>
</glyph>
<glyph name="k" format="2">
	<advance width="575" height="0"/>
	<unicode hex="006B"/>
	<anchor x="288" y="0" name="bottom"/>
	<anchor x="288" y="774" name="top"/>
	<outline>
		<contour>
			<point x="60" y="0" type="line"/>
			<point x="192" y="0" type="line" name="ab02"/>
			<point x="192" y="153" type="line"/>
			<point x="252" y="216" type="line" name="ih01"/>
			<point x="406" y="0" type="line"/>
			<point x="560" y="0" type="line" name="ab01"/>
			<point x="336" y="303" type="line"/>
			<point x="540" y="530" type="line"/>
			<point x="388" y="530" type="line" name="at02"/>
			<point x="192" y="312" type="line" name="iv01"/>
			<point x="192" y="700" type="line"/>
			<point x="60" y="700" type="line" name="at01"/>
		</contour>
	</outline>
</glyph>
<glyph name="l" format="2">
	<advance width="330" height="0"/>
	<unicode hex="006C"/>
	<anchor x="165" y="0" name="bottom"/>
	<anchor x="165" y="387" name="center"/>
	<anchor x="131" y="700" name="top"/>
	<anchor x="247" y="700" name="topright"/>
	<outline>
		<contour>
			<point x="240" y="-6" type="curve" smooth="yes"/>
			<point x="260" y="-6"/>
			<point x="294" y="-6"/>
			<point x="305" y="-3" type="curve"/>
			<point x="305" y="108" type="line"/>
			<point x="294" y="107"/>
			<point x="285" y="106"/>
			<point x="270" y="106" type="curve" smooth="yes"/>
			<point x="213" y="106"/>
			<point x="197" y="125" name="hr01"/>
			<point x="197" y="193" type="curve" smooth="yes" name="hr01"/>
			<point x="197" y="700" type="line"/>
			<point x="65" y="700" type="line"/>
			<point x="65" y="177" type="line" smooth="yes"/>
			<point x="65" y="35"/>
			<point x="117" y="-6"/>
		</contour>
	</outline>
</glyph>
<glyph name="n" format="2">
	<advance width="605" height="0"/>
	<unicode hex="006E"/>
	<anchor x="303" y="0" name="bottom"/>
	<anchor x="303" y="530" name="top"/>
	<outline>
		<contour>
			<point x="60" y="0" type="line"/>
			<point x="192" y="0" type="line" name="ab02"/>
			<point x="192" y="310" type="line" smooth="yes"/>
			<point x="192" y="373" name="ih01"/>
			<point x="226" y="430"/>
			<point x="310" y="430" type="curve" smooth="yes"/>
			<point x="389" y="430" name="ab01"/>
			<point x="418" y="390"/>
			<point x="418" y="310" type="curve" smooth="yes" name="at01"/>
			<point x="418" y="0" type="line" name="iv01"/>
			<point x="550" y="0" type="line"/>
			<point x="550" y="340" type="line" smooth="yes" name="at02"/>
			<point x="550" y="471" name="ih02"/>
			<point x="487" y="542" name="ih03"/>
			<point x="358" y="542" type="curve" smooth="yes"/>
			<point x="262" y="542"/>
			<point x="207" y="500"/>
			<point x="182" y="452" type="curve"/>
			<point x="182" y="530" type="line" name="hr01"/>
			<point x="60" y="530" type="line"/>
		</contour>
	</outline>
</glyph>
<glyph name="o" format="2">
	<advance width="600" height="0"/>
	<unicode hex="006F"/>
	<anchor x="300" y="0" name="bottom"/>
	<anchor x="300" y="265" name="center"/>
	<anchor x="540" y="10" name="ogonek"/>
	<anchor x="300" y="530" name="top"/>
	<anchor x="580" y="530" name="topright"/>
	<outline>
		<contour>
			<point x="300" y="-12" type="curve" smooth="yes"/>
			<point x="444" y="-12"/>
			<point x="565" y="79"/>
			<point x="565" y="260" type="curve" smooth="yes" name="at01"/>
			<point x="565" y="280" type="line" smooth="yes"/>
			<point x="565" y="453"/>
			<point x="444" y="542" name="ih01"/>
			<point x="300" y="542" type="curve" smooth="yes"/>
			<point x="155" y="542"/>
			<point x="35" y="453"/>
			<point x="35" y="280" type="curve" smooth="yes" name="sv01"/>
			<point x="35" y="260" type="line" smooth="yes"/>
			<point x="35" y="76"/>
			<point x="155" y="-12" name="sh01"/>
		</contour>
		<contour>
			<point x="300" y="100" type="curve" smooth="yes" name="ih03"/>
			<point x="224" y="100"/>
			<point x="169" y="152"/>
			<point x="169" y="260" type="curve" smooth="yes"/>
			<point x="169" y="280" type="line" smooth="yes"/>
			<point x="169" y="377"/>
			<point x="224" y="430"/>
			<point x="300" y="430" type="curve" smooth="yes"/>
			<point x="375" y="430"/>
			<point x="431" y="377"/>
			<point x="431" y="280" type="curve" smooth="yes"/>
			<point x="431" y="260" type="line" smooth="yes"/>
			<point x="431" y="153"/>
			<point x="375" y="100"/>
		</contour>
	</outline>
</glyph>
<glyph name="p" format="2">
	<advance width="615" height="0"/>
	<unicode hex="0070"/>
	<anchor x="308" y="0" name="bottom"/>
	<anchor x="308" y="530" name="top"/>
	<outline>
		<contour>
			<point x="60" y="-200" type="line"/>
			<point x="192" y="-200" type="line"/>
			<point x="192" y="73" type="line"/>
			<point x="227" y="22"/>
			<point x="283" y="-12"/>
			<point x="355" y="-12" type="curve" smooth="yes"/>
			<point x="494" y="-12"/>
			<point x="580" y="77"/>
			<point x="580" y="260" type="curve" smooth="yes"/>
			<point x="580" y="280" type="line" smooth="yes"/>
			<point x="580" y="455"/>
			<point x="496" y="542"/>
			<point x="355" y="542" type="curve" smooth="yes"/>
			<point x="267" y="542"/>
			<point x="210" y="500"/>
			<point x="183" y="452" type="curve"/>
			<point x="183" y="530" type="line" name="hr01"/>
			<point x="60" y="530" type="line"/>
		</contour>
		<contour>
			<point x="324" y="100" type="curve" smooth="yes"/>
			<point x="245" y="100"/>
			<point x="192" y="145"/>
			<point x="192" y="240" type="curve" smooth="yes"/>
			<point x="192" y="300" type="line" smooth="yes"/>
			<point x="192" y="387"/>
			<point x="248" y="430"/>
			<point x="324" y="430" type="curve" smooth="yes"/>
			<point x="396" y="430"/>
			<point x="446" y="380"/>
			<point x="446" y="280" type="curve" smooth="yes"/>
			<point x="446" y="260" type="line" smooth="yes"/>
			<point x="446" y="152"/>
			<point x="393" y="100"/>
		</contour>
	</outline>
</glyph>
<glyph name="q" format="2">
	<advance width="615" height="0"/>
	<unicode hex="0071"/>
	<anchor x="308" y="0" name="bottom"/>
	<anchor x="308" y="530" name="top"/>
	<outline>
		<contour>
			<point x="423" y="-200" type="line"/>
			<point x="555" y="-200" type="line"/>
			<point x="555" y="530" type="line"/>
			<point x="432" y="530" type="line"/>
			<point x="432" y="452" type="line"/>
			<point x="405" y="500"/>
			<point x="348" y="542" name="hr01"/>
			<point x="260" y="542" type="curve" smooth="yes" name="hr01"/>
			<point x="123" y="542"/>
			<point x="35" y="451"/>
			<point x="35" y="280" type="curve" smooth="yes"/>
			<point x="35" y="260" type="line" smooth="yes"/>
			<point x="35" y="77"/>
			<point x="121" y="-12"/>
			<point x="260" y="-12" type="curve" smooth="yes"/>
			<point x="332" y="-12"/>
			<point x="388" y="22"/>
			<point x="423" y="73" type="curve"/>
		</contour>
		<contour>
			<point x="291" y="100" type="curve" smooth="yes"/>
			<point x="222" y="100"/>
			<point x="169" y="152"/>
			<point x="169" y="260" type="curve" smooth="yes"/>
			<point x="169" y="280" type="line" smooth="yes"/>
			<point x="169" y="380"/>
			<point x="219" y="430"/>
			<point x="291" y="430" type="curve" smooth="yes"/>
			<point x="367" y="430"/>
			<point x="423" y="387"/>
			<point x="423" y="300" type="curve" smooth="yes"/>
			<point x="423" y="240" type="line" smooth="yes"/>
			<point x="423" y="145"/>
			<point x="370" y="100"/>
		</contour>
	</outline>
</glyph>
<glyph name="r" format="2">
	<advance width="390" height="0"/>
	<unicode hex="0072"/>
	<anchor x="126" y="0" name="bottom"/>
	<anchor x="195" y="530" name="top"/>
	<outline>
		<contour>
			<point x="60" y="0" type="line"/>
			<point x="192" y="0" type="line"/>
			<point x="192" y="309" type="line" smooth="yes"/>
			<point x="192" y="373"/>
			<point x="223" y="430"/>
			<point x="303" y="430" type="curve" smooth="yes"/>
			<point x="338" y="430"/>
			<point x="357" y="424"/>
			<point x="370" y="419" type="curve"/>
			<point x="370" y="536" type="line"/>
			<point x="365" y="539"/>
			<point x="345" y="542" name="hr01"/>
			<point x="320" y="542" type="curve" smooth="yes"/>
			<point x="252" y="542"/>
			<point x="201" y="496"/>
			<point x="182" y="452" type="curve"/>
			<point x="182" y="530" type="line" name="hr01"/>
			<point x="60" y="530" type="line"/>
		</contour>
	</outline>
</glyph>
<glyph name="s" format="2">
	<advance width="550" height="0"/>
	<unicode hex="0073"/>
	<anchor x="275" y="0" name="bottom"/>
	<anchor x="275" y="530" name="top"/>
	<outline>
		<contour>
			<point x="275" y="-12" type="curve" smooth="yes"/>
			<point x="435" y="-12"/>
			<point x="515" y="59" name="iv03"/>
			<point x="515" y="155" type="curve" smooth="yes"/>
			<point x="515" y="263" name="sv02"/>
			<point x="421" y="304" name="iv04"/>
			<point x="302" y="320" type="curve" smooth="yes"/>
			<point x="205" y="333" name="at01"/>
			<point x="182" y="348"/>
			<point x="182" y="380" type="curve" smooth="yes" name="iv01"/>
			<point x="182" y="411"/>
			<point x="208" y="434" name="sv01"/>
			<point x="275" y="434" type="curve" smooth="yes" name="iv02"/>
			<point x="320" y="434"/>
			<point x="352" y="414" name="ih01"/>
			<point x="363" y="375" type="curve" name="ih02"/>
			<point x="495" y="375" type="line" name="ih03"/>
			<point x="484" y="460"/>
			<point x="429" y="542"/>
			<point x="275" y="542" type="curve" smooth="yes"/>
			<point x="133" y="542"/>
			<point x="50" y="471"/>
			<point x="50" y="383" type="curve" smooth="yes"/>
			<point x="50" y="274"/>
			<point x="140" y="235"/>
			<point x="254" y="219" type="curve"/>
			<point x="355" y="203"/>
			<point x="383" y="188"/>
			<point x="383" y="153" type="curve" smooth="yes"/>
			<point x="383" y="120"/>
			<point x="352" y="96"/>
			<point x="275" y="96" type="curve" smooth="yes"/>
			<point x="207" y="96"/>
			<point x="174" y="120"/>
			<point x="167" y="155" type="curve" name="hr01"/>
			<point x="35" y="155" type="line"/>
			<point x="43" y="68"/>
			<point x="102" y="-12"/>
		</contour>
	</outline>
</glyph>
<glyph name="t" format="2">
	<advance width="400" height="0"/>
	<unicode hex="0074"/>
	<anchor x="200" y="0" name="bottom"/>
	<anchor x="200" y="265" name="center"/>
	<anchor x="200" y="530" name="top"/>
	<anchor x="264" y="809" name="topright"/>
	<outline>
		<contour>
			<point x="275" y="-6" type="curve" smooth="yes"/>
			<point x="315" y="-6"/>
			<point x="340" y="-4"/>
			<point x="365" y="-1" type="curve"/>
			<point x="365" y="109" type="line"/>
			<point x="345" y="107"/>
			<point x="325" y="106"/>
			<point x="305" y="106" type="curve" smooth="yes"/>
			<point x="245" y="106"/>
			<point x="227" y="130"/>
			<point x="227" y="190" type="curve" smooth="yes"/>
			<point x="227" y="420" type="line"/>
			<point x="355" y="420" type="line"/>
			<point x="355" y="530" type="line"/>
			<point x="227" y="530" type="line"/>
			<point x="227" y="650" type="line"/>
			<point x="95" y="650" type="line"/>
			<point x="95" y="530" type="line"/>
			<point x="25" y="530" type="line"/>
			<point x="25" y="420" type="line"/>
			<point x="95" y="420" type="line"/>
			<point x="95" y="170" type="line" smooth="yes"/>
			<point x="95" y="43"/>
			<point x="150" y="-6"/>
		</contour>
	</outline>
</glyph>
<glyph name="u" format="2">
	<advance width="595" height="0"/>
	<unicode hex="0075"/>
	<anchor x="298" y="0" name="bottom"/>
	<anchor x="535" y="0" name="ogonek"/>
	<anchor x="298" y="530" name="top"/>
	<anchor x="575" y="530" name="topright"/>
	<outline>
		<contour>
			<point x="242" y="-12" type="curve" smooth="yes"/>
			<point x="334" y="-12" name="iv01"/>
			<point x="388" y="30"/>
			<point x="413" y="78" type="curve" name="ab02"/>
			<point x="413" y="0" type="line" name="hr01"/>
			<point x="535" y="0" type="line" name="at02"/>
			<point x="535" y="530" type="line"/>
			<point x="403" y="530" type="line" name="ih01"/>
			<point x="403" y="221" type="line" smooth="yes"/>
			<point x="403" y="157"/>
			<point x="369" y="100" name="at01"/>
			<point x="290" y="100" type="curve" smooth="yes"/>
			<point x="215" y="100" name="ab01"/>
			<point x="187" y="141" name="ih02"/>
			<point x="187" y="221" type="curve" smooth="yes" name="ih03"/>
			<point x="187" y="530" type="line"/>
			<point x="55" y="530" type="line"/>
			<point x="55" y="203" type="line" smooth="yes"/>
			<point x="55" y="56"/>
			<point x="118" y="-12" name="hr02"/>
		</contour>
	</outline>
</glyph>
<glyph name="x" format="2">
	<advance width="570" height="0"/>
	<unicode hex="0078"/>
	<anchor x="285" y="0" name="bottom"/>
	<anchor x="285" y="530" name="top"/>
	<outline>
		<contour>
			<point x="15" y="0" type="line"/>
			<point x="160" y="0" type="line" name="ab02"/>
			<point x="283" y="198" type="line" name="ih01"/>
			<point x="407" y="0" type="line"/>
			<point x="555" y="0" type="line" name="ab01"/>
			<point x="377" y="281" type="line"/>
			<point x="545" y="530" type="line"/>
			<point x="402" y="530" type="line" name="at02"/>
			<point x="288" y="360" type="line" name="iv01"/>
			<point x="172" y="530" type="line"/>
			<point x="25" y="530" type="line" name="at01"/>
			<point x="195" y="276" type="line"/>
		</contour>
	</outline>
</glyph>
<glyph name="y" format="2">
	<advance width="580" height="0"/>
	<unicode hex="0079"/>
	<anchor x="290" y="0" name="bottom"/>
	<anchor x="290" y="530" name="top"/>
	<outline>
		<contour>
			<point x="150" y="-212" type="curve" smooth="yes"/>
			<point x="270" y="-212"/>
			<point x="307" y="-150"/>
			<point x="366" y="0" type="curve" smooth="yes" name="at02"/>
			<point x="570" y="530" type="line" name="ih01"/>
			<point x="434" y="530" type="line"/>
			<point x="302" y="164" type="line" name="at01"/>
			<point x="158" y="530" type="line" name="ab02"/>
			<point x="10" y="530" type="line" name="sv01"/>
			<point x="234" y="0" type="line"/>
			<point x="206" y="-73"/>
			<point x="190" y="-100" name="ab01"/>
			<point x="150" y="-100" type="curve" smooth="yes" name="ih02"/>
			<point x="140" y="-100" name="ih03"/>
			<point x="130" y="-99"/>
			<point x="120" y="-97" type="curve"/>
			<point x="120" y="-209" type="line"/>
			<point x="130" y="-211"/>
			<point x="140" y="-212"/>
		</contour>
	</outline>
</glyph>
<glyph name="braceleft" format="2">
	<advance width="380" height="0"/>
	<unicode hex="007B"/>
	<outline>
		<contour>
			<point x="340" y="-200" type="line" name="hr05"/>
			<point x="340" y="-102" type="line"/>
			<point x="300" y="-102" type="line" smooth="yes" name="sv03"/>
			<point x="260" y="-102"/>
			<point x="240" y="-82" name="hr01"/>
			<point x="240" y="-42" type="curve" smooth="yes" name="ih01"/>
			<point x="240" y="180" type="line" smooth="yes"/>
			<point x="240" y="220"/>
			<point x="221" y="239"/>
			<point x="190" y="250" type="curve" name="sv02"/>
			<point x="221" y="261"/>
			<point x="240" y="280" name="at01"/>
			<point x="240" y="320" type="curve" smooth="yes"/>
			<point x="240" y="542" type="line" smooth="yes"/>
			<point x="240" y="582" name="iv01"/>
			<point x="260" y="602" name="sv01"/>
			<point x="300" y="602" type="curve" smooth="yes"/>
			<point x="340" y="602" type="line" name="hr02"/>
			<point x="340" y="700" type="line" name="ab01"/>
			<point x="280" y="700" type="line" smooth="yes" name="ih02"/>
			<point x="187" y="700" name="ih03"/>
			<point x="120" y="640"/>
			<point x="120" y="550" type="curve" smooth="yes"/>
			<point x="120" y="349" type="line" smooth="yes"/>
			<point x="120" y="320"/>
			<point x="101" y="299"/>
			<point x="70" y="299" type="curve" name="hr01"/>
			<point x="70" y="201" type="line"/>
			<point x="101" y="201"/>
			<point x="120" y="182" name="hr04"/>
			<point x="120" y="151" type="curve" smooth="yes" name="hr02"/>
			<point x="120" y="-40" type="line" smooth="yes"/>
			<point x="120" y="-140"/>
			<point x="180" y="-200"/>
			<point x="280" y="-200" type="curve" smooth="yes" name="hr03"/>
		</contour>
	</outline>
</glyph>
<glyph name="braceright" format="2">
	<advance width="380" height="0"/>
	<unicode hex="007D"/>
	<outline>
		<contour>
			<point x="40" y="700" type="line"/>
			<point x="40" y="602" type="line"/>
			<point x="80" y="602" type="line" smooth="yes" name="sv03"/>
			<point x="120" y="602"/>
			<point x="140" y="582"/>
			<point x="140" y="542" type="curve" smooth="yes" name="ih01"/>
			<point x="140" y="320" type="line" smooth="yes"/>
			<point x="140" y="280"/>
			<point x="159" y="261"/>
			<point x="190" y="250" type="curve" name="sv02"/>
			<point x="159" y="239"/>
			<point x="140" y="220" name="at01"/>
			<point x="140" y="180" type="curve" smooth="yes"/>
			<point x="140" y="-42" type="line" smooth="yes"/>
			<point x="140" y="-82" name="iv01"/>
			<point x="120" y="-102" name="sv01"/>
			<point x="80" y="-102" type="curve" smooth="yes"/>
			<point x="40" y="-102" type="line"/>
			<point x="40" y="-200" type="line" name="ab01"/>
			<point x="100" y="-200" type="line" smooth="yes" name="ih02"/>
			<point x="193" y="-200" name="ih03"/>
			<point x="260" y="-140"/>
			<point x="260" y="-50" type="curve" smooth="yes"/>
			<point x="260" y="151" type="line" smooth="yes"/>
			<point x="260" y="180"/>
			<point x="279" y="201"/>
			<point x="310" y="201" type="curve" name="hr01"/>
			<point x="310" y="299" type="line"/>
			<point x="279" y="299"/>
			<point x="260" y="318" name="hr02"/>
			<point x="260" y="349" type="curve" smooth="yes" name="hr02"/>
			<point x="260" y="540" type="line" smooth="yes"/>
			<point x="260" y="640"/>
			<point x="200" y="700"/>
			<point x="100" y="700" type="curve" smooth="yes" name="hr03"/>
		</contour>
	</outline>
</glyph>
<glyph name="asciitilde" format="2">
	<advance width="570" height="0"/>
	<unicode hex="007E"/>
	<outline>
		<contour>
			<point x="380" y="260" type="curve" smooth="yes"/>
			<point x="436" y="260"/>
			<point x="474" y="291"/>
			<point x="501" y="322" type="curve" smooth="yes"/>
			<point x="516" y="340"/>
			<point x="529" y="361"/>
			<point x="540" y="385" type="curve"/>
			<point x="452" y="440" type="line"/>
			<point x="447" y="429"/>
			<point x="442" y="420"/>
			<point x="435" y="413" type="curve"/>
			<point x="424" y="398"/>
			<point x="406" y="386"/>
			<point x="385" y="386" type="curve" smooth="yes"/>
			<point x="324" y="386"/>
			<point x="280" y="460" name="hr01"/>
			<point x="190" y="460" type="curve" smooth="yes"/>
			<point x="134" y="460"/>
			<point x="96" y="428"/>
			<point x="69" y="397" type="curve" smooth="yes"/>
			<point x="54" y="379"/>
			<point x="41" y="358"/>
			<point x="30" y="335" type="curve"/>
			<point x="118" y="280" type="line"/>
			<point x="123" y="290"/>
			<point x="128" y="299"/>
			<point x="135" y="307" type="curve" smooth="yes"/>
			<point x="146" y="320"/>
			<point x="162" y="334"/>
			<point x="185" y="334" type="curve" smooth="yes"/>
			<point x="245" y="334"/>
			<point x="290" y="260" name="hr02"/>
		</contour>
	</outline>
</glyph>
<glyph name="cent" format="2">
	<advance width="565" height="0"/>
	<unicode hex="00A2"/>
	<outline>
		<contour>
			<point x="235" y="-120" type="line" name="sv05"/>
			<point x="355" y="-120" type="line"/>
			<point x="355" y="-6" type="line" name="sv04"/>
			<point x="455" y="13" name="iv02"/>
			<point x="524" y="80"/>
			<point x="535" y="180" type="curve" name="sv03"/>
			<point x="401" y="180" type="line"/>
			<point x="388" y="128"/>
			<point x="347" y="100" name="ih01"/>
			<point x="295" y="100" type="curve" smooth="yes"/>
			<point x="223" y="100" name="iv01"/>
			<point x="169" y="147" name="at01"/>
			<point x="169" y="260" type="curve" smooth="yes" name="sv02"/>
			<point x="169" y="280" type="line" smooth="yes"/>
			<point x="169" y="383" name="sv01"/>
			<point x="227" y="430"/>
			<point x="295" y="430" type="curve" smooth="yes"/>
			<point x="360" y="430" name="ab01"/>
			<point x="390" y="399" name="ih02"/>
			<point x="401" y="350" type="curve" name="ih03"/>
			<point x="535" y="350" type="line"/>
			<point x="527" y="442"/>
			<point x="467" y="517"/>
			<point x="355" y="537" type="curve"/>
			<point x="355" y="630" type="line"/>
			<point x="235" y="630" type="line"/>
			<point x="235" y="536" type="line"/>
			<point x="123" y="515"/>
			<point x="35" y="424"/>
			<point x="35" y="280" type="curve" smooth="yes"/>
			<point x="35" y="260" type="line" smooth="yes"/>
			<point x="35" y="103"/>
			<point x="119" y="15"/>
			<point x="235" y="-6" type="curve"/>
		</contour>
	</outline>
</glyph>
<glyph name="sterling" format="2">
	<advance width="650" height="0"/>
	<unicode hex="00A3"/>
	<outline>
		<contour>
			<point x="50" y="0" type="line"/>
			<point x="600" y="0" type="line"/>
			<point x="600" y="124" type="line"/>
			<point x="290" y="124" type="line"/>
			<point x="290" y="288" type="line"/>
			<point x="455" y="288" type="line"/>
			<point x="455" y="392" type="line"/>
			<point x="290" y="392" type="line"/>
			<point x="290" y="500" type="line" smooth="yes"/>
			<point x="290" y="556"/>
			<point x="314" y="586"/>
			<point x="373" y="586" type="curve" smooth="yes"/>
			<point x="420" y="586"/>
			<point x="445" y="560"/>
			<point x="450" y="515" type="curve" name="hr01"/>
			<point x="600" y="515" type="line"/>
			<point x="595" y="635"/>
			<point x="520" y="712"/>
			<point x="373" y="712" type="curve" smooth="yes"/>
			<point x="224" y="712"/>
			<point x="140" y="633"/>
			<point x="140" y="500" type="curve" smooth="yes"/>
			<point x="140" y="392" type="line"/>
			<point x="60" y="392" type="line"/>
			<point x="60" y="288" type="line"/>
			<point x="140" y="288" type="line"/>
			<point x="140" y="124" type="line"/>
			<point x="50" y="124" type="line"/>
		</contour>
	</outline>
</glyph>
<glyph name="currency" format="2">
	<advance width="570" height="0"/>
	<unicode hex="00A4"/>
	<outline>
		<contour>
			<point x="114" y="110" type="line" name="sv05"/>
			<point x="181" y="177" type="line"/>
			<point x="212" y="160" name="av01"/>
			<point x="246" y="150"/>
			<point x="285" y="150" type="curve" smooth="yes" name="sv06"/>
			<point x="322" y="150"/>
			<point x="357" y="160" name="sv04"/>
			<point x="388" y="177" type="curve"/>
			<point x="456" y="110" type="line" name="sv03"/>
			<point x="535" y="189" type="line"/>
			<point x="467" y="256" type="line" name="sv02"/>
			<point x="486" y="288"/>
			<point x="495" y="323" name="ih01"/>
			<point x="495" y="360" type="curve" smooth="yes"/>
			<point x="495" y="397" name="sv01"/>
			<point x="486" y="432"/>
			<point x="467" y="463" type="curve" name="iv02"/>
			<point x="535" y="531" type="line"/>
			<point x="456" y="610" type="line" name="iv01"/>
			<point x="388" y="542" type="line"/>
			<point x="357" y="561"/>
			<point x="322" y="570"/>
			<point x="285" y="570" type="curve" smooth="yes" name="sv07"/>
			<point x="248" y="570"/>
			<point x="213" y="561" name="sh01"/>
			<point x="181" y="542" type="curve" name="ih02"/>
			<point x="114" y="610" type="line" name="ih03"/>
			<point x="35" y="531" type="line"/>
			<point x="102" y="463" type="line"/>
			<point x="85" y="432"/>
			<point x="75" y="397"/>
			<point x="75" y="360" type="curve" smooth="yes"/>
			<point x="75" y="321"/>
			<point x="85" y="287"/>
			<point x="102" y="256" type="curve"/>
			<point x="35" y="189" type="line"/>
		</contour>
		<contour>
			<point x="285" y="272" type="curve" smooth="yes"/>
			<point x="236" y="272"/>
			<point x="199" y="309"/>
			<point x="199" y="360" type="curve" smooth="yes"/>
			<point x="199" y="411"/>
			<point x="236" y="448"/>
			<point x="285" y="448" type="curve" smooth="yes"/>
			<point x="334" y="448"/>
			<point x="371" y="411"/>
			<point x="371" y="360" type="curve" smooth="yes"/>
			<point x="371" y="309"/>
			<point x="334" y="272"/>
		</contour>
	</outline>
</glyph>
<glyph name="yen" format="2">
	<advance width="650" height="0"/>
	<unicode hex="00A5"/>
	<outline>
		<contour>
			<point x="255" y="0" type="line"/>
			<point x="405" y="0" type="line" name="ab01"/>
			<point x="405" y="137" type="line"/>
			<point x="590" y="137" type="line" name="sv07"/>
			<point x="590" y="241" type="line"/>
			<point x="405" y="241" type="line" name="sv06"/>
			<point x="405" y="299" type="line"/>
			<point x="590" y="299" type="line" name="sv05"/>
			<point x="590" y="403" type="line"/>
			<point x="483" y="403" type="line" name="sv04"/>
			<point x="635" y="700" type="line"/>
			<point x="475" y="700" type="line" name="at02"/>
			<point x="333" y="403" type="line" name="ih01"/>
			<point x="191" y="700" type="line"/>
			<point x="15" y="700" type="line" name="at01"/>
			<point x="174" y="403" type="line" name="sv02"/>
			<point x="70" y="403" type="line"/>
			<point x="70" y="299" type="line"/>
			<point x="255" y="299" type="line" name="sv03"/>
			<point x="255" y="241" type="line" name="iv01"/>
			<point x="70" y="241" type="line"/>
			<point x="70" y="137" type="line"/>
			<point x="255" y="137" type="line" name="sv01"/>
		</contour>
	</outline>
</glyph>
<glyph name="section" format="2">
	<advance width="580" height="0"/>
	<unicode hex="00A7"/>
	<outline>
		<contour>
			<point x="290" y="-212" type="curve" smooth="yes"/>
			<point x="420" y="-212"/>
			<point x="495" y="-141" name="iv02"/>
			<point x="495" y="-50" type="curve" smooth="yes"/>
			<point x="495" y="1" name="sv04"/>
			<point x="469" y="46"/>
			<point x="424" y="77" type="curve" name="sv02"/>
			<point x="489" y="112"/>
			<point x="530" y="173" name="iv04"/>
			<point x="530" y="250" type="curve" smooth="yes" name="at01"/>
			<point x="530" y="347"/>
			<point x="463" y="413" name="iv03"/>
			<point x="367" y="444" type="curve" smooth="yes"/>
			<point x="251" y="481" name="sv03"/>
			<point x="241" y="511"/>
			<point x="241" y="540" type="curve" smooth="yes" name="sv01"/>
			<point x="241" y="571" name="iv01"/>
			<point x="257" y="586"/>
			<point x="290" y="586" type="curve" smooth="yes" name="ih01"/>
			<point x="323" y="586"/>
			<point x="339" y="569" name="hr02"/>
			<point x="339" y="535" type="curve" name="iv05"/>
			<point x="495" y="535" type="line"/>
			<point x="495" y="640" name="sh01"/>
			<point x="421" y="712" name="ih02"/>
			<point x="290" y="712" type="curve" smooth="yes" name="ih03"/>
			<point x="159" y="712"/>
			<point x="85" y="641"/>
			<point x="85" y="550" type="curve" smooth="yes"/>
			<point x="85" y="499"/>
			<point x="109" y="453"/>
			<point x="156" y="422" type="curve"/>
			<point x="91" y="387"/>
			<point x="50" y="326" name="hr03"/>
			<point x="50" y="250" type="curve" smooth="yes" name="hr01"/>
			<point x="50" y="151"/>
			<point x="118" y="86"/>
			<point x="214" y="55" type="curve" smooth="yes"/>
			<point x="329" y="17"/>
			<point x="339" y="-9"/>
			<point x="339" y="-40" type="curve" smooth="yes"/>
			<point x="339" y="-68"/>
			<point x="322" y="-86"/>
			<point x="290" y="-86" type="curve" smooth="yes"/>
			<point x="257" y="-86"/>
			<point x="241" y="-69" name="hr04"/>
			<point x="241" y="-35" type="curve" name="hr02"/>
			<point x="85" y="-35" type="line"/>
			<point x="85" y="-140"/>
			<point x="159" y="-212"/>
		</contour>
		<contour>
			<point x="290" y="172" type="curve" smooth="yes"/>
			<point x="239" y="172"/>
			<point x="206" y="203"/>
			<point x="206" y="250" type="curve" smooth="yes" name="hr05"/>
			<point x="206" y="297"/>
			<point x="239" y="328"/>
			<point x="290" y="328" type="curve" smooth="yes"/>
			<point x="341" y="328"/>
			<point x="374" y="297"/>
			<point x="374" y="250" type="curve" smooth="yes"/>
			<point x="374" y="203"/>
			<point x="341" y="172"/>
		</contour>
	</outline>
</glyph>
<glyph name="logicalnot" format="2">
	<advance width="570" height="0"/>
	<unicode hex="00AC"/>
	<outline>
		<contour>
			<point x="398" y="130" type="line"/>
			<point x="530" y="130" type="line" name="iv01"/>
			<point x="530" y="422" type="line" name="av01"/>
			<point x="40" y="422" type="line"/>
			<point x="40" y="298" type="line"/>
			<point x="398" y="298" type="line" name="ih01"/>
		</contour>
	</outline>
</glyph>
<glyph name="registered" format="2">
	<advance width="640" height="0"/>
	<unicode hex="00AE"/>
	<outline>
		<contour>
			<point x="320" y="139" type="curve" smooth="yes"/>
			<point x="477" y="139"/>
			<point x="605" y="266" name="at01"/>
			<point x="605" y="425" type="curve" smooth="yes"/>
			<point x="605" y="584" name="ih01"/>
			<point x="477" y="711"/>
			<point x="320" y="711" type="curve" smooth="yes"/>
			<point x="163" y="711" name="sv01"/>
			<point x="35" y="584"/>
			<point x="35" y="425" type="curve" smooth="yes" name="sh01"/>
			<point x="35" y="266" name="iv01"/>
			<point x="163" y="139"/>
		</contour>
		<contour>
			<point x="320" y="214" type="curve" smooth="yes"/>
			<point x="204" y="214" name="sv04"/>
			<point x="116" y="301"/>
			<point x="116" y="425" type="curve" smooth="yes" name="sv03"/>
			<point x="116" y="549"/>
			<point x="204" y="636" name="sh02"/>
			<point x="320" y="636" type="curve" smooth="yes" name="iv02"/>
			<point x="436" y="636" name="iv03"/>
			<point x="524" y="549" name="sv05"/>
			<point x="524" y="425" type="curve" smooth="yes"/>
			<point x="524" y="301"/>
			<point x="436" y="214" name="sh03"/>
		</contour>
		<contour>
			<point x="205" y="275" type="line" name="ih03"/>
			<point x="289" y="275" type="line"/>
			<point x="289" y="379" type="line"/>
			<point x="313" y="379" type="line"/>
			<point x="355" y="275" type="line"/>
			<point x="445" y="275" type="line"/>
			<point x="391" y="387" type="line"/>
			<point x="438" y="402"/>
			<point x="455" y="432"/>
			<point x="455" y="476" type="curve" smooth="yes"/>
			<point x="455" y="539"/>
			<point x="419" y="575"/>
			<point x="320" y="575" type="curve" smooth="yes"/>
			<point x="205" y="575" type="line"/>
		</contour>
		<contour>
			<point x="289" y="443" type="line"/>
			<point x="289" y="509" type="line"/>
			<point x="316" y="509" type="line" smooth="yes"/>
			<point x="359" y="509"/>
			<point x="371" y="497"/>
			<point x="371" y="476" type="curve" smooth="yes"/>
			<point x="371" y="455"/>
			<point x="359" y="443"/>
			<point x="316" y="443" type="curve" smooth="yes"/>
		</contour>
	</outline>
</glyph>
<glyph name="degree" format="2">
	<advance width="390" height="0"/>
	<unicode hex="00B0"/>
	<outline>
		<contour>
			<point x="195" y="382" type="curve" smooth="yes"/>
			<point x="286" y="382"/>
			<point x="360" y="456" name="at01"/>
			<point x="360" y="547" type="curve" smooth="yes"/>
			<point x="360" y="638" name="ih01"/>
			<point x="286" y="712"/>
			<point x="195" y="712" type="curve" smooth="yes"/>
			<point x="104" y="712" name="iv01"/>
			<point x="30" y="638"/>
			<point x="30" y="547" type="curve" smooth="yes" name="sh01"/>
			<point x="30" y="456" name="ih02"/>
			<point x="104" y="382" name="ih03"/>
		</contour>
		<contour>
			<point x="195" y="486" type="curve" smooth="yes"/>
			<point x="160" y="486"/>
			<point x="134" y="512"/>
			<point x="134" y="547" type="curve" smooth="yes"/>
			<point x="134" y="582"/>
			<point x="160" y="608"/>
			<point x="195" y="608" type="curve" smooth="yes"/>
			<point x="230" y="608"/>
			<point x="256" y="582"/>
			<point x="256" y="547" type="curve" smooth="yes"/>
			<point x="256" y="512"/>
			<point x="230" y="486"/>
		</contour>
	</outline>
</glyph>
<glyph name="plusminus" format="2">
	<advance width="570" height="0"/>
	<unicode hex="00B1"/>
	<outline>
		<contour>
			<point x="40" y="68" type="line" name="sv01"/>
			<point x="530" y="68" type="line"/>
			<point x="530" y="192" type="line"/>
			<point x="40" y="192" type="line" name="sh01"/>
		</contour>
		<contour>
			<point x="219" y="270" type="line" name="iv01"/>
			<point x="351" y="270" type="line"/>
			<point x="351" y="348" type="line"/>
			<point x="530" y="348" type="line" name="sv04"/>
			<point x="530" y="472" type="line"/>
			<point x="351" y="472" type="line" name="sv03"/>
			<point x="351" y="655" type="line"/>
			<point x="219" y="655" type="line" name="sv02"/>
			<point x="219" y="472" type="line" name="av01"/>
			<point x="40" y="472" type="line"/>
			<point x="40" y="348" type="line"/>
			<point x="219" y="348" type="line" name="ih01"/>
		</contour>
	</outline>
</glyph>
<glyph name="uni00B2" format="2">
	<advance width="380" height="0"/>
	<unicode hex="00B2"/>
	<outline>
		<contour>
			<point x="20" y="380" type="line"/>
			<point x="360" y="380" type="line" name="ab01"/>
			<point x="360" y="482" type="line"/>
			<point x="203" y="482" type="line" name="sv01"/>
			<point x="256" y="523" type="line" smooth="yes" name="iv03"/>
			<point x="334" y="582"/>
			<point x="355" y="613" name="at01"/>
			<point x="355" y="665" type="curve" smooth="yes" name="iv02"/>
			<point x="355" y="738"/>
			<point x="301" y="792" name="ih01"/>
			<point x="190" y="792" type="curve" smooth="yes"/>
			<point x="79" y="792" name="iv01"/>
			<point x="25" y="737" name="sv02"/>
			<point x="25" y="645" type="curve" name="ih02"/>
			<point x="151" y="645" type="line" name="ih03"/>
			<point x="151" y="672"/>
			<point x="167" y="688" name="hr01"/>
			<point x="190" y="688" type="curve" smooth="yes" name="hr01"/>
			<point x="217" y="688"/>
			<point x="229" y="674"/>
			<point x="229" y="655" type="curve" smooth="yes"/>
			<point x="229" y="630"/>
			<point x="219" y="616"/>
			<point x="179" y="585" type="curve" smooth="yes"/>
			<point x="20" y="462" type="line"/>
		</contour>
	</outline>
</glyph>
<glyph name="uni00B3" format="2">
	<advance width="390" height="0"/>
	<unicode hex="00B3"/>
	<outline>
		<contour>
			<point x="195" y="368" type="curve" smooth="yes"/>
			<point x="315" y="368"/>
			<point x="370" y="423" name="iv05"/>
			<point x="370" y="492" type="curve" smooth="yes"/>
			<point x="370" y="548" name="at01"/>
			<point x="335" y="577" name="iv04"/>
			<point x="295" y="590" type="curve"/>
			<point x="335" y="603" name="sv02"/>
			<point x="360" y="624"/>
			<point x="360" y="676" type="curve" smooth="yes" name="iv02"/>
			<point x="360" y="743"/>
			<point x="303" y="792"/>
			<point x="195" y="792" type="curve" smooth="yes" name="iv03"/>
			<point x="80" y="792"/>
			<point x="30" y="742" name="sv01"/>
			<point x="30" y="655" type="curve"/>
			<point x="156" y="655" type="line" name="iv01"/>
			<point x="156" y="675" name="ih01"/>
			<point x="170" y="688" name="ih02"/>
			<point x="195" y="688" type="curve" smooth="yes" name="hr01"/>
			<point x="221" y="688"/>
			<point x="234" y="678"/>
			<point x="234" y="658" type="curve" smooth="yes"/>
			<point x="234" y="635"/>
			<point x="221" y="624"/>
			<point x="194" y="624" type="curve" smooth="yes"/>
			<point x="155" y="624" type="line" name="hr02"/>
			<point x="155" y="546" type="line"/>
			<point x="194" y="546" type="line" smooth="yes"/>
			<point x="227" y="546"/>
			<point x="244" y="534"/>
			<point x="244" y="509" type="curve" smooth="yes"/>
			<point x="244" y="484"/>
			<point x="228" y="472"/>
			<point x="195" y="472" type="curve" smooth="yes"/>
			<point x="162" y="472"/>
			<point x="146" y="485"/>
			<point x="146" y="510" type="curve" name="hr03"/>
			<point x="20" y="510" type="line"/>
			<point x="20" y="423"/>
			<point x="75" y="368"/>
		</contour>
	</outline>
</glyph>
<glyph name="uni00B5" format="2">
	<advance width="600" height="0"/>
	<unicode hex="00B5"/>
	<outline>
		<contour>
			<point x="60" y="-200" type="line"/>
			<point x="192" y="-200" type="line" name="ab01"/>
			<point x="192" y="-5" type="line"/>
			<point x="209" y="-9" name="ab02"/>
			<point x="227" y="-12" name="iv01"/>
			<point x="247" y="-12" type="curve" smooth="yes"/>
			<point x="339" y="-12" name="ab03"/>
			<point x="393" y="30"/>
			<point x="418" y="78" type="curve" name="at02"/>
			<point x="418" y="0" type="line" name="hr01"/>
			<point x="540" y="0" type="line" name="ih01"/>
			<point x="540" y="530" type="line"/>
			<point x="408" y="530" type="line"/>
			<point x="408" y="221" type="line" smooth="yes" name="at01"/>
			<point x="408" y="157" name="ih02"/>
			<point x="374" y="100" name="ih03"/>
			<point x="295" y="100" type="curve" smooth="yes"/>
			<point x="220" y="100"/>
			<point x="192" y="141"/>
			<point x="192" y="221" type="curve" smooth="yes"/>
			<point x="192" y="530" type="line"/>
			<point x="60" y="530" type="line"/>
		</contour>
	</outline>
</glyph>
<glyph name="paragraph" format="2">
	<advance width="635" height="0"/>
	<unicode hex="00B6"/>
	<outline>
		<contour>
			<point x="185" y="-200" type="line"/>
			<point x="305" y="-200" type="line" name="ab02"/>
			<point x="305" y="590" type="line" name="ih01"/>
			<point x="435" y="590" type="line"/>
			<point x="435" y="-200" type="line"/>
			<point x="555" y="-200" type="line" name="ab01"/>
			<point x="555" y="700" type="line"/>
			<point x="235" y="700" type="line" smooth="yes" name="at01"/>
			<point x="126" y="700"/>
			<point x="35" y="609" name="iv01"/>
			<point x="35" y="500" type="curve" smooth="yes" name="ih02"/>
			<point x="35" y="408" name="ih03"/>
			<point x="100" y="327"/>
			<point x="185" y="306" type="curve"/>
		</contour>
	</outline>
</glyph>
<glyph name="uni00B9" format="2">
	<advance width="270" height="0"/>
	<unicode hex="00B9"/>
	<outline>
		<contour>
			<point x="119" y="380" type="line"/>
			<point x="245" y="380" type="line" name="ab01"/>
			<point x="245" y="780" type="line"/>
			<point x="125" y="780" type="line" name="ih01"/>
			<point x="15" y="702" type="line"/>
			<point x="15" y="575" type="line" name="iv01"/>
			<point x="119" y="649" type="line" name="hr01"/>
		</contour>
	</outline>
</glyph>
<glyph name="ordmasculine" format="2">
	<advance width="380"/>
	<unicode hex="00BA"/>
	<outline>
		<contour>
			<point x="190" y="368" type="curve" smooth="yes"/>
			<point x="293" y="368"/>
			<point x="360" y="435"/>
			<point x="360" y="535" type="curve" smooth="yes" name="at01"/>
			<point x="360" y="545" type="line" smooth="yes"/>
			<point x="360" y="645"/>
			<point x="293" y="712" name="ih01"/>
			<point x="190" y="712" type="curve" smooth="yes"/>
			<point x="87" y="712"/>
			<point x="20" y="645"/>
			<point x="20" y="545" type="curve" smooth="yes" name="sv01"/>
			<point x="20" y="535" type="line" smooth="yes"/>
			<point x="20" y="435"/>
			<point x="87" y="368" name="sh01"/>
		</contour>
		<contour>
			<point x="190" y="472" type="curve" smooth="yes" name="ih03"/>
			<point x="163" y="472"/>
			<point x="146" y="490"/>
			<point x="146" y="535" type="curve" smooth="yes"/>
			<point x="146" y="545" type="line" smooth="yes"/>
			<point x="146" y="590"/>
			<point x="163" y="608"/>
			<point x="190" y="608" type="curve" smooth="yes"/>
			<point x="217" y="608"/>
			<point x="234" y="590"/>
			<point x="234" y="545" type="curve" smooth="yes"/>
			<point x="234" y="535" type="line" smooth="yes"/>
			<point x="234" y="490"/>
			<point x="217" y="472"/>
		</contour>
	</outline>
</glyph>
<glyph name="questiondown" format="2">
	<advance width="530" height="0"/>
	<unicode hex="00BF"/>
	<outline>
		<contour>
			<point x="265" y="-212" type="curve" smooth="yes"/>
			<point x="397" y="-212"/>
			<point x="495" y="-119" name="iv02"/>
			<point x="495" y="-10" type="curve" name="sv01"/>
			<point x="361" y="-10" type="line"/>
			<point x="361" y="-67"/>
			<point x="322" y="-100" name="hr01"/>
			<point x="265" y="-100" type="curve" smooth="yes"/>
			<point x="202" y="-100" name="iv01"/>
			<point x="169" y="-66"/>
			<point x="169" y="-15" type="curve" smooth="yes"/>
			<point x="169" y="26"/>
			<point x="198" y="52" name="ih01"/>
			<point x="246" y="93" type="curve" smooth="yes"/>
			<point x="306" y="144"/>
			<point x="331" y="179" name="at01"/>
			<point x="331" y="230" type="curve" smooth="yes"/>
			<point x="331" y="300" type="line" name="sh01"/>
			<point x="199" y="300" type="line" name="ih02"/>
			<point x="199" y="250" type="line" smooth="yes" name="ih03"/>
			<point x="199" y="226"/>
			<point x="193" y="208"/>
			<point x="133" y="156" type="curve" smooth="yes"/>
			<point x="60" y="91"/>
			<point x="35" y="53"/>
			<point x="35" y="-20" type="curve" smooth="yes"/>
			<point x="35" y="-129"/>
			<point x="121" y="-212"/>
		</contour>
		<contour>
			<point x="265" y="372" type="curve" smooth="yes"/>
			<point x="312" y="372"/>
			<point x="350" y="410"/>
			<point x="350" y="457" type="curve" smooth="yes" name="hr02"/>
			<point x="350" y="506"/>
			<point x="312" y="542"/>
			<point x="265" y="542" type="curve" smooth="yes"/>
			<point x="218" y="542"/>
			<point x="180" y="506"/>
			<point x="180" y="457" type="curve" smooth="yes"/>
			<point x="180" y="410"/>
			<point x="218" y="372"/>
		</contour>
	</outline>
</glyph>
<glyph name="AE" format="2">
	<advance width="1000" height="0"/>
	<unicode hex="00C6"/>
	<anchor x="500" y="0" name="bottom"/>
	<anchor x="500" y="700" name="top"/>
	<outline>
		<contour>
			<point x="10" y="0" type="line"/>
			<point x="166" y="0" type="line" name="ab02"/>
			<point x="250" y="143" type="line"/>
			<point x="460" y="143" type="line" name="sv04"/>
			<point x="460" y="0" type="line" name="ih01"/>
			<point x="950" y="0" type="line" name="ab01"/>
			<point x="950" y="124" type="line"/>
			<point x="611" y="124" type="line" name="sv03"/>
			<point x="611" y="300" type="line"/>
			<point x="920" y="300" type="line" name="sv02"/>
			<point x="920" y="420" type="line" name="iv01"/>
			<point x="611" y="420" type="line"/>
			<point x="611" y="576" type="line"/>
			<point x="950" y="576" type="line" name="sv01"/>
			<point x="950" y="700" type="line"/>
			<point x="420" y="700" type="line" name="at01"/>
		</contour>
		<contour>
			<point x="322" y="267" type="line"/>
			<point x="460" y="515" type="line" name="iv02"/>
			<point x="460" y="267" type="line" name="sh01"/>
		</contour>
	</outline>
</glyph>
<glyph name="Eth" format="2">
	<advance width="735" height="0"/>
	<unicode hex="00D0"/>
	<outline>
		<contour>
			<point x="105" y="0" type="line"/>
			<point x="340" y="0" type="line" smooth="yes"/>
			<point x="556" y="0"/>
			<point x="685" y="121"/>
			<point x="685" y="345" type="curve" smooth="yes"/>
			<point x="685" y="365" type="line" smooth="yes"/>
			<point x="685" y="585"/>
			<point x="560" y="700"/>
			<point x="350" y="700" type="curve" smooth="yes"/>
			<point x="105" y="700" type="line"/>
			<point x="105" y="407" type="line"/>
			<point x="25" y="407" type="line"/>
			<point x="25" y="303" type="line"/>
			<point x="105" y="303" type="line"/>
		</contour>
		<contour>
			<point x="255" y="124" type="line"/>
			<point x="255" y="303" type="line"/>
			<point x="395" y="303" type="line"/>
			<point x="395" y="407" type="line"/>
			<point x="255" y="407" type="line"/>
			<point x="255" y="576" type="line"/>
			<point x="340" y="576" type="line" smooth="yes"/>
			<point x="444" y="576"/>
			<point x="529" y="521"/>
			<point x="529" y="365" type="curve" smooth="yes"/>
			<point x="529" y="345" type="line" smooth="yes"/>
			<point x="529" y="181"/>
			<point x="437" y="124"/>
			<point x="330" y="124" type="curve" smooth="yes"/>
		</contour>
	</outline>
</glyph>
<glyph name="multiply" format="2">
	<advance width="570" height="0"/>
	<unicode hex="00D7"/>
	<outline>
		<contour>
			<point x="144" y="135" type="line" name="sv02"/>
			<point x="285" y="276" type="line"/>
			<point x="426" y="135" type="line" name="iv01"/>
			<point x="510" y="219" type="line"/>
			<point x="369" y="360" type="line"/>
			<point x="510" y="501" type="line"/>
			<point x="426" y="585" type="line" name="sv01"/>
			<point x="285" y="444" type="line" name="ih01"/>
			<point x="144" y="585" type="line" name="av01"/>
			<point x="60" y="501" type="line"/>
			<point x="201" y="360" type="line"/>
			<point x="60" y="219" type="line"/>
		</contour>
	</outline>
</glyph>
<glyph name="Oslash" format="2">
	<advance width="760" height="0"/>
	<unicode hex="00D8"/>
	<anchor x="380" y="0" name="bottom"/>
	<anchor x="380" y="700" name="top"/>
	<outline>
		<contour>
			<point x="380" y="-12" type="curve" smooth="yes"/>
			<point x="555" y="-12"/>
			<point x="710" y="90"/>
			<point x="710" y="345" type="curve" smooth="yes" name="iv04"/>
			<point x="710" y="365" type="line" smooth="yes"/>
			<point x="710" y="469" name="at02"/>
			<point x="682" y="545" name="iv03"/>
			<point x="638" y="601" type="curve" name="at01"/>
			<point x="685" y="659" type="line"/>
			<point x="621" y="712" type="line"/>
			<point x="576" y="657" type="line" name="iv02"/>
			<point x="520" y="696"/>
			<point x="452" y="712" name="ab01"/>
			<point x="380" y="712" type="curve" smooth="yes" name="iv01"/>
			<point x="205" y="712" name="ih01"/>
			<point x="50" y="609"/>
			<point x="50" y="365" type="curve" smooth="yes"/>
			<point x="50" y="345" type="line" smooth="yes" name="iv05"/>
			<point x="50" y="237"/>
			<point x="77" y="157"/>
			<point x="122" y="100" type="curve" name="sh01"/>
			<point x="75" y="42" type="line"/>
			<point x="139" y="-12" type="line"/>
			<point x="183" y="43" type="line" name="iv06"/>
			<point x="239" y="4"/>
			<point x="308" y="-12"/>
		</contour>
		<contour>
			<point x="380" y="114" type="curve" smooth="yes" name="ih02"/>
			<point x="340" y="114" name="ih03"/>
			<point x="303" y="124"/>
			<point x="272" y="151" type="curve"/>
			<point x="536" y="477" type="line"/>
			<point x="547" y="446"/>
			<point x="554" y="410"/>
			<point x="554" y="365" type="curve" smooth="yes"/>
			<point x="554" y="345" type="line" smooth="yes"/>
			<point x="554" y="170"/>
			<point x="471" y="114"/>
		</contour>
		<contour>
			<point x="380" y="586" type="curve" smooth="yes"/>
			<point x="419" y="586"/>
			<point x="457" y="576"/>
			<point x="488" y="549" type="curve"/>
			<point x="224" y="225" type="line"/>
			<point x="212" y="256"/>
			<point x="206" y="296"/>
			<point x="206" y="345" type="curve" smooth="yes"/>
			<point x="206" y="365" type="line" smooth="yes"/>
			<point x="206" y="529"/>
			<point x="289" y="586"/>
		</contour>
	</outline>
</glyph>
<glyph name="Thorn" format="2">
	<advance width="665" height="0"/>
	<unicode hex="00DE"/>
	<anchor x="333" y="0" name="bottom"/>
	<anchor x="333" y="700" name="top"/>
	<outline>
		<contour>
			<point x="80" y="0" type="line"/>
			<point x="230" y="0" type="line" name="ab01"/>
			<point x="230" y="130" type="line"/>
			<point x="350" y="130" type="line" smooth="yes" name="sv01"/>
			<point x="539" y="130"/>
			<point x="630" y="220" name="sh01"/>
			<point x="630" y="360" type="curve" smooth="yes"/>
			<point x="630" y="500"/>
			<point x="539" y="590" name="at01"/>
			<point x="350" y="590" type="curve" smooth="yes"/>
			<point x="230" y="590" type="line"/>
			<point x="230" y="700" type="line" name="sv02"/>
			<point x="80" y="700" type="line"/>
		</contour>
		<contour>
			<point x="230" y="254" type="line" name="ih01"/>
			<point x="230" y="466" type="line" name="ih02"/>
			<point x="335" y="466" type="line" smooth="yes" name="ih03"/>
			<point x="442" y="466"/>
			<point x="480" y="428"/>
			<point x="480" y="360" type="curve" smooth="yes"/>
			<point x="480" y="292"/>
			<point x="442" y="254"/>
			<point x="335" y="254" type="curve" smooth="yes"/>
		</contour>
	</outline>
</glyph>
<glyph name="germandbls" format="2">
	<advance width="590" height="0"/>
	<unicode hex="00DF"/>
	<anchor x="295" y="0" name="bottom"/>
	<anchor x="295" y="774" name="top"/>
	<outline>
		<contour>
			<point x="60" y="0" type="line"/>
			<point x="192" y="0" type="line" name="ab01"/>
			<point x="192" y="475" type="line" smooth="yes"/>
			<point x="192" y="559" name="sv02"/>
			<point x="226" y="600"/>
			<point x="290" y="600" type="curve" smooth="yes" name="iv01"/>
			<point x="349" y="600"/>
			<point x="378" y="572"/>
			<point x="378" y="515" type="curve" smooth="yes" name="ih01"/>
			<point x="378" y="458"/>
			<point x="341" y="430"/>
			<point x="290" y="430" type="curve" smooth="yes" name="sv01"/>
			<point x="275" y="430" type="line" name="hr01"/>
			<point x="275" y="330" type="line"/>
			<point x="295" y="330" type="line" smooth="yes" name="ab02"/>
			<point x="379" y="330"/>
			<point x="418" y="291" name="hr02"/>
			<point x="418" y="223" type="curve" smooth="yes" name="iv02"/>
			<point x="418" y="213" type="line" smooth="yes"/>
			<point x="418" y="142" name="at01"/>
			<point x="380" y="106"/>
			<point x="305" y="106" type="curve" smooth="yes" name="ih02"/>
			<point x="290" y="106" name="ih03"/>
			<point x="270" y="106"/>
			<point x="255" y="109" type="curve"/>
			<point x="255" y="-3" type="line"/>
			<point x="270" y="-6"/>
			<point x="290" y="-6"/>
			<point x="305" y="-6" type="curve" smooth="yes"/>
			<point x="478" y="-6"/>
			<point x="550" y="65"/>
			<point x="550" y="205" type="curve" smooth="yes"/>
			<point x="550" y="215" type="line" smooth="yes"/>
			<point x="550" y="298"/>
			<point x="512" y="371"/>
			<point x="410" y="387" type="curve"/>
			<point x="474" y="410"/>
			<point x="510" y="467" name="hr03"/>
			<point x="510" y="535" type="curve" smooth="yes" name="hr01"/>
			<point x="510" y="636"/>
			<point x="435" y="712"/>
			<point x="290" y="712" type="curve" smooth="yes"/>
			<point x="142" y="712"/>
			<point x="60" y="628"/>
			<point x="60" y="475" type="curve" smooth="yes"/>
		</contour>
	</outline>
</glyph>
<glyph name="eth" format="2">
	<advance width="605" height="0"/>
	<unicode hex="00F0"/>
	<anchor x="303" y="0" name="bottom"/>
	<anchor x="303" y="774" name="top"/>
	<outline>
		<contour>
			<point x="300" y="-12" type="curve" smooth="yes"/>
			<point x="435" y="-12"/>
			<point x="565" y="78"/>
			<point x="565" y="270" type="curve" smooth="yes" name="at01"/>
			<point x="565" y="290" type="line" smooth="yes"/>
			<point x="565" y="474" name="sv03"/>
			<point x="504" y="610"/>
			<point x="325" y="698" type="curve" name="sv01"/>
			<point x="348" y="741" type="line" name="sv02"/>
			<point x="286" y="770" type="line"/>
			<point x="261" y="724" type="line"/>
			<point x="233" y="735" name="iv04"/>
			<point x="201" y="744" name="iv03"/>
			<point x="168" y="753" type="curve" name="iv02"/>
			<point x="134" y="657" type="line" name="iv01"/>
			<point x="162" y="649"/>
			<point x="188" y="641"/>
			<point x="212" y="633" type="curve" name="ih01"/>
			<point x="188" y="587" type="line"/>
			<point x="250" y="558" type="line"/>
			<point x="276" y="607" type="line"/>
			<point x="333" y="579" name="sv04"/>
			<point x="373" y="544"/>
			<point x="404" y="492" type="curve"/>
			<point x="368" y="512" name="sh01"/>
			<point x="327" y="522" name="ih02"/>
			<point x="280" y="522" type="curve" smooth="yes" name="ih03"/>
			<point x="165" y="522"/>
			<point x="35" y="433"/>
			<point x="35" y="270" type="curve" smooth="yes"/>
			<point x="35" y="250" type="line" smooth="yes"/>
			<point x="35" y="77"/>
			<point x="165" y="-12"/>
		</contour>
		<contour>
			<point x="300" y="98" type="curve" smooth="yes"/>
			<point x="229" y="98"/>
			<point x="169" y="149"/>
			<point x="169" y="250" type="curve" smooth="yes"/>
			<point x="169" y="270" type="line" smooth="yes"/>
			<point x="169" y="361"/>
			<point x="229" y="412"/>
			<point x="300" y="412" type="curve" smooth="yes"/>
			<point x="371" y="412"/>
			<point x="431" y="361"/>
			<point x="431" y="270" type="curve" smooth="yes"/>
			<point x="431" y="250" type="line" smooth="yes"/>
			<point x="431" y="149"/>
			<point x="371" y="98"/>
		</contour>
	</outline>
</glyph>
<glyph name="divide" format="2">
	<advance width="570" height="0"/>
	<unicode hex="00F7"/>
	<outline>
		<contour>
			<point x="40" y="298" type="line"/>
			<point x="530" y="298" type="line" name="sv01"/>
			<point x="530" y="422" type="line" name="av01"/>
			<point x="40" y="422" type="line" name="sh01"/>
		</contour>
		<contour>
			<point x="285" y="68" type="curve" smooth="yes"/>
			<point x="332" y="68"/>
			<point x="370" y="106" name="sv02"/>
			<point x="370" y="153" type="curve" smooth="yes"/>
			<point x="370" y="202" name="ih01"/>
			<point x="332" y="238"/>
			<point x="285" y="238" type="curve" smooth="yes"/>
			<point x="238" y="238" name="sv03"/>
			<point x="200" y="202"/>
			<point x="200" y="153" type="curve" smooth="yes" name="sh02"/>
			<point x="200" y="106" name="ih02"/>
			<point x="238" y="68" name="ih03"/>
		</contour>
		<contour>
			<point x="285" y="482" type="curve" smooth="yes"/>
			<point x="332" y="482"/>
			<point x="370" y="520"/>
			<point x="370" y="567" type="curve" smooth="yes"/>
			<point x="370" y="616"/>
			<point x="332" y="652"/>
			<point x="285" y="652" type="curve" smooth="yes"/>
			<point x="238" y="652"/>
			<point x="200" y="616"/>
			<point x="200" y="567" type="curve" smooth="yes"/>
			<point x="200" y="520"/>
			<point x="238" y="482"/>
		</contour>
	</outline>
</glyph>
<glyph name="oslash" format="2">
	<advance width="600" height="0"/>
	<unicode hex="00F8"/>
	<anchor x="300" y="530" name="top"/>
	<outline>
		<contour>
			<point x="300" y="-12" type="curve" smooth="yes"/>
			<point x="444" y="-12"/>
			<point x="565" y="79"/>
			<point x="565" y="260" type="curve" smooth="yes" name="iv02"/>
			<point x="565" y="280" type="line" smooth="yes"/>
			<point x="565" y="356" name="at02"/>
			<point x="543" y="414"/>
			<point x="504" y="457" type="curve" name="at01"/>
			<point x="540" y="500" type="line"/>
			<point x="490" y="542" type="line"/>
			<point x="454" y="500" type="line" name="iv01"/>
			<point x="410" y="528"/>
			<point x="359" y="542" name="ab01"/>
			<point x="300" y="542" type="curve" smooth="yes"/>
			<point x="155" y="542" name="ih01"/>
			<point x="35" y="453"/>
			<point x="35" y="280" type="curve" smooth="yes"/>
			<point x="35" y="260" type="line" smooth="yes" name="iv03"/>
			<point x="35" y="179"/>
			<point x="57" y="117"/>
			<point x="96" y="73" type="curve" name="sh01"/>
			<point x="60" y="30" type="line"/>
			<point x="110" y="-12" type="line"/>
			<point x="145" y="30" type="line" name="iv04"/>
			<point x="189" y="2"/>
			<point x="241" y="-12"/>
		</contour>
		<contour>
			<point x="300" y="100" type="curve" smooth="yes" name="ih02"/>
			<point x="271" y="100" name="ih03"/>
			<point x="245" y="108"/>
			<point x="224" y="123" type="curve"/>
			<point x="417" y="354" type="line"/>
			<point x="426" y="332"/>
			<point x="431" y="307"/>
			<point x="431" y="280" type="curve" smooth="yes"/>
			<point x="431" y="260" type="line" smooth="yes"/>
			<point x="431" y="153"/>
			<point x="375" y="100"/>
		</contour>
		<contour>
			<point x="300" y="430" type="curve" smooth="yes"/>
			<point x="329" y="430"/>
			<point x="355" y="422"/>
			<point x="376" y="406" type="curve"/>
			<point x="183" y="177" type="line"/>
			<point x="174" y="200"/>
			<point x="169" y="227"/>
			<point x="169" y="260" type="curve" smooth="yes"/>
			<point x="169" y="280" type="line" smooth="yes"/>
			<point x="169" y="377"/>
			<point x="224" y="430"/>
		</contour>
	</outline>
</glyph>
<glyph name="thorn" format="2">
	<advance width="615" height="0"/>
	<unicode hex="00FE"/>
	<anchor x="308" y="0" name="bottom"/>
	<anchor x="308" y="530" name="top"/>
	<outline>
		<contour>
			<point x="60" y="-200" type="line"/>
			<point x="192" y="-200" type="line"/>
			<point x="192" y="73" type="line"/>
			<point x="227" y="22"/>
			<point x="283" y="-12"/>
			<point x="355" y="-12" type="curve" smooth="yes"/>
			<point x="494" y="-12"/>
			<point x="580" y="77"/>
			<point x="580" y="260" type="curve" smooth="yes"/>
			<point x="580" y="280" type="line" smooth="yes"/>
			<point x="580" y="455"/>
			<point x="496" y="542"/>
			<point x="355" y="542" type="curve" smooth="yes"/>
			<point x="283" y="542"/>
			<point x="227" y="508"/>
			<point x="192" y="457" type="curve"/>
			<point x="192" y="700" type="line"/>
			<point x="60" y="700" type="line"/>
		</contour>
		<contour>
			<point x="324" y="100" type="curve" smooth="yes"/>
			<point x="245" y="100"/>
			<point x="192" y="146"/>
			<point x="192" y="239" type="curve" smooth="yes"/>
			<point x="192" y="299" type="line" smooth="yes"/>
			<point x="192" y="387"/>
			<point x="248" y="430"/>
			<point x="324" y="430" type="curve" smooth="yes"/>
			<point x="396" y="430"/>
			<point x="446" y="380"/>
			<point x="446" y="280" type="curve" smooth="yes"/>
			<point x="446" y="260" type="line" smooth="yes"/>
			<point x="446" y="152"/>
			<point x="393" y="100"/>
		</contour>
	</outline>
</glyph>
<glyph name="dcroat" format="2">
	<advance width="615"/>
	<unicode hex="0111"/>
	<outline>
		<component base="d"/>
		<contour>
			<point x="283" y="643" type="line"/>
			<point x="283" y="573" type="line"/>
			<point x="654" y="573" type="line"/>
			<point x="654" y="643" type="line"/>
		</contour>
	</outline>
</glyph>
<glyph name="Hbar" format="2">
	<advance width="760"/>
	<unicode hex="0126"/>
	<outline>
		<component base="H"/>
		<contour>
			<point x="14" y="611" type="line"/>
			<point x="14" y="507" type="line"/>
			<point x="746" y="507" type="line" name="sv01"/>
			<point x="746" y="611" type="line" name="iv01"/>
		</contour>
	</outline>
</glyph>
<glyph name="hbar" format="2">
	<advance width="624"/>
	<unicode hex="0127"/>
	<outline>
		<component base="h" xOffset="19"/>
		<contour>
			<point x="-15" y="643" type="line"/>
			<point x="-15" y="573" type="line"/>
			<point x="356" y="573" type="line"/>
			<point x="356" y="643" type="line"/>
		</contour>
	</outline>
</glyph>
<glyph name="dotlessi" format="2">
	<advance width="272"/>
	<unicode hex="0131"/>
	<anchor x="136" y="0" name="bottom"/>
	<anchor x="202" y="0" name="ogonek"/>
	<anchor x="136" y="530" name="top"/>
	<outline>
		<contour>
			<point x="70" y="0" type="line"/>
			<point x="202" y="0" type="line" name="ab01"/>
			<point x="202" y="530" type="line"/>
			<point x="70" y="530" type="line" name="ih01"/>
		</contour>
	</outline>
</glyph>
<glyph name="Lslash" format="2">
	<advance width="610" height="0"/>
	<unicode hex="0141"/>
	<outline>
		<contour>
			<point x="120" y="0" type="line"/>
			<point x="590" y="0" type="line" name="ab01"/>
			<point x="590" y="124" type="line"/>
			<point x="270" y="124" type="line" name="sv01"/>
			<point x="270" y="314" type="line" name="iv05"/>
			<point x="430" y="406" type="line"/>
			<point x="430" y="530" type="line" name="iv01"/>
			<point x="270" y="438" type="line" name="iv04"/>
			<point x="270" y="700" type="line" name="ih01"/>
			<point x="120" y="700" type="line" name="hr01"/>
			<point x="120" y="351" type="line" name="iv03"/>
			<point x="20" y="293" type="line" name="hr02"/>
			<point x="20" y="169" type="line" name="iv02"/>
			<point x="120" y="227" type="line" name="hr03"/>
		</contour>
	</outline>
</glyph>
<glyph name="lslash" format="2">
	<advance width="375" height="0"/>
	<unicode hex="0142"/>
	<outline>
		<contour>
			<point x="275" y="-6" type="curve" smooth="yes"/>
			<point x="295" y="-6"/>
			<point x="329" y="-6"/>
			<point x="340" y="-3" type="curve"/>
			<point x="340" y="108" type="line"/>
			<point x="329" y="107"/>
			<point x="320" y="106"/>
			<point x="305" y="106" type="curve" smooth="yes"/>
			<point x="248" y="106"/>
			<point x="232" y="125" name="hr01"/>
			<point x="232" y="193" type="curve" smooth="yes" name="hr01"/>
			<point x="232" y="354" type="line"/>
			<point x="340" y="417" type="line" name="hr02"/>
			<point x="340" y="542" type="line"/>
			<point x="232" y="479" type="line" name="hr03"/>
			<point x="232" y="700" type="line"/>
			<point x="100" y="700" type="line" name="hr04"/>
			<point x="100" y="403" type="line"/>
			<point x="20" y="357" type="line" name="hr05"/>
			<point x="20" y="232" type="line"/>
			<point x="100" y="278" type="line" name="hr06"/>
			<point x="100" y="177" type="line" smooth="yes"/>
			<point x="100" y="35"/>
			<point x="152" y="-6"/>
		</contour>
	</outline>
</glyph>
<glyph name="Eng" format="2">
	<advance width="760"/>
	<unicode hex="014A"/>
	<anchor x="300" y="0" name="bottom"/>
	<anchor x="300" y="700" name="top"/>
	<outline>
		<contour>
			<point x="500" y="-212" type="curve" smooth="yes"/>
			<point x="639" y="-212"/>
			<point x="680" y="-168"/>
			<point x="680" y="0" type="curve" smooth="yes"/>
			<point x="680" y="530" type="line"/>
			<point x="538" y="530" type="line" name="hr01"/>
			<point x="538" y="10" type="line" smooth="yes"/>
			<point x="538" y="-78"/>
			<point x="533" y="-100"/>
			<point x="485" y="-100" type="curve" smooth="yes"/>
			<point x="474" y="-100"/>
			<point x="461" y="-100"/>
			<point x="450" y="-97" type="curve" name="hr01"/>
			<point x="450" y="-209" type="line"/>
			<point x="465" y="-212"/>
			<point x="485" y="-212"/>
		</contour>
		<component base="N"/>
	</outline>
</glyph>
<glyph name="eng" format="2">
	<advance width="606"/>
	<unicode hex="014B"/>
	<anchor x="303" y="0" name="bottom"/>
	<anchor x="303" y="530" name="top"/>
	<outline>
		<contour>
			<point x="370" y="-212" type="curve" smooth="yes"/>
			<point x="509" y="-212"/>
			<point x="550" y="-168"/>
			<point x="550" y="0" type="curve" smooth="yes"/>
			<point x="550" y="130" type="line"/>
			<point x="418" y="130" type="line" name="hr01"/>
			<point x="418" y="10" type="line" smooth="yes"/>
			<point x="418" y="-78"/>
			<point x="403" y="-100"/>
			<point x="355" y="-100" type="curve" smooth="yes"/>
			<point x="344" y="-100"/>
			<point x="331" y="-100"/>
			<point x="320" y="-97" type="curve" name="hr01"/>
			<point x="320" y="-209" type="line"/>
			<point x="335" y="-212"/>
			<point x="355" y="-212"/>
		</contour>
		<component base="n"/>
	</outline>
</glyph>
<glyph name="OE" format="2">
	<advance width="1100" height="0"/>
	<unicode hex="0152"/>
	<anchor x="550" y="0" name="bottom"/>
	<anchor x="550" y="700" name="top"/>
	<outline>
		<contour>
			<point x="375" y="-12" type="curve" smooth="yes"/>
			<point x="447" y="-12"/>
			<point x="509" y="5"/>
			<point x="560" y="49" type="curve"/>
			<point x="560" y="0" type="line" name="hr01"/>
			<point x="1050" y="0" type="line"/>
			<point x="1050" y="124" type="line"/>
			<point x="711" y="124" type="line"/>
			<point x="711" y="298" type="line"/>
			<point x="1020" y="298" type="line"/>
			<point x="1020" y="422" type="line"/>
			<point x="711" y="422" type="line"/>
			<point x="711" y="576" type="line"/>
			<point x="1050" y="576" type="line"/>
			<point x="1050" y="700" type="line"/>
			<point x="560" y="700" type="line"/>
			<point x="560" y="651" type="line"/>
			<point x="509" y="695"/>
			<point x="447" y="712" name="hr02"/>
			<point x="375" y="712" type="curve" smooth="yes" name="hr01"/>
			<point x="205" y="712"/>
			<point x="50" y="609"/>
			<point x="50" y="365" type="curve" smooth="yes"/>
			<point x="50" y="345" type="line" smooth="yes"/>
			<point x="50" y="90"/>
			<point x="205" y="-12"/>
		</contour>
		<contour>
			<point x="380" y="114" type="curve" smooth="yes"/>
			<point x="289" y="114"/>
			<point x="206" y="170"/>
			<point x="206" y="345" type="curve" smooth="yes"/>
			<point x="206" y="365" type="line" smooth="yes"/>
			<point x="206" y="529"/>
			<point x="289" y="586"/>
			<point x="380" y="586" type="curve" smooth="yes"/>
			<point x="471" y="586"/>
			<point x="554" y="529"/>
			<point x="554" y="365" type="curve" smooth="yes"/>
			<point x="554" y="345" type="line" smooth="yes"/>
			<point x="554" y="170"/>
			<point x="471" y="114"/>
		</contour>
	</outline>
</glyph>
<glyph name="florin" format="2">
	<advance width="370" height="0"/>
	<unicode hex="0192"/>
	<outline>
		<contour>
			<point x="42" y="-212" type="curve" smooth="yes"/>
			<point x="173" y="-212"/>
			<point x="222" y="-157"/>
			<point x="222" y="-56" type="curve" smooth="yes"/>
			<point x="222" y="420" type="line"/>
			<point x="345" y="420" type="line"/>
			<point x="345" y="530" type="line"/>
			<point x="222" y="530" type="line"/>
			<point x="222" y="540" type="line" smooth="yes"/>
			<point x="222" y="577"/>
			<point x="239" y="594"/>
			<point x="290" y="594" type="curve" smooth="yes"/>
			<point x="310" y="594"/>
			<point x="335" y="594"/>
			<point x="355" y="591" type="curve"/>
			<point x="355" y="703" type="line"/>
			<point x="335" y="706"/>
			<point x="300" y="706"/>
			<point x="280" y="706" type="curve" smooth="yes"/>
			<point x="140" y="706"/>
			<point x="90" y="651" name="hr01"/>
			<point x="90" y="550" type="curve" smooth="yes" name="hr01"/>
			<point x="90" y="530" type="line"/>
			<point x="25" y="530" type="line"/>
			<point x="25" y="420" type="line"/>
			<point x="90" y="420" type="line"/>
			<point x="90" y="-46" type="line" smooth="yes"/>
			<point x="90" y="-83"/>
			<point x="73" y="-100"/>
			<point x="32" y="-100" type="curve" smooth="yes"/>
			<point x="21" y="-100"/>
			<point x="-2" y="-100"/>
			<point x="-13" y="-97" type="curve" name="hr02"/>
			<point x="-13" y="-209" type="line"/>
			<point x="-2" y="-212"/>
			<point x="31" y="-212"/>
		</contour>
	</outline>
</glyph>
<glyph name="tildecomb" format="2">
	<advance width="380" height="0"/>
	<unicode hex="0303"/>
	<anchor x="190" y="530" name="_top"/>
	<anchor x="190" y="730" name="top"/>
	<outline>
		<contour>
			<point x="300" y="725" type="line"/>
			<point x="297" y="718"/>
			<point x="293" y="711"/>
			<point x="288" y="705" type="curve"/>
			<point x="280" y="694"/>
			<point x="267" y="685"/>
			<point x="250" y="685" type="curve" smooth="yes"/>
			<point x="215" y="685"/>
			<point x="190" y="730"/>
			<point x="130" y="730" type="curve" smooth="yes"/>
			<point x="87" y="730"/>
			<point x="60" y="705"/>
			<point x="43" y="680" type="curve" smooth="yes"/>
			<point x="33" y="665"/>
			<point x="25" y="649"/>
			<point x="20" y="630" type="curve"/>
			<point x="80" y="595" type="line"/>
			<point x="83" y="602"/>
			<point x="87" y="609"/>
			<point x="92" y="615" type="curve"/>
			<point x="100" y="626"/>
			<point x="111" y="635" name="hr01"/>
			<point x="130" y="635" type="curve" smooth="yes"/>
			<point x="165" y="635"/>
			<point x="189" y="590" name="hr02"/>
			<point x="250" y="590" type="curve" smooth="yes"/>
			<point x="293" y="590"/>
			<point x="320" y="615"/>
			<point x="337" y="640" type="curve" smooth="yes"/>
			<point x="347" y="655"/>
			<point x="355" y="671"/>
			<point x="360" y="690" type="curve"/>
		</contour>
	</outline>
</glyph>
<glyph name="uni0307" format="2">
	<advance width="200" height="0"/>
	<unicode hex="0307"/>
	<anchor x="100" y="530" name="_top"/>
	<anchor x="100" y="740" name="top"/>
	<outline>
		<contour>
			<point x="100" y="580" type="curve" smooth="yes"/>
			<point x="147" y="580"/>
			<point x="180" y="613" name="sv01"/>
			<point x="180" y="660" type="curve" smooth="yes"/>
			<point x="180" y="707" name="ih01"/>
			<point x="147" y="740" name="ih02"/>
			<point x="100" y="740" type="curve" smooth="yes" name="ih03"/>
			<point x="53" y="740"/>
			<point x="20" y="707"/>
			<point x="20" y="660" type="curve" smooth="yes"/>
			<point x="20" y="613"/>
			<point x="53" y="580"/>
		</contour>
	</outline>
</glyph>
<glyph name="uni0308" format="2">
	<advance width="400" height="0"/>
	<unicode hex="0308"/>
	<anchor x="200" y="530" name="_top"/>
	<anchor x="200" y="734" name="top"/>
	<outline>
		<contour>
			<point x="94" y="586" type="curve" smooth="yes"/>
			<point x="137" y="586"/>
			<point x="168" y="617"/>
			<point x="168" y="660" type="curve" smooth="yes"/>
			<point x="168" y="703"/>
			<point x="137" y="734"/>
			<point x="94" y="734" type="curve" smooth="yes"/>
			<point x="51" y="734"/>
			<point x="20" y="703"/>
			<point x="20" y="660" type="curve" smooth="yes"/>
			<point x="20" y="617"/>
			<point x="51" y="586"/>
		</contour>
		<contour>
			<point x="306" y="586" type="curve" smooth="yes"/>
			<point x="349" y="586"/>
			<point x="380" y="617"/>
			<point x="380" y="660" type="curve" smooth="yes"/>
			<point x="380" y="703"/>
			<point x="349" y="734"/>
			<point x="306" y="734" type="curve" smooth="yes"/>
			<point x="263" y="734"/>
			<point x="232" y="703"/>
			<point x="232" y="660" type="curve" smooth="yes"/>
			<point x="232" y="617"/>
			<point x="263" y="586"/>
		</contour>
	</outline>
</glyph>
<glyph name="uni030A" format="2">
	<advance width="290" height="0"/>
	<unicode hex="030A"/>
	<anchor x="145" y="530" name="_top"/>
	<anchor x="145" y="795" name="top"/>
	<outline>
		<contour>
			<point x="145" y="565" type="curve" smooth="yes"/>
			<point x="216" y="565"/>
			<point x="270" y="616" name="sv01"/>
			<point x="270" y="680" type="curve" smooth="yes"/>
			<point x="270" y="744" name="ih01"/>
			<point x="216" y="795"/>
			<point x="145" y="795" type="curve" smooth="yes"/>
			<point x="74" y="795" name="iv01"/>
			<point x="20" y="744"/>
			<point x="20" y="680" type="curve" smooth="yes" name="sh01"/>
			<point x="20" y="616" name="ih02"/>
			<point x="74" y="565" name="ih03"/>
		</contour>
		<contour>
			<point x="145" y="643" type="curve" smooth="yes"/>
			<point x="122" y="643"/>
			<point x="108" y="657"/>
			<point x="108" y="680" type="curve" smooth="yes"/>
			<point x="108" y="703"/>
			<point x="122" y="717"/>
			<point x="145" y="717" type="curve" smooth="yes"/>
			<point x="168" y="717"/>
			<point x="182" y="703"/>
			<point x="182" y="680" type="curve" smooth="yes"/>
			<point x="182" y="657"/>
			<point x="168" y="643"/>
		</contour>
	</outline>
</glyph>
<glyph name="uni030B" format="2">
	<advance width="587" height="0"/>
	<unicode hex="030B"/>
	<anchor x="229" y="530" name="_top"/>
	<anchor x="300" y="740" name="top"/>
	<outline>
		<contour>
			<point x="161" y="580" type="line"/>
			<point x="284" y="740" type="line" name="ih01"/>
			<point x="147" y="740" type="line" name="sv01"/>
			<point x="63" y="580" type="line" name="ab01"/>
		</contour>
		<contour>
			<point x="374" y="580" type="line"/>
			<point x="537" y="740" type="line" name="sv03"/>
			<point x="394" y="740" type="line" name="sv02"/>
			<point x="271" y="580" type="line" name="sh01"/>
		</contour>
	</outline>
</glyph>
<glyph name="uni0327" format="2">
	<advance width="240" height="0"/>
	<unicode hex="0327"/>
	<anchor x="103" y="0" name="_bottom"/>
	<anchor x="120" y="-212" name="bottom"/>
	<outline>
		<contour>
			<point x="90" y="-212" type="curve" smooth="yes"/>
			<point x="182" y="-212"/>
			<point x="220" y="-175"/>
			<point x="220" y="-115" type="curve" smooth="yes"/>
			<point x="220" y="-82"/>
			<point x="204" y="-47"/>
			<point x="153" y="-36" type="curve"/>
			<point x="160" y="10" type="line"/>
			<point x="84" y="10" type="line"/>
			<point x="67" y="-81" type="line"/>
			<point x="108" y="-81"/>
			<point x="116" y="-94" name="hr01"/>
			<point x="116" y="-109" type="curve" smooth="yes"/>
			<point x="116" y="-122"/>
			<point x="106" y="-136"/>
			<point x="70" y="-136" type="curve" smooth="yes" name="hr01"/>
			<point x="55" y="-136"/>
			<point x="43" y="-135"/>
			<point x="34" y="-134" type="curve"/>
			<point x="20" y="-131" type="line" name="hr02"/>
			<point x="20" y="-204" type="line"/>
			<point x="25" y="-205"/>
			<point x="31" y="-207"/>
			<point x="38" y="-208" type="curve"/>
			<point x="50" y="-211"/>
			<point x="67" y="-212"/>
		</contour>
	</outline>
</glyph>
<glyph name="uni0328" format="2">
	<advance width="250"/>
	<unicode hex="0328"/>
	<guideline x="202"/>
	<anchor x="202" y="0" name="_ogonek"/>
	<outline>
		<contour>
			<point x="148" y="-212" type="curve" smooth="yes"/>
			<point x="180" y="-212"/>
			<point x="185" y="-211"/>
			<point x="202" y="-208" type="curve"/>
			<point x="202" y="-132" type="line" name="hr02"/>
			<point x="192" y="-133"/>
			<point x="188" y="-134"/>
			<point x="175" y="-134" type="curve" smooth="yes" name="hr01"/>
			<point x="137" y="-134"/>
			<point x="126" y="-120"/>
			<point x="126" y="-99" type="curve" smooth="yes"/>
			<point x="126" y="-58" name="hr01"/>
			<point x="173" y="-29"/>
			<point x="202" y="0" type="curve" name="ab01"/>
			<point x="123" y="0" type="line"/>
			<point x="86" y="-17"/>
			<point x="22" y="-60"/>
			<point x="22" y="-124" type="curve" smooth="yes"/>
			<point x="22" y="-185"/>
			<point x="64" y="-212"/>
		</contour>
	</outline>
</glyph>
<glyph name="uni0402" format="2">
	<advance width="830" height="0"/>
	<unicode hex="0402"/>
	<outline>
		<contour>
			<point x="245" y="0" type="line" name="hr02"/>
			<point x="395" y="0" type="line"/>
			<point x="395" y="293" type="line"/>
			<point x="423" y="312"/>
			<point x="467" y="332"/>
			<point x="530" y="332" type="curve" smooth="yes"/>
			<point x="599" y="332"/>
			<point x="639" y="292"/>
			<point x="639" y="236" type="curve" smooth="yes"/>
			<point x="639" y="216" type="line" smooth="yes"/>
			<point x="639" y="160"/>
			<point x="599" y="120" name="hr01"/>
			<point x="530" y="120" type="curve" smooth="yes"/>
			<point x="519" y="120"/>
			<point x="501" y="120"/>
			<point x="490" y="123" type="curve"/>
			<point x="490" y="-3" type="line"/>
			<point x="501" y="-6"/>
			<point x="529" y="-6"/>
			<point x="540" y="-6" type="curve" smooth="yes"/>
			<point x="716" y="-6"/>
			<point x="795" y="73"/>
			<point x="795" y="212" type="curve" smooth="yes"/>
			<point x="795" y="232" type="line" smooth="yes"/>
			<point x="795" y="379"/>
			<point x="715" y="458"/>
			<point x="570" y="458" type="curve" smooth="yes"/>
			<point x="490" y="458"/>
			<point x="430" y="436"/>
			<point x="395" y="413" type="curve"/>
			<point x="395" y="576" type="line"/>
			<point x="620" y="576" type="line"/>
			<point x="620" y="700" type="line"/>
			<point x="20" y="700" type="line"/>
			<point x="20" y="576" type="line"/>
			<point x="245" y="576" type="line" name="hr01"/>
		</contour>
	</outline>
</glyph>
<glyph name="uni0409" format="2">
	<advance width="1055" height="0"/>
	<unicode hex="0409"/>
	<outline>
		<contour>
			<point x="65" y="-12" type="curve" smooth="yes"/>
			<point x="201" y="-12"/>
			<point x="277" y="55"/>
			<point x="277" y="480" type="curve" smooth="yes" name="sv01"/>
			<point x="277" y="576" type="line" name="ih01"/>
			<point x="485" y="576" type="line" name="ab02"/>
			<point x="485" y="0" type="line" name="hr01"/>
			<point x="745" y="0" type="line" smooth="yes" name="iv02"/>
			<point x="935" y="0"/>
			<point x="1025" y="89"/>
			<point x="1025" y="225" type="curve" smooth="yes" name="at01"/>
			<point x="1025" y="361"/>
			<point x="935" y="450" name="iv01"/>
			<point x="745" y="450" type="curve" smooth="yes"/>
			<point x="635" y="450" type="line"/>
			<point x="635" y="700" type="line" name="ab01"/>
			<point x="135" y="700" type="line"/>
			<point x="135" y="500" type="line" smooth="yes" name="sh01"/>
			<point x="135" y="164" name="sv03"/>
			<point x="109" y="124"/>
			<point x="40" y="124" type="curve" smooth="yes" name="sv02"/>
			<point x="33" y="124" name="ih02"/>
			<point x="28" y="124" name="ih03"/>
			<point x="25" y="125" type="curve"/>
			<point x="25" y="-9" type="line"/>
			<point x="36" y="-12" name="hr02"/>
			<point x="54" y="-12"/>
		</contour>
		<contour>
			<point x="635" y="124" type="line"/>
			<point x="635" y="326" type="line"/>
			<point x="730" y="326" type="line" smooth="yes"/>
			<point x="837" y="326"/>
			<point x="875" y="288"/>
			<point x="875" y="225" type="curve" smooth="yes"/>
			<point x="875" y="162"/>
			<point x="837" y="124"/>
			<point x="730" y="124" type="curve" smooth="yes"/>
		</contour>
	</outline>
</glyph>
<glyph name="uni040B" format="2">
	<advance width="845" height="0"/>
	<unicode hex="040B"/>
	<outline>
		<contour>
			<point x="245" y="0" type="line"/>
			<point x="395" y="0" type="line"/>
			<point x="395" y="293" type="line"/>
			<point x="423" y="312"/>
			<point x="467" y="332"/>
			<point x="530" y="332" type="curve" smooth="yes"/>
			<point x="610" y="332"/>
			<point x="645" y="296"/>
			<point x="645" y="205" type="curve" smooth="yes"/>
			<point x="645" y="0" type="line"/>
			<point x="795" y="0" type="line"/>
			<point x="795" y="225" type="line" smooth="yes"/>
			<point x="795" y="386"/>
			<point x="722" y="458"/>
			<point x="570" y="458" type="curve" smooth="yes"/>
			<point x="490" y="458"/>
			<point x="430" y="436"/>
			<point x="395" y="413" type="curve"/>
			<point x="395" y="576" type="line"/>
			<point x="620" y="576" type="line"/>
			<point x="620" y="700" type="line"/>
			<point x="20" y="700" type="line"/>
			<point x="20" y="576" type="line"/>
			<point x="245" y="576" type="line"/>
		</contour>
	</outline>
</glyph>
<glyph name="uni040F" format="2">
	<advance width="740" height="0"/>
	<unicode hex="040F"/>
	<outline>
		<contour>
			<point x="303" y="-130" type="line"/>
			<point x="437" y="-130" type="line" name="av01"/>
			<point x="437" y="0" type="line"/>
			<point x="660" y="0" type="line" name="ab01"/>
			<point x="660" y="700" type="line"/>
			<point x="510" y="700" type="line" name="at02"/>
			<point x="510" y="124" type="line"/>
			<point x="230" y="124" type="line" name="sv01"/>
			<point x="230" y="700" type="line"/>
			<point x="80" y="700" type="line" name="at01"/>
			<point x="80" y="0" type="line"/>
			<point x="303" y="0" type="line" name="ih01"/>
		</contour>
	</outline>
</glyph>
<glyph name="uni0411" format="2">
	<advance width="675" height="0"/>
	<unicode hex="0411"/>
	<outline>
		<contour>
			<point x="80" y="0" type="line"/>
			<point x="360" y="0" type="line" smooth="yes" name="ab01"/>
			<point x="551" y="0"/>
			<point x="640" y="89" name="sh01"/>
			<point x="640" y="221" type="curve" smooth="yes"/>
			<point x="640" y="353"/>
			<point x="551" y="442" name="sv01"/>
			<point x="360" y="442" type="curve" smooth="yes"/>
			<point x="230" y="442" type="line" name="at01"/>
			<point x="230" y="576" type="line"/>
			<point x="575" y="576" type="line"/>
			<point x="575" y="700" type="line" name="sv02"/>
			<point x="80" y="700" type="line"/>
		</contour>
		<contour>
			<point x="230" y="124" type="line" name="ih01"/>
			<point x="230" y="318" type="line" name="ih02"/>
			<point x="345" y="318" type="line" smooth="yes" name="ih03"/>
			<point x="454" y="318"/>
			<point x="490" y="282"/>
			<point x="490" y="221" type="curve" smooth="yes"/>
			<point x="490" y="160"/>
			<point x="454" y="124"/>
			<point x="345" y="124" type="curve" smooth="yes"/>
		</contour>
	</outline>
</glyph>
<glyph name="uni0414" format="2">
	<advance width="750" height="0"/>
	<unicode hex="0414"/>
	<outline>
		<contour>
			<point x="20" y="-130" type="line"/>
			<point x="154" y="-130" type="line" name="av02"/>
			<point x="154" y="0" type="line"/>
			<point x="586" y="0" type="line" name="ab01"/>
			<point x="586" y="-130" type="line" name="sh01"/>
			<point x="720" y="-130" type="line" name="av01"/>
			<point x="720" y="124" type="line" name="sv02"/>
			<point x="644" y="124" type="line" name="hr01"/>
			<point x="644" y="700" type="line"/>
			<point x="151" y="700" type="line" name="at01"/>
			<point x="151" y="540" type="line" smooth="yes"/>
			<point x="151" y="397"/>
			<point x="138" y="217" name="sv01"/>
			<point x="98" y="124" type="curve" name="sv05"/>
			<point x="20" y="124" type="line" name="hr02"/>
		</contour>
		<contour>
			<point x="243" y="124" type="line" name="ih01"/>
			<point x="275" y="219" name="sv04"/>
			<point x="293" y="337" name="sv03"/>
			<point x="293" y="520" type="curve" smooth="yes" name="ih02"/>
			<point x="293" y="576" type="line" name="ih03"/>
			<point x="494" y="576" type="line"/>
			<point x="494" y="124" type="line"/>
		</contour>
	</outline>
</glyph>
<glyph name="uni0416" format="2">
	<advance width="1000" height="0"/>
	<unicode hex="0416"/>
	<anchor x="980" y="0" name="bottomright"/>
	<anchor x="500" y="700" name="top"/>
	<outline>
		<contour>
			<point x="20" y="0" type="line"/>
			<point x="184" y="0" type="line" name="ab03"/>
			<point x="375" y="305" type="line"/>
			<point x="425" y="305" type="line" name="sv04"/>
			<point x="425" y="0" type="line"/>
			<point x="575" y="0" type="line" name="ab02"/>
			<point x="575" y="305" type="line"/>
			<point x="625" y="305" type="line" name="sv01"/>
			<point x="814" y="0" type="line"/>
			<point x="980" y="0" type="line" name="ab01"/>
			<point x="740" y="371" type="line" name="iv02"/>
			<point x="970" y="700" type="line"/>
			<point x="816" y="700" type="line" name="at03"/>
			<point x="625" y="415" type="line" name="iv01"/>
			<point x="575" y="415" type="line"/>
			<point x="575" y="700" type="line"/>
			<point x="425" y="700" type="line" name="at02"/>
			<point x="425" y="415" type="line" name="ih01"/>
			<point x="375" y="415" type="line" name="sv03"/>
			<point x="190" y="700" type="line"/>
			<point x="30" y="700" type="line" name="at01"/>
			<point x="260" y="364" type="line" name="sv02"/>
		</contour>
	</outline>
</glyph>
<glyph name="uni0417" format="2">
	<advance width="657" height="0"/>
	<unicode hex="0417"/>
	<anchor x="329" y="0" name="bottom"/>
	<anchor x="329" y="700" name="top"/>
	<outline>
		<contour>
			<point x="325" y="-12" type="curve" smooth="yes"/>
			<point x="520" y="-12"/>
			<point x="615" y="74" name="iv04"/>
			<point x="615" y="197" type="curve" smooth="yes"/>
			<point x="615" y="288" name="at01"/>
			<point x="569" y="345" name="iv03"/>
			<point x="484" y="365" type="curve"/>
			<point x="553" y="388" name="sv03"/>
			<point x="590" y="441" name="hr01"/>
			<point x="590" y="514" type="curve" smooth="yes" name="iv02"/>
			<point x="590" y="638"/>
			<point x="505" y="712"/>
			<point x="325" y="712" type="curve" smooth="yes" name="sv02"/>
			<point x="144" y="712"/>
			<point x="57" y="636" name="sv01"/>
			<point x="50" y="495" type="curve"/>
			<point x="206" y="495" type="line" name="iv01"/>
			<point x="211" y="559" name="ih01"/>
			<point x="248" y="586" name="ih02"/>
			<point x="325" y="586" type="curve" smooth="yes" name="ih03"/>
			<point x="401" y="586"/>
			<point x="434" y="553"/>
			<point x="434" y="504" type="curve" smooth="yes"/>
			<point x="434" y="453"/>
			<point x="404" y="411"/>
			<point x="320" y="411" type="curve" smooth="yes"/>
			<point x="246" y="411" type="line"/>
			<point x="246" y="309" type="line"/>
			<point x="320" y="309" type="line" smooth="yes"/>
			<point x="424" y="309"/>
			<point x="459" y="271" name="hr03"/>
			<point x="459" y="211" type="curve" smooth="yes" name="hr01"/>
			<point x="459" y="151"/>
			<point x="418" y="114"/>
			<point x="325" y="114" type="curve" smooth="yes"/>
			<point x="238" y="114"/>
			<point x="198" y="152"/>
			<point x="191" y="220" type="curve" name="hr02"/>
			<point x="35" y="220" type="line"/>
			<point x="42" y="77"/>
			<point x="140" y="-12"/>
		</contour>
	</outline>
</glyph>
<glyph name="uni041A" format="2">
	<advance width="710" height="0"/>
	<unicode hex="041A"/>
	<anchor x="690" y="0" name="bottomright"/>
	<anchor x="369" y="700" name="top"/>
	<outline>
		<contour>
			<point x="80" y="0" type="line"/>
			<point x="230" y="0" type="line" name="ab02"/>
			<point x="230" y="305" type="line" name="sv01"/>
			<point x="290" y="305" type="line"/>
			<point x="514" y="0" type="line"/>
			<point x="690" y="0" type="line" name="ab01"/>
			<point x="405" y="369" type="line" name="ih01"/>
			<point x="680" y="700" type="line"/>
			<point x="514" y="700" type="line" name="at02"/>
			<point x="290" y="415" type="line"/>
			<point x="230" y="415" type="line" name="iv01"/>
			<point x="230" y="700" type="line"/>
			<point x="80" y="700" type="line" name="at01"/>
		</contour>
	</outline>
</glyph>
<glyph name="uni041B" format="2">
	<advance width="725" height="0"/>
	<unicode hex="041B"/>
	<outline>
		<contour>
			<point x="65" y="-12" type="curve" smooth="yes"/>
			<point x="201" y="-12"/>
			<point x="277" y="55" name="ih01"/>
			<point x="277" y="480" type="curve" smooth="yes" name="sv01"/>
			<point x="277" y="576" type="line"/>
			<point x="495" y="576" type="line" name="ab01"/>
			<point x="495" y="0" type="line" name="hr01"/>
			<point x="645" y="0" type="line" name="at01"/>
			<point x="645" y="700" type="line"/>
			<point x="135" y="700" type="line" name="iv01"/>
			<point x="135" y="500" type="line" smooth="yes"/>
			<point x="135" y="164"/>
			<point x="109" y="124" name="ab02"/>
			<point x="40" y="124" type="curve" smooth="yes" name="hr01"/>
			<point x="33" y="124" name="ih02"/>
			<point x="28" y="124"/>
			<point x="25" y="125" type="curve"/>
			<point x="25" y="-9" type="line"/>
			<point x="36" y="-12"/>
			<point x="54" y="-12"/>
		</contour>
	</outline>
</glyph>
<glyph name="uni0424" format="2">
	<advance width="900" height="0"/>
	<unicode hex="0424"/>
	<outline>
		<contour>
			<point x="375" y="-30" type="line"/>
			<point x="525" y="-30" type="line" name="av01"/>
			<point x="525" y="32" type="line" name="sv02"/>
			<point x="734" y="32"/>
			<point x="855" y="158"/>
			<point x="855" y="350" type="curve" smooth="yes" name="iv01"/>
			<point x="855" y="370" type="line" smooth="yes"/>
			<point x="855" y="542" name="av02"/>
			<point x="734" y="668" name="sv01"/>
			<point x="525" y="668" type="curve"/>
			<point x="525" y="730" type="line"/>
			<point x="375" y="730" type="line" name="ih01"/>
			<point x="375" y="668" type="line"/>
			<point x="164" y="668" name="sv03"/>
			<point x="45" y="542" name="sh01"/>
			<point x="45" y="370" type="curve" smooth="yes"/>
			<point x="45" y="350" type="line" smooth="yes"/>
			<point x="45" y="158" name="sv04"/>
			<point x="164" y="32" name="sh02"/>
			<point x="375" y="32" type="curve"/>
		</contour>
		<contour>
			<point x="700" y="350" type="line" smooth="yes" name="ih02"/>
			<point x="700" y="222" name="ih03"/>
			<point x="642" y="158"/>
			<point x="525" y="158" type="curve"/>
			<point x="525" y="542" type="line"/>
			<point x="641" y="542"/>
			<point x="700" y="479"/>
			<point x="700" y="370" type="curve" smooth="yes"/>
		</contour>
		<contour>
			<point x="201" y="370" type="line" smooth="yes"/>
			<point x="201" y="479"/>
			<point x="258" y="542"/>
			<point x="375" y="542" type="curve"/>
			<point x="375" y="158" type="line"/>
			<point x="255" y="158"/>
			<point x="201" y="221"/>
			<point x="201" y="350" type="curve" smooth="yes"/>
		</contour>
	</outline>
</glyph>
<glyph name="uni0426" format="2">
	<advance width="775" height="0"/>
	<unicode hex="0426"/>
	<outline>
		<contour>
			<point x="611" y="-130" type="line"/>
			<point x="745" y="-130" type="line" name="av01"/>
			<point x="745" y="124" type="line" name="sv02"/>
			<point x="660" y="124" type="line" name="hr01"/>
			<point x="660" y="700" type="line"/>
			<point x="510" y="700" type="line" name="at02"/>
			<point x="510" y="124" type="line" name="ih01"/>
			<point x="230" y="124" type="line" name="sv01"/>
			<point x="230" y="700" type="line"/>
			<point x="80" y="700" type="line" name="at01"/>
			<point x="80" y="0" type="line"/>
			<point x="611" y="0" type="line" name="hr02"/>
		</contour>
	</outline>
</glyph>
<glyph name="uni0427" format="2">
	<advance width="680" height="0"/>
	<unicode hex="0427"/>
	<anchor x="660" y="0" name="bottomright"/>
	<anchor x="340" y="700" name="top"/>
	<outline>
		<contour>
			<point x="450" y="0" type="line"/>
			<point x="600" y="0" type="line"/>
			<point x="600" y="700" type="line"/>
			<point x="450" y="700" type="line"/>
			<point x="450" y="407" type="line"/>
			<point x="422" y="388"/>
			<point x="378" y="368"/>
			<point x="315" y="368" type="curve" smooth="yes"/>
			<point x="235" y="368"/>
			<point x="200" y="404"/>
			<point x="200" y="495" type="curve" smooth="yes"/>
			<point x="200" y="700" type="line"/>
			<point x="50" y="700" type="line"/>
			<point x="50" y="475" type="line" smooth="yes"/>
			<point x="50" y="314"/>
			<point x="123" y="242"/>
			<point x="275" y="242" type="curve" smooth="yes"/>
			<point x="355" y="242"/>
			<point x="415" y="264"/>
			<point x="450" y="287" type="curve"/>
		</contour>
	</outline>
</glyph>
<glyph name="uni042A" format="2">
	<advance width="740" height="0"/>
	<unicode hex="042A"/>
	<anchor x="370" y="700" name="top"/>
	<outline>
		<contour>
			<point x="160" y="0" type="line"/>
			<point x="430" y="0" type="line" smooth="yes" name="ab01"/>
			<point x="620" y="0"/>
			<point x="710" y="89" name="iv01"/>
			<point x="710" y="225" type="curve" smooth="yes"/>
			<point x="710" y="361" name="sh01"/>
			<point x="620" y="450" name="at01"/>
			<point x="430" y="450" type="curve" smooth="yes"/>
			<point x="310" y="450" type="line" name="sv01"/>
			<point x="310" y="700" type="line"/>
			<point x="20" y="700" type="line"/>
			<point x="20" y="576" type="line" name="sv02"/>
			<point x="160" y="576" type="line"/>
		</contour>
		<contour>
			<point x="310" y="124" type="line" name="ih01"/>
			<point x="310" y="326" type="line" name="ih02"/>
			<point x="415" y="326" type="line" smooth="yes" name="ih03"/>
			<point x="522" y="326"/>
			<point x="560" y="288"/>
			<point x="560" y="225" type="curve" smooth="yes"/>
			<point x="560" y="162"/>
			<point x="522" y="124"/>
			<point x="415" y="124" type="curve" smooth="yes"/>
		</contour>
	</outline>
</glyph>
<glyph name="uni042C" format="2">
	<advance width="660" height="0"/>
	<unicode hex="042C"/>
	<outline>
		<contour>
			<point x="80" y="0" type="line"/>
			<point x="350" y="0" type="line" smooth="yes" name="ab01"/>
			<point x="540" y="0"/>
			<point x="630" y="89" name="sh01"/>
			<point x="630" y="225" type="curve" smooth="yes"/>
			<point x="630" y="361"/>
			<point x="540" y="450" name="at01"/>
			<point x="350" y="450" type="curve" smooth="yes"/>
			<point x="230" y="450" type="line"/>
			<point x="230" y="700" type="line" name="sv01"/>
			<point x="80" y="700" type="line"/>
		</contour>
		<contour>
			<point x="230" y="124" type="line" name="ih01"/>
			<point x="230" y="326" type="line" name="ih02"/>
			<point x="335" y="326" type="line" smooth="yes" name="ih03"/>
			<point x="442" y="326"/>
			<point x="480" y="288"/>
			<point x="480" y="225" type="curve" smooth="yes"/>
			<point x="480" y="162"/>
			<point x="442" y="124"/>
			<point x="335" y="124" type="curve" smooth="yes"/>
		</contour>
	</outline>
</glyph>
<glyph name="uni042E" format="2">
	<advance width="970" height="0"/>
	<unicode hex="042E"/>
	<anchor x="485" y="700" name="top"/>
	<outline>
		<contour>
			<point x="80" y="0" type="line"/>
			<point x="230" y="0" type="line"/>
			<point x="230" y="298" type="line"/>
			<point x="317" y="298" type="line"/>
			<point x="333" y="76"/>
			<point x="454" y="-12" name="hr01"/>
			<point x="615" y="-12" type="curve" smooth="yes"/>
			<point x="787" y="-12"/>
			<point x="920" y="92"/>
			<point x="920" y="345" type="curve" smooth="yes"/>
			<point x="920" y="365" type="line" smooth="yes"/>
			<point x="920" y="612"/>
			<point x="791" y="712"/>
			<point x="615" y="712" type="curve" smooth="yes"/>
			<point x="460" y="712"/>
			<point x="337" y="624"/>
			<point x="318" y="422" type="curve"/>
			<point x="230" y="422" type="line"/>
			<point x="230" y="700" type="line" name="hr01"/>
			<point x="80" y="700" type="line"/>
		</contour>
		<contour>
			<point x="615" y="114" type="curve" smooth="yes" name="hr03"/>
			<point x="531" y="114"/>
			<point x="466" y="170"/>
			<point x="466" y="345" type="curve" smooth="yes"/>
			<point x="466" y="365" type="line" smooth="yes"/>
			<point x="466" y="529"/>
			<point x="531" y="586"/>
			<point x="615" y="586" type="curve" smooth="yes"/>
			<point x="699" y="586"/>
			<point x="764" y="529"/>
			<point x="764" y="365" type="curve" smooth="yes"/>
			<point x="764" y="345" type="line" smooth="yes"/>
			<point x="764" y="170"/>
			<point x="699" y="114"/>
		</contour>
	</outline>
</glyph>
<glyph name="uni042F" format="2">
	<advance width="695" height="0"/>
	<unicode hex="042F"/>
	<anchor x="348" y="700" name="top"/>
	<outline>
		<contour>
			<point x="35" y="0" type="line"/>
			<point x="199" y="0" type="line" name="ab02"/>
			<point x="354" y="256" type="line" name="ih01"/>
			<point x="465" y="256" type="line" name="sv01"/>
			<point x="465" y="0" type="line"/>
			<point x="615" y="0" type="line" name="ab01"/>
			<point x="615" y="700" type="line"/>
			<point x="330" y="700" type="line" smooth="yes" name="at01"/>
			<point x="155" y="700"/>
			<point x="65" y="611" name="sv02"/>
			<point x="65" y="475" type="curve" smooth="yes"/>
			<point x="65" y="378"/>
			<point x="114" y="304" name="sv03"/>
			<point x="214" y="272" type="curve" name="iv01"/>
		</contour>
		<contour>
			<point x="215" y="475" type="curve" smooth="yes" name="sh01"/>
			<point x="215" y="542"/>
			<point x="249" y="576" name="ih02"/>
			<point x="360" y="576" type="curve" smooth="yes" name="ih03"/>
			<point x="465" y="576" type="line"/>
			<point x="465" y="374" type="line"/>
			<point x="360" y="374" type="line" smooth="yes"/>
			<point x="249" y="374"/>
			<point x="215" y="408"/>
		</contour>
	</outline>
</glyph>
<glyph name="uni0432" format="2">
	<advance width="575" height="0"/>
	<unicode hex="0432"/>
	<outline>
		<contour>
			<point x="60" y="0" type="line"/>
			<point x="346" y="0" type="line" smooth="yes" name="ab01"/>
			<point x="477" y="0"/>
			<point x="540" y="59" name="iv02"/>
			<point x="540" y="151" type="curve" smooth="yes"/>
			<point x="540" y="211" name="sh01"/>
			<point x="501" y="259" name="at01"/>
			<point x="436" y="275" type="curve"/>
			<point x="488" y="290"/>
			<point x="520" y="339" name="iv01"/>
			<point x="520" y="388" type="curve" smooth="yes" name="hr01"/>
			<point x="520" y="471" name="sh02"/>
			<point x="462" y="530"/>
			<point x="326" y="530" type="curve" smooth="yes"/>
			<point x="60" y="530" type="line" name="sv01"/>
		</contour>
		<contour>
			<point x="192" y="106" type="line"/>
			<point x="192" y="220" type="line" name="ih01"/>
			<point x="320" y="220" type="line" smooth="yes" name="ih02"/>
			<point x="383" y="220" name="ih03"/>
			<point x="408" y="203" name="hr02"/>
			<point x="408" y="163" type="curve" smooth="yes"/>
			<point x="408" y="123"/>
			<point x="380" y="106"/>
			<point x="320" y="106" type="curve" smooth="yes"/>
		</contour>
		<contour>
			<point x="192" y="318" type="line"/>
			<point x="192" y="424" type="line"/>
			<point x="307" y="424" type="line" smooth="yes"/>
			<point x="367" y="424"/>
			<point x="388" y="406" name="hr03"/>
			<point x="388" y="371" type="curve" smooth="yes"/>
			<point x="388" y="335"/>
			<point x="368" y="318"/>
			<point x="307" y="318" type="curve" smooth="yes"/>
		</contour>
	</outline>
</glyph>
<glyph name="uni0434" format="2">
	<advance width="625" height="0"/>
	<unicode hex="0434"/>
	<outline>
		<contour>
			<point x="20" y="-125" type="line"/>
			<point x="136" y="-125" type="line" name="av02"/>
			<point x="136" y="0" type="line" name="hr01"/>
			<point x="484" y="0" type="line" name="ab01"/>
			<point x="484" y="-125" type="line" name="hr02"/>
			<point x="600" y="-125" type="line" name="av01"/>
			<point x="600" y="110" type="line" name="sv02"/>
			<point x="535" y="110" type="line" name="hr03"/>
			<point x="535" y="530" type="line"/>
			<point x="120" y="530" type="line" name="at01"/>
			<point x="120" y="370" type="line" smooth="yes"/>
			<point x="120" y="269"/>
			<point x="107" y="151" name="sv01"/>
			<point x="80" y="110" type="curve" name="sv05"/>
			<point x="20" y="110" type="line" name="hr04"/>
		</contour>
		<contour>
			<point x="209" y="110" type="line" name="ih01"/>
			<point x="233" y="163" name="sv04"/>
			<point x="241" y="258" name="sv03"/>
			<point x="241" y="350" type="curve" smooth="yes" name="ih02"/>
			<point x="241" y="420" type="line" name="ih03"/>
			<point x="403" y="420" type="line"/>
			<point x="403" y="110" type="line"/>
		</contour>
	</outline>
</glyph>
<glyph name="uni0436" format="2">
	<advance width="820" height="0"/>
	<unicode hex="0436"/>
	<anchor x="800" y="0" name="bottomright"/>
	<anchor x="410" y="530" name="top"/>
	<outline>
		<contour>
			<point x="15" y="0" type="line"/>
			<point x="159" y="0" type="line" name="ab03"/>
			<point x="304" y="218" type="line"/>
			<point x="344" y="218" type="line" name="sv04"/>
			<point x="344" y="0" type="line"/>
			<point x="476" y="0" type="line" name="ab02"/>
			<point x="476" y="218" type="line"/>
			<point x="516" y="218" type="line" name="sv01"/>
			<point x="657" y="0" type="line"/>
			<point x="805" y="0" type="line" name="ab01"/>
			<point x="618" y="279" type="line" name="iv02"/>
			<point x="795" y="530" type="line"/>
			<point x="659" y="530" type="line" name="at03"/>
			<point x="516" y="322" type="line" name="iv01"/>
			<point x="476" y="322" type="line"/>
			<point x="476" y="530" type="line"/>
			<point x="344" y="530" type="line" name="at02"/>
			<point x="344" y="322" type="line" name="ih01"/>
			<point x="305" y="322" type="line" name="sv03"/>
			<point x="163" y="530" type="line"/>
			<point x="25" y="530" type="line" name="at01"/>
			<point x="203" y="276" type="line" name="sv02"/>
		</contour>
	</outline>
</glyph>
<glyph name="uni0437" format="2">
	<advance width="545" height="0"/>
	<unicode hex="0437"/>
	<anchor x="273" y="0" name="bottom"/>
	<anchor x="273" y="530" name="top"/>
	<outline>
		<contour>
			<point x="270" y="-12" type="curve" smooth="yes"/>
			<point x="434" y="-12"/>
			<point x="510" y="59" name="iv05"/>
			<point x="510" y="155" type="curve" smooth="yes"/>
			<point x="510" y="212" name="at01"/>
			<point x="485" y="256" name="iv04"/>
			<point x="409" y="275" type="curve"/>
			<point x="465" y="294" name="sv02"/>
			<point x="490" y="336" name="hr01"/>
			<point x="490" y="387" type="curve" smooth="yes" name="iv02"/>
			<point x="490" y="480"/>
			<point x="425" y="542"/>
			<point x="270" y="542" type="curve" smooth="yes" name="iv03"/>
			<point x="125" y="542"/>
			<point x="47" y="480" name="sv01"/>
			<point x="40" y="365" type="curve"/>
			<point x="174" y="365" type="line" name="iv01"/>
			<point x="179" y="408" name="ih01"/>
			<point x="205" y="430" name="ih02"/>
			<point x="270" y="430" type="curve" smooth="yes" name="ih03"/>
			<point x="333" y="430"/>
			<point x="356" y="407"/>
			<point x="356" y="376" type="curve" smooth="yes"/>
			<point x="356" y="341"/>
			<point x="329" y="318"/>
			<point x="278" y="318" type="curve" smooth="yes"/>
			<point x="205" y="318" type="line"/>
			<point x="205" y="220" type="line"/>
			<point x="285" y="220" type="line" smooth="yes"/>
			<point x="353" y="220"/>
			<point x="376" y="200" name="hr03"/>
			<point x="376" y="160" type="curve" smooth="yes" name="hr01"/>
			<point x="376" y="127"/>
			<point x="347" y="100"/>
			<point x="270" y="100" type="curve" smooth="yes"/>
			<point x="193" y="100"/>
			<point x="169" y="125"/>
			<point x="164" y="170" type="curve" name="hr02"/>
			<point x="30" y="170" type="line"/>
			<point x="37" y="53"/>
			<point x="117" y="-12"/>
		</contour>
	</outline>
</glyph>
<glyph name="uni043B" format="2">
	<advance width="595" height="0"/>
	<unicode hex="043B"/>
	<outline>
		<contour>
			<point x="65" y="-12" type="curve" smooth="yes"/>
			<point x="181" y="-12"/>
			<point x="237" y="55" name="ih01"/>
			<point x="237" y="330" type="curve" smooth="yes" name="sv02"/>
			<point x="237" y="420" type="line"/>
			<point x="403" y="420" type="line" name="ab01"/>
			<point x="403" y="0" type="line" name="hr01"/>
			<point x="535" y="0" type="line" name="at01"/>
			<point x="535" y="530" type="line"/>
			<point x="115" y="530" type="line" name="sv01"/>
			<point x="115" y="350" type="line" smooth="yes"/>
			<point x="115" y="165"/>
			<point x="91" y="109" name="ab02"/>
			<point x="40" y="109" type="curve" smooth="yes" name="hr01"/>
			<point x="33" y="109" name="ih02"/>
			<point x="28" y="109"/>
			<point x="25" y="110" type="curve"/>
			<point x="25" y="-9" type="line"/>
			<point x="36" y="-12"/>
			<point x="54" y="-12"/>
		</contour>
	</outline>
</glyph>
<glyph name="uni0442" format="2">
	<advance width="510" height="0"/>
	<unicode hex="0442"/>
	<anchor x="490" y="0" name="bottomright"/>
	<outline>
		<contour>
			<point x="189" y="0" type="line"/>
			<point x="321" y="0" type="line" name="ab01"/>
			<point x="321" y="420" type="line" name="sv02"/>
			<point x="490" y="420" type="line" name="sv01"/>
			<point x="490" y="530" type="line"/>
			<point x="20" y="530" type="line" name="at01"/>
			<point x="20" y="420" type="line"/>
			<point x="189" y="420" type="line" name="ih01"/>
		</contour>
	</outline>
</glyph>
<glyph name="uni0444" format="2">
	<advance width="760" height="0"/>
	<unicode hex="0444"/>
	<outline>
		<contour>
			<point x="314" y="-200" type="line"/>
			<point x="446" y="-200" type="line" name="ab01"/>
			<point x="446" y="-12" type="line" name="ab02"/>
			<point x="627" y="-12"/>
			<point x="725" y="84"/>
			<point x="725" y="260" type="curve" smooth="yes" name="at03"/>
			<point x="725" y="281" type="line" smooth="yes"/>
			<point x="725" y="449" name="at01"/>
			<point x="627" y="542" name="at02"/>
			<point x="446" y="542" type="curve"/>
			<point x="446" y="700" type="line"/>
			<point x="314" y="700" type="line" name="sh01"/>
			<point x="314" y="542" type="line"/>
			<point x="131" y="542" name="sv01"/>
			<point x="35" y="449" name="ih01"/>
			<point x="35" y="280" type="curve" smooth="yes"/>
			<point x="35" y="260" type="line" smooth="yes"/>
			<point x="35" y="84" name="sv02"/>
			<point x="131" y="-12" name="sh02"/>
			<point x="314" y="-12" type="curve"/>
		</contour>
		<contour>
			<point x="591" y="260" type="line" smooth="yes" name="ih02"/>
			<point x="591" y="155" name="ih03"/>
			<point x="546" y="100"/>
			<point x="442" y="100" type="curve"/>
			<point x="442" y="430" type="line"/>
			<point x="546" y="430"/>
			<point x="591" y="380"/>
			<point x="591" y="280" type="curve" smooth="yes"/>
		</contour>
		<contour>
			<point x="169" y="281" type="line" smooth="yes"/>
			<point x="169" y="378"/>
			<point x="214" y="430"/>
			<point x="318" y="430" type="curve"/>
			<point x="318" y="100" type="line"/>
			<point x="215" y="100"/>
			<point x="169" y="155"/>
			<point x="169" y="260" type="curve" smooth="yes"/>
		</contour>
	</outline>
</glyph>
<glyph name="uni0447" format="2">
	<advance width="565" height="0"/>
	<unicode hex="0447"/>
	<anchor x="545" y="0" name="bottomright"/>
	<anchor x="283" y="530" name="top"/>
	<outline>
		<contour>
			<point x="373" y="0" type="line"/>
			<point x="505" y="0" type="line"/>
			<point x="505" y="530" type="line"/>
			<point x="373" y="530" type="line"/>
			<point x="373" y="297" type="line"/>
			<point x="358" y="286"/>
			<point x="326" y="271"/>
			<point x="275" y="271" type="curve" smooth="yes"/>
			<point x="203" y="271"/>
			<point x="177" y="296"/>
			<point x="177" y="365" type="curve" smooth="yes"/>
			<point x="177" y="530" type="line"/>
			<point x="45" y="530" type="line"/>
			<point x="45" y="350" type="line" smooth="yes"/>
			<point x="45" y="218"/>
			<point x="111" y="159"/>
			<point x="240" y="159" type="curve" smooth="yes"/>
			<point x="301" y="159"/>
			<point x="342" y="176"/>
			<point x="373" y="195" type="curve"/>
		</contour>
	</outline>
</glyph>
<glyph name="uni0448" format="2">
	<advance width="830" height="0"/>
	<unicode hex="0448"/>
	<outline>
		<contour>
			<point x="60" y="0" type="line"/>
			<point x="770" y="0" type="line" name="ab01"/>
			<point x="770" y="530" type="line"/>
			<point x="638" y="530" type="line" name="at03"/>
			<point x="638" y="110" type="line" name="sv03"/>
			<point x="481" y="110" type="line" name="sv02"/>
			<point x="481" y="530" type="line"/>
			<point x="349" y="530" type="line" name="at02"/>
			<point x="349" y="110" type="line" name="ih01"/>
			<point x="192" y="110" type="line" name="sv01"/>
			<point x="192" y="530" type="line"/>
			<point x="60" y="530" type="line" name="at01"/>
		</contour>
	</outline>
</glyph>
<glyph name="uni0449" format="2">
	<advance width="870" height="0"/>
	<unicode hex="0449"/>
	<outline>
		<contour>
			<point x="729" y="-125" type="line" name="hr03"/>
			<point x="845" y="-125" type="line" name="av01"/>
			<point x="845" y="110" type="line" name="sv04"/>
			<point x="770" y="110" type="line" name="hr01"/>
			<point x="770" y="530" type="line"/>
			<point x="638" y="530" type="line" name="at03"/>
			<point x="638" y="110" type="line" name="sv03"/>
			<point x="481" y="110" type="line" name="sv02"/>
			<point x="481" y="530" type="line" name="ih01"/>
			<point x="349" y="530" type="line" name="at02"/>
			<point x="349" y="110" type="line"/>
			<point x="192" y="110" type="line" name="sv01"/>
			<point x="192" y="530" type="line"/>
			<point x="60" y="530" type="line" name="at01"/>
			<point x="60" y="0" type="line" name="hr02"/>
			<point x="729" y="0" type="line" name="hr03"/>
		</contour>
	</outline>
</glyph>
<glyph name="uni044A" format="2">
	<advance width="615" height="0"/>
	<unicode hex="044A"/>
	<outline>
		<contour>
			<point x="140" y="0" type="line"/>
			<point x="385" y="0" type="line" smooth="yes" name="ab01"/>
			<point x="530" y="0"/>
			<point x="590" y="72" name="iv01"/>
			<point x="590" y="176" type="curve" smooth="yes"/>
			<point x="590" y="293" name="ih01"/>
			<point x="522" y="352" name="at01"/>
			<point x="385" y="352" type="curve" smooth="yes"/>
			<point x="272" y="352" type="line" name="sv01"/>
			<point x="272" y="530" type="line"/>
			<point x="20" y="530" type="line" name="sh01"/>
			<point x="20" y="420" type="line" name="sv03"/>
			<point x="140" y="420" type="line"/>
		</contour>
		<contour>
			<point x="272" y="106" type="line" name="sv02"/>
			<point x="272" y="246" type="line" name="ih02"/>
			<point x="370" y="246" type="line" smooth="yes" name="ih03"/>
			<point x="433" y="246"/>
			<point x="458" y="223"/>
			<point x="458" y="176" type="curve" smooth="yes"/>
			<point x="458" y="129"/>
			<point x="434" y="106"/>
			<point x="370" y="106" type="curve" smooth="yes"/>
		</contour>
	</outline>
</glyph>
<glyph name="uni044B" format="2">
	<advance width="750"/>
	<unicode hex="044B"/>
	<outline>
		<contour>
			<point x="60" y="0" type="line"/>
			<point x="285" y="0" type="line" smooth="yes"/>
			<point x="430" y="0"/>
			<point x="490" y="72"/>
			<point x="490" y="176" type="curve" smooth="yes"/>
			<point x="490" y="293"/>
			<point x="422" y="352"/>
			<point x="285" y="352" type="curve" smooth="yes"/>
			<point x="192" y="352" type="line"/>
			<point x="192" y="530" type="line"/>
			<point x="60" y="530" type="line"/>
		</contour>
		<contour>
			<point x="192" y="106" type="line"/>
			<point x="192" y="246" type="line"/>
			<point x="270" y="246" type="line" smooth="yes"/>
			<point x="333" y="246"/>
			<point x="358" y="223"/>
			<point x="358" y="176" type="curve" smooth="yes"/>
			<point x="358" y="129"/>
			<point x="334" y="106"/>
			<point x="270" y="106" type="curve" smooth="yes"/>
		</contour>
		<contour>
			<point x="548" y="0" type="line"/>
			<point x="680" y="0" type="line"/>
			<point x="680" y="530" type="line"/>
			<point x="548" y="530" type="line"/>
		</contour>
	</outline>
</glyph>
<glyph name="uni044C" format="2">
	<advance width="535" height="0"/>
	<unicode hex="044C"/>
	<outline>
		<contour>
			<point x="60" y="0" type="line"/>
			<point x="305" y="0" type="line" smooth="yes" name="ab01"/>
			<point x="450" y="0"/>
			<point x="510" y="72" name="sh01"/>
			<point x="510" y="176" type="curve" smooth="yes"/>
			<point x="510" y="293"/>
			<point x="442" y="352" name="at01"/>
			<point x="305" y="352" type="curve" smooth="yes"/>
			<point x="192" y="352" type="line"/>
			<point x="192" y="530" type="line" name="sv01"/>
			<point x="60" y="530" type="line"/>
		</contour>
		<contour>
			<point x="192" y="106" type="line" name="ih01"/>
			<point x="192" y="246" type="line" name="ih02"/>
			<point x="290" y="246" type="line" smooth="yes" name="ih03"/>
			<point x="353" y="246"/>
			<point x="378" y="223"/>
			<point x="378" y="176" type="curve" smooth="yes"/>
			<point x="378" y="129"/>
			<point x="354" y="106"/>
			<point x="290" y="106" type="curve" smooth="yes"/>
		</contour>
	</outline>
</glyph>
<glyph name="uni044D" format="2">
	<advance width="565" height="0"/>
	<unicode hex="044D"/>
	<anchor x="283" y="530" name="top"/>
	<outline>
		<contour>
			<point x="270" y="-12" type="curve" smooth="yes"/>
			<point x="427" y="-12"/>
			<point x="530" y="79"/>
			<point x="530" y="260" type="curve" smooth="yes" name="at01"/>
			<point x="530" y="280" type="line" smooth="yes" name="iv04"/>
			<point x="530" y="451"/>
			<point x="420" y="542" name="sv02"/>
			<point x="270" y="542" type="curve" smooth="yes" name="iv02"/>
			<point x="121" y="542"/>
			<point x="38" y="457"/>
			<point x="30" y="350" type="curve" name="iv03"/>
			<point x="164" y="350" type="line" name="sv01"/>
			<point x="175" y="399"/>
			<point x="205" y="430" name="iv01"/>
			<point x="270" y="430" type="curve" smooth="yes" name="ih01"/>
			<point x="338" y="430" name="ih02"/>
			<point x="382" y="394" name="ih03"/>
			<point x="393" y="318" type="curve"/>
			<point x="210" y="318" type="line"/>
			<point x="210" y="222" type="line"/>
			<point x="394" y="222" type="line"/>
			<point x="383" y="137"/>
			<point x="342" y="100"/>
			<point x="270" y="100" type="curve" smooth="yes"/>
			<point x="218" y="100"/>
			<point x="177" y="128"/>
			<point x="164" y="180" type="curve" name="hr01"/>
			<point x="30" y="180" type="line"/>
			<point x="41" y="63"/>
			<point x="138" y="-12"/>
		</contour>
	</outline>
</glyph>
<glyph name="uni044E" format="2">
	<advance width="775" height="0"/>
	<unicode hex="044E"/>
	<anchor x="388" y="530" name="top"/>
	<outline>
		<contour>
			<point x="60" y="0" type="line"/>
			<point x="192" y="0" type="line"/>
			<point x="192" y="215" type="line"/>
			<point x="234" y="215" type="line"/>
			<point x="250" y="61"/>
			<point x="353" y="-12" name="hr01"/>
			<point x="485" y="-12" type="curve" smooth="yes"/>
			<point x="629" y="-12"/>
			<point x="740" y="79"/>
			<point x="740" y="260" type="curve" smooth="yes"/>
			<point x="740" y="280" type="line" smooth="yes"/>
			<point x="740" y="453"/>
			<point x="629" y="542"/>
			<point x="485" y="542" type="curve" smooth="yes"/>
			<point x="353" y="542"/>
			<point x="253" y="468"/>
			<point x="234" y="325" type="curve"/>
			<point x="192" y="325" type="line"/>
			<point x="192" y="530" type="line" name="hr01"/>
			<point x="60" y="530" type="line"/>
		</contour>
		<contour>
			<point x="485" y="100" type="curve" smooth="yes" name="hr03"/>
			<point x="421" y="100"/>
			<point x="364" y="147"/>
			<point x="364" y="260" type="curve" smooth="yes"/>
			<point x="364" y="280" type="line" smooth="yes"/>
			<point x="364" y="382"/>
			<point x="421" y="430"/>
			<point x="485" y="430" type="curve" smooth="yes"/>
			<point x="549" y="430"/>
			<point x="606" y="382"/>
			<point x="606" y="280" type="curve" smooth="yes"/>
			<point x="606" y="260" type="line" smooth="yes"/>
			<point x="606" y="149"/>
			<point x="549" y="100"/>
		</contour>
	</outline>
</glyph>
<glyph name="uni0452" format="2">
	<advance width="640" height="0"/>
	<unicode hex="0452"/>
	<outline>
		<contour>
			<point x="110" y="0" type="line"/>
			<point x="242" y="0" type="line"/>
			<point x="242" y="149" type="line" smooth="yes"/>
			<point x="242" y="213"/>
			<point x="276" y="270"/>
			<point x="355" y="270" type="curve" smooth="yes"/>
			<point x="428" y="270"/>
			<point x="458" y="229"/>
			<point x="458" y="149" type="curve" smooth="yes"/>
			<point x="458" y="10" type="line" smooth="yes"/>
			<point x="458" y="-78"/>
			<point x="443" y="-100"/>
			<point x="395" y="-100" type="curve" smooth="yes"/>
			<point x="384" y="-100"/>
			<point x="371" y="-100"/>
			<point x="360" y="-97" type="curve" name="hr01"/>
			<point x="360" y="-209" type="line"/>
			<point x="375" y="-212"/>
			<point x="395" y="-212"/>
			<point x="410" y="-212" type="curve" smooth="yes"/>
			<point x="549" y="-212"/>
			<point x="590" y="-168"/>
			<point x="590" y="0" type="curve" smooth="yes"/>
			<point x="590" y="180" type="line" smooth="yes"/>
			<point x="590" y="311"/>
			<point x="527" y="382"/>
			<point x="403" y="382" type="curve" smooth="yes"/>
			<point x="316" y="382"/>
			<point x="266" y="337"/>
			<point x="242" y="297" type="curve"/>
			<point x="242" y="434" type="line"/>
			<point x="460" y="434" type="line"/>
			<point x="460" y="530" type="line"/>
			<point x="242" y="530" type="line"/>
			<point x="242" y="700" type="line"/>
			<point x="110" y="700" type="line"/>
			<point x="110" y="530" type="line"/>
			<point x="20" y="530" type="line"/>
			<point x="20" y="434" type="line"/>
			<point x="110" y="434" type="line"/>
		</contour>
	</outline>
</glyph>
<glyph name="uni0459" format="2">
	<advance width="860" height="0"/>
	<unicode hex="0459"/>
	<outline>
		<contour>
			<point x="65" y="-12" type="curve" smooth="yes"/>
			<point x="181" y="-12"/>
			<point x="237" y="55"/>
			<point x="237" y="330" type="curve" smooth="yes" name="sv02"/>
			<point x="237" y="420" type="line" name="ih01"/>
			<point x="393" y="420" type="line" name="ab02"/>
			<point x="393" y="0" type="line" name="hr01"/>
			<point x="630" y="0" type="line" smooth="yes" name="iv01"/>
			<point x="775" y="0"/>
			<point x="835" y="72"/>
			<point x="835" y="176" type="curve" smooth="yes" name="at01"/>
			<point x="835" y="293"/>
			<point x="767" y="352" name="sv01"/>
			<point x="630" y="352" type="curve" smooth="yes"/>
			<point x="525" y="352" type="line"/>
			<point x="525" y="530" type="line" name="ab01"/>
			<point x="115" y="530" type="line"/>
			<point x="115" y="350" type="line" smooth="yes" name="sh01"/>
			<point x="115" y="165" name="sv04"/>
			<point x="91" y="109"/>
			<point x="40" y="109" type="curve" smooth="yes" name="sv03"/>
			<point x="33" y="109" name="ih02"/>
			<point x="28" y="109" name="ih03"/>
			<point x="25" y="110" type="curve" name="hr01"/>
			<point x="25" y="-9" type="line"/>
			<point x="36" y="-12"/>
			<point x="54" y="-12"/>
		</contour>
		<contour>
			<point x="525" y="106" type="line"/>
			<point x="525" y="246" type="line"/>
			<point x="615" y="246" type="line" smooth="yes"/>
			<point x="678" y="246"/>
			<point x="703" y="223"/>
			<point x="703" y="176" type="curve" smooth="yes"/>
			<point x="703" y="129"/>
			<point x="679" y="106"/>
			<point x="615" y="106" type="curve" smooth="yes"/>
		</contour>
	</outline>
</glyph>
<glyph name="uni045A" format="2">
	<advance width="885" height="0"/>
	<unicode hex="045A"/>
	<outline>
		<contour>
			<point x="60" y="0" type="line"/>
			<point x="192" y="0" type="line" name="ab02"/>
			<point x="192" y="230" type="line" name="sv01"/>
			<point x="408" y="230" type="line"/>
			<point x="408" y="0" type="line"/>
			<point x="665" y="0" type="line" smooth="yes" name="ab01"/>
			<point x="800" y="0"/>
			<point x="860" y="72"/>
			<point x="860" y="170" type="curve" smooth="yes" name="iv02"/>
			<point x="860" y="279"/>
			<point x="792" y="338" name="at02"/>
			<point x="665" y="338" type="curve" smooth="yes" name="ih01"/>
			<point x="540" y="338" type="line" name="iv01"/>
			<point x="540" y="530" type="line"/>
			<point x="408" y="530" type="line" name="at01"/>
			<point x="408" y="340" type="line"/>
			<point x="192" y="340" type="line" name="sh01"/>
			<point x="192" y="530" type="line"/>
			<point x="60" y="530" type="line"/>
		</contour>
		<contour>
			<point x="540" y="106" type="line" name="sv02"/>
			<point x="540" y="232" type="line" name="ih02"/>
			<point x="650" y="232" type="line" smooth="yes" name="ih03"/>
			<point x="702" y="232"/>
			<point x="728" y="209"/>
			<point x="728" y="170" type="curve" smooth="yes"/>
			<point x="728" y="130"/>
			<point x="703" y="106"/>
			<point x="650" y="106" type="curve" smooth="yes"/>
		</contour>
	</outline>
</glyph>
<glyph name="uni045B" format="2">
	<advance width="640" height="0"/>
	<unicode hex="045B"/>
	<outline>
		<contour>
			<point x="110" y="0" type="line"/>
			<point x="242" y="0" type="line"/>
			<point x="242" y="149" type="line" smooth="yes"/>
			<point x="242" y="213"/>
			<point x="276" y="270"/>
			<point x="355" y="270" type="curve" smooth="yes"/>
			<point x="428" y="270"/>
			<point x="458" y="229"/>
			<point x="458" y="149" type="curve" smooth="yes"/>
			<point x="458" y="0" type="line"/>
			<point x="590" y="0" type="line"/>
			<point x="590" y="180" type="line" smooth="yes"/>
			<point x="590" y="311"/>
			<point x="527" y="382"/>
			<point x="403" y="382" type="curve" smooth="yes"/>
			<point x="316" y="382"/>
			<point x="266" y="337"/>
			<point x="242" y="297" type="curve"/>
			<point x="242" y="434" type="line"/>
			<point x="460" y="434" type="line"/>
			<point x="460" y="530" type="line"/>
			<point x="242" y="530" type="line"/>
			<point x="242" y="700" type="line"/>
			<point x="110" y="700" type="line"/>
			<point x="110" y="530" type="line"/>
			<point x="20" y="530" type="line"/>
			<point x="20" y="434" type="line"/>
			<point x="110" y="434" type="line"/>
		</contour>
	</outline>
</glyph>
<glyph name="uni045F" format="2">
	<advance width="590" height="0"/>
	<unicode hex="045F"/>
	<outline>
		<contour>
			<point x="237" y="-125" type="line" name="hr02"/>
			<point x="353" y="-125" type="line" name="av01"/>
			<point x="353" y="0" type="line" name="hr01"/>
			<point x="530" y="0" type="line" name="ab01"/>
			<point x="530" y="530" type="line"/>
			<point x="398" y="530" type="line" name="at02"/>
			<point x="398" y="110" type="line" name="sv02"/>
			<point x="192" y="110" type="line" name="sv01"/>
			<point x="192" y="530" type="line"/>
			<point x="60" y="530" type="line" name="at01"/>
			<point x="60" y="0" type="line"/>
			<point x="237" y="0" type="line" name="hr02"/>
		</contour>
	</outline>
</glyph>
<glyph name="uni0491" format="2">
	<advance width="470" height="0"/>
	<unicode hex="0491"/>
	<outline>
		<contour>
			<point x="70" y="0" type="line"/>
			<point x="202" y="0" type="line" name="ab01"/>
			<point x="202" y="420" type="line" name="ih01"/>
			<point x="450" y="420" type="line" name="sv02"/>
			<point x="450" y="655" type="line" name="hr01"/>
			<point x="334" y="655" type="line" name="sv01"/>
			<point x="334" y="530" type="line" name="hr02"/>
			<point x="70" y="530" type="line" name="at01"/>
		</contour>
	</outline>
</glyph>
<glyph name="uni0492" format="2">
	<advance width="580" height="0"/>
	<unicode hex="0492"/>
	<guideline y="354"/>
	<outline>
		<contour>
			<point x="100" y="417" type="line"/>
			<point x="20" y="417" type="line" name="sv03"/>
			<point x="20" y="291" type="line"/>
			<point x="100" y="291" type="line" name="sv02"/>
			<point x="100" y="0" type="line"/>
			<point x="250" y="0" type="line" name="ab01"/>
			<point x="250" y="291" type="line"/>
			<point x="423" y="291" type="line" name="sv01"/>
			<point x="423" y="417" type="line" name="iv01"/>
			<point x="250" y="417" type="line"/>
			<point x="250" y="576" type="line" name="ih01"/>
			<point x="560" y="576" type="line"/>
			<point x="560" y="700" type="line"/>
			<point x="100" y="700" type="line" name="at01"/>
		</contour>
	</outline>
</glyph>
<glyph name="uni0496" format="2">
	<advance width="1019" height="0"/>
	<unicode hex="0496"/>
	<outline>
		<contour>
			<point x="993" y="-130" type="line"/>
			<point x="993" y="126" type="line"/>
			<point x="900" y="126" type="line" name="sv05"/>
			<point x="744" y="371" type="line" name="iv02"/>
			<point x="970" y="700" type="line"/>
			<point x="815" y="700" type="line" name="at03"/>
			<point x="626" y="415" type="line" name="iv01"/>
			<point x="576" y="415" type="line"/>
			<point x="576" y="700" type="line"/>
			<point x="425" y="700" type="line" name="at02"/>
			<point x="425" y="415" type="line"/>
			<point x="374" y="415" type="line" name="sv04"/>
			<point x="191" y="700" type="line"/>
			<point x="30" y="700" type="line" name="at01"/>
			<point x="256" y="361" type="line" name="sv03"/>
			<point x="20" y="0" type="line"/>
			<point x="183" y="0" type="line" name="ab03"/>
			<point x="375" y="305" type="line"/>
			<point x="425" y="305" type="line" name="sv02"/>
			<point x="425" y="0" type="line"/>
			<point x="576" y="0" type="line" name="ab02"/>
			<point x="576" y="305" type="line" name="ih01"/>
			<point x="626" y="305" type="line" name="sv01"/>
			<point x="813" y="0" type="line"/>
			<point x="859" y="0" type="line" name="ab01"/>
			<point x="859" y="-130" type="line" name="av01"/>
		</contour>
	</outline>
</glyph>
<glyph name="uni0498" format="2">
	<advance width="657"/>
	<unicode hex="0498"/>
	<outline>
		<component base="uni0417"/>
		<contour>
			<point x="402" y="-5" type="line" name="ab01"/>
			<point x="268" y="-4" type="line"/>
			<point x="268" y="-130" type="line"/>
			<point x="402" y="-130" type="line" name="av01"/>
		</contour>
	</outline>
</glyph>
<glyph name="uni049A" format="2">
	<advance width="743" height="0"/>
	<unicode hex="049A"/>
	<guideline y="0"/>
	<outline>
		<contour>
			<point x="716" y="-130" type="line"/>
			<point x="716" y="126" type="line"/>
			<point x="592" y="126" type="line" name="sv02"/>
			<point x="405" y="369" type="line" name="ih01"/>
			<point x="680" y="700" type="line"/>
			<point x="514" y="700" type="line" name="at02"/>
			<point x="290" y="415" type="line" name="iv01"/>
			<point x="230" y="415" type="line"/>
			<point x="230" y="700" type="line"/>
			<point x="80" y="700" type="line" name="at01"/>
			<point x="80" y="0" type="line"/>
			<point x="230" y="0" type="line" name="ab02"/>
			<point x="230" y="305" type="line"/>
			<point x="290" y="305" type="line" name="sv01"/>
			<point x="514" y="0" type="line"/>
			<point x="582" y="0" type="line" name="ab01"/>
			<point x="582" y="-130" type="line" name="av01"/>
		</contour>
	</outline>
</glyph>
<glyph name="uni049B" format="2">
	<advance width="590" height="0"/>
	<unicode hex="049B"/>
	<guideline y="0"/>
	<outline>
		<contour>
			<point x="569" y="-125" type="line" name="hr02"/>
			<point x="569" y="110" type="line"/>
			<point x="477" y="110" type="line" name="sv01"/>
			<point x="350" y="279" type="line" name="iv01"/>
			<point x="550" y="530" type="line"/>
			<point x="404" y="530" type="line" name="at02"/>
			<point x="242" y="322" type="line" name="hr01"/>
			<point x="192" y="322" type="line"/>
			<point x="192" y="530" type="line"/>
			<point x="60" y="530" type="line" name="at01"/>
			<point x="60" y="0" type="line" name="hr01"/>
			<point x="192" y="0" type="line" name="ab02"/>
			<point x="192" y="218" type="line"/>
			<point x="242" y="218" type="line" name="ih01"/>
			<point x="402" y="0" type="line"/>
			<point x="454" y="0" type="line" name="ab01"/>
			<point x="454" y="-125" type="line" name="av01"/>
		</contour>
	</outline>
</glyph>
<glyph name="uni049C" format="2">
	<advance width="775" height="0"/>
	<unicode hex="049C"/>
	<outline>
		<contour>
			<point x="80" y="0" type="line"/>
			<point x="231" y="0" type="line" name="ab02"/>
			<point x="231" y="303" type="line"/>
			<point x="278" y="303" type="line" name="sv04"/>
			<point x="278" y="190" type="line"/>
			<point x="397" y="190" type="line" name="sv03"/>
			<point x="397" y="303" type="line"/>
			<point x="419" y="303" type="line" name="sv02"/>
			<point x="578" y="0" type="line"/>
			<point x="755" y="0" type="line" name="ab01"/>
			<point x="540" y="374" type="line" name="iv02"/>
			<point x="717" y="700" type="line"/>
			<point x="562" y="700" type="line" name="at02"/>
			<point x="419" y="414" type="line" name="iv01"/>
			<point x="397" y="414" type="line"/>
			<point x="397" y="534" type="line" name="ih01"/>
			<point x="278" y="534" type="line"/>
			<point x="278" y="414" type="line"/>
			<point x="231" y="414" type="line" name="sv01"/>
			<point x="231" y="700" type="line"/>
			<point x="80" y="700" type="line" name="at01"/>
		</contour>
	</outline>
</glyph>
<glyph name="uni049D" format="2">
	<advance width="660" height="0"/>
	<unicode hex="049D"/>
	<outline>
		<contour>
			<point x="60" y="0" type="line"/>
			<point x="192" y="0" type="line" name="ab02"/>
			<point x="192" y="218" type="line"/>
			<point x="236" y="218" type="line" name="sv04"/>
			<point x="236" y="125" type="line"/>
			<point x="347" y="125" type="line" name="sv03"/>
			<point x="347" y="218" type="line"/>
			<point x="368" y="218" type="line" name="sv02"/>
			<point x="489" y="0" type="line"/>
			<point x="645" y="0" type="line" name="ab01"/>
			<point x="476" y="278" type="line" name="iv02"/>
			<point x="622" y="530" type="line"/>
			<point x="475" y="530" type="line" name="at02"/>
			<point x="367" y="322" type="line" name="iv01"/>
			<point x="347" y="322" type="line"/>
			<point x="347" y="412" type="line" name="ih01"/>
			<point x="236" y="412" type="line"/>
			<point x="236" y="322" type="line"/>
			<point x="192" y="322" type="line" name="sv01"/>
			<point x="192" y="530" type="line"/>
			<point x="60" y="530" type="line" name="at01"/>
		</contour>
	</outline>
</glyph>
<glyph name="uni04A0" format="2">
	<advance width="815" height="0"/>
	<unicode hex="04A0"/>
	<guideline y="651"/>
	<outline>
		<contour>
			<point x="20" y="586" type="line" name="sv04"/>
			<point x="172" y="586" type="line"/>
			<point x="172" y="0" type="line"/>
			<point x="322" y="0" type="line" name="ab02"/>
			<point x="322" y="305" type="line"/>
			<point x="382" y="305" type="line" name="sv03"/>
			<point x="606" y="0" type="line"/>
			<point x="782" y="0" type="line" name="ab01"/>
			<point x="497" y="369" type="line" name="iv01"/>
			<point x="772" y="700" type="line" name="sv02"/>
			<point x="606" y="700" type="line" name="sv01"/>
			<point x="382" y="415" type="line" name="ih01"/>
			<point x="322" y="415" type="line"/>
			<point x="322" y="700" type="line"/>
			<point x="20" y="700" type="line" name="at01"/>
		</contour>
	</outline>
</glyph>
<glyph name="uni04A1" format="2">
	<advance width="658" height="0"/>
	<unicode hex="04A1"/>
	<outline>
		<contour>
			<point x="20" y="419" type="line"/>
			<point x="140" y="419" type="line" name="sv02"/>
			<point x="140" y="0" type="line"/>
			<point x="272" y="0" type="line" name="ab02"/>
			<point x="272" y="218" type="line" name="sv01"/>
			<point x="322" y="218" type="line"/>
			<point x="485" y="0" type="line"/>
			<point x="643" y="0" type="line" name="ab01"/>
			<point x="427" y="279" type="line" name="iv02"/>
			<point x="633" y="530" type="line"/>
			<point x="487" y="530" type="line" name="at02"/>
			<point x="322" y="322" type="line" name="ih01"/>
			<point x="272" y="322" type="line" name="iv01"/>
			<point x="272" y="530" type="line"/>
			<point x="20" y="530" type="line" name="at01"/>
		</contour>
	</outline>
</glyph>
<glyph name="uni04A4" format="2">
	<advance width="1009" height="0"/>
	<unicode hex="04A4"/>
	<guideline y="401"/>
	<guideline y="319"/>
	<outline>
		<contour>
			<point x="231" y="0" type="line"/>
			<point x="231" y="297" type="line"/>
			<point x="529" y="297" type="line" name="sv02"/>
			<point x="529" y="0" type="line"/>
			<point x="680" y="0" type="line" name="ab02"/>
			<point x="680" y="574" type="line" name="sv01"/>
			<point x="989" y="574" type="line"/>
			<point x="989" y="700" type="line"/>
			<point x="529" y="700" type="line" name="at02"/>
			<point x="529" y="423" type="line" name="ih01"/>
			<point x="231" y="423" type="line"/>
			<point x="231" y="700" type="line"/>
			<point x="80" y="700" type="line" name="at01"/>
			<point x="80" y="0" type="line" name="ab01"/>
		</contour>
	</outline>
</glyph>
<glyph name="uni04A5" format="2">
	<advance width="818" height="0"/>
	<unicode hex="04A5"/>
	<outline>
		<contour>
			<point x="418" y="0" type="line"/>
			<point x="550" y="0" type="line" name="ab02"/>
			<point x="550" y="420" type="line"/>
			<point x="798" y="420" type="line" name="sv01"/>
			<point x="798" y="530" type="line"/>
			<point x="418" y="530" type="line" name="at02"/>
			<point x="418" y="325" type="line" name="iv01"/>
			<point x="192" y="325" type="line"/>
			<point x="192" y="530" type="line"/>
			<point x="60" y="530" type="line" name="at01"/>
			<point x="60" y="0" type="line"/>
			<point x="192" y="0" type="line" name="ab01"/>
			<point x="192" y="215" type="line"/>
			<point x="418" y="215" type="line" name="ih01"/>
		</contour>
	</outline>
</glyph>
<glyph name="uni04AA" format="2">
	<advance width="700" height="0"/>
	<unicode hex="04AA"/>
	<outline>
		<contour>
			<point x="435" y="-130" type="line"/>
			<point x="435" y="-7" type="line"/>
			<point x="450" y="-5"/>
			<point x="464" y="-2"/>
			<point x="477" y="1" type="curve" smooth="yes"/>
			<point x="580" y="27"/>
			<point x="650" y="99"/>
			<point x="660" y="230" type="curve"/>
			<point x="504" y="230" type="line"/>
			<point x="493" y="154"/>
			<point x="441" y="114"/>
			<point x="365" y="114" type="curve" smooth="yes"/>
			<point x="288" y="114"/>
			<point x="206" y="169"/>
			<point x="206" y="345" type="curve" smooth="yes"/>
			<point x="206" y="365" type="line" smooth="yes"/>
			<point x="206" y="532"/>
			<point x="283" y="586"/>
			<point x="365" y="586" type="curve" smooth="yes"/>
			<point x="437" y="586"/>
			<point x="489" y="550"/>
			<point x="504" y="470" type="curve" name="hr01"/>
			<point x="660" y="470" type="line"/>
			<point x="649" y="639"/>
			<point x="522" y="712"/>
			<point x="365" y="712" type="curve" smooth="yes"/>
			<point x="189" y="712"/>
			<point x="50" y="609"/>
			<point x="50" y="365" type="curve" smooth="yes"/>
			<point x="50" y="345" type="line" smooth="yes"/>
			<point x="50" y="153"/>
			<point x="125" y="48"/>
			<point x="238" y="8" type="curve" smooth="yes"/>
			<point x="258" y="1"/>
			<point x="279" y="-4"/>
			<point x="301" y="-7" type="curve"/>
			<point x="301" y="-130" type="line"/>
		</contour>
	</outline>
</glyph>
<glyph name="uni04AB" format="2">
	<advance width="565" height="0"/>
	<unicode hex="04AB"/>
	<outline>
		<contour>
			<point x="352" y="-125" type="line" name="av01"/>
			<point x="352" y="-7" type="line" name="ab01"/>
			<point x="363" y="-5"/>
			<point x="375" y="-2"/>
			<point x="386" y="1" type="curve" name="iv02"/>
			<point x="469" y="29" name="sv03"/>
			<point x="525" y="92"/>
			<point x="535" y="180" type="curve"/>
			<point x="401" y="180" type="line" name="sv02"/>
			<point x="388" y="128" name="iv01"/>
			<point x="347" y="100"/>
			<point x="295" y="100" type="curve" smooth="yes" name="ih01"/>
			<point x="223" y="100"/>
			<point x="169" y="147"/>
			<point x="169" y="260" type="curve" smooth="yes"/>
			<point x="169" y="280" type="line" smooth="yes" name="sv01"/>
			<point x="169" y="383"/>
			<point x="227" y="430" name="ih02"/>
			<point x="295" y="430" type="curve" smooth="yes" name="ih03"/>
			<point x="360" y="430"/>
			<point x="390" y="399"/>
			<point x="401" y="350" type="curve" name="hr01"/>
			<point x="535" y="350" type="line"/>
			<point x="527" y="457"/>
			<point x="444" y="542"/>
			<point x="295" y="542" type="curve" smooth="yes"/>
			<point x="155" y="542"/>
			<point x="35" y="451"/>
			<point x="35" y="280" type="curve" smooth="yes"/>
			<point x="35" y="260" type="line" smooth="yes"/>
			<point x="35" y="124"/>
			<point x="99" y="39"/>
			<point x="192" y="5" type="curve"/>
			<point x="207" y="0"/>
			<point x="222" y="-3"/>
			<point x="237" y="-6" type="curve"/>
			<point x="237" y="-125" type="line"/>
		</contour>
	</outline>
</glyph>
<glyph name="uni04AE" format="2">
	<advance width="680" height="0"/>
	<unicode hex="04AE"/>
	<outline>
		<contour>
			<point x="426" y="0" type="line"/>
			<point x="426" y="267" type="line"/>
			<point x="670" y="700" type="line"/>
			<point x="510" y="700" type="line" name="at02"/>
			<point x="352" y="418" type="line" name="ih01"/>
			<point x="185" y="700" type="line"/>
			<point x="10" y="700" type="line" name="at01"/>
			<point x="274" y="267" type="line"/>
			<point x="274" y="0" type="line" name="ab01"/>
		</contour>
	</outline>
</glyph>
<glyph name="uni04AF" format="2">
	<advance width="587" height="0"/>
	<unicode hex="04AF"/>
	<outline>
		<contour>
			<point x="371" y="-227" type="line"/>
			<point x="371" y="2" type="line" name="sv01"/>
			<point x="573" y="530" type="line"/>
			<point x="439" y="530" type="line" name="at02"/>
			<point x="306" y="148" type="line" name="ih01"/>
			<point x="159" y="530" type="line"/>
			<point x="13" y="530" type="line" name="at01"/>
			<point x="239" y="-7" type="line" name="ab01"/>
			<point x="239" y="-227" type="line" name="av01"/>
		</contour>
	</outline>
</glyph>
<glyph name="uni04B0" format="2">
	<advance width="666" height="0"/>
	<unicode hex="04B0"/>
	<guideline y="219"/>
	<outline>
		<contour>
			<point x="269" y="0" type="line"/>
			<point x="421" y="0" type="line" name="ab01"/>
			<point x="421" y="172" type="line"/>
			<point x="546" y="172" type="line" name="sv03"/>
			<point x="546" y="298" type="line"/>
			<point x="423" y="298" type="line" name="sv02"/>
			<point x="656" y="700" type="line"/>
			<point x="497" y="700" type="line" name="at02"/>
			<point x="347" y="432" type="line" name="ih01"/>
			<point x="188" y="700" type="line"/>
			<point x="14" y="700" type="line" name="at01"/>
			<point x="266" y="298" type="line" name="iv01"/>
			<point x="141" y="298" type="line"/>
			<point x="141" y="172" type="line"/>
			<point x="269" y="172" type="line" name="sv01"/>
		</contour>
	</outline>
</glyph>
<glyph name="uni04B1" format="2">
	<advance width="579" height="0"/>
	<unicode hex="04B1"/>
	<outline>
		<contour>
			<point x="93" y="0" type="line"/>
			<point x="235" y="0" type="line" name="ab02"/>
			<point x="235" y="-227" type="line"/>
			<point x="367" y="-227" type="line" name="av01"/>
			<point x="367" y="0" type="line"/>
			<point x="507" y="0" type="line" name="ab01"/>
			<point x="507" y="110" type="line" name="sv03"/>
			<point x="397" y="110" type="line" name="sv02"/>
			<point x="565" y="530" type="line"/>
			<point x="431" y="530" type="line" name="at02"/>
			<point x="302" y="175" type="line" name="ih01"/>
			<point x="160" y="530" type="line"/>
			<point x="13" y="530" type="line" name="at01"/>
			<point x="197" y="110" type="line"/>
			<point x="93" y="110" type="line" name="sv01"/>
		</contour>
	</outline>
</glyph>
<glyph name="uni04B2" format="2">
	<advance width="721" height="0"/>
	<unicode hex="04B2"/>
	<guideline y="0"/>
	<outline>
		<contour>
			<point x="695" y="-130" type="line"/>
			<point x="695" y="126" type="line"/>
			<point x="593" y="126" type="line" name="sv01"/>
			<point x="440" y="368" type="line"/>
			<point x="663" y="700" type="line"/>
			<point x="500" y="700" type="line" name="at02"/>
			<point x="345" y="471" type="line" name="ih01"/>
			<point x="191" y="700" type="line"/>
			<point x="23" y="700" type="line" name="at01"/>
			<point x="248" y="365" type="line"/>
			<point x="13" y="0" type="line"/>
			<point x="179" y="0" type="line" name="ab02"/>
			<point x="342" y="262" type="line" name="iv01"/>
			<point x="504" y="0" type="line"/>
			<point x="561" y="0" type="line" name="ab01"/>
			<point x="561" y="-130" type="line" name="av01"/>
		</contour>
	</outline>
</glyph>
<glyph name="uni04B3" format="2">
	<advance width="592" height="0"/>
	<unicode hex="04B3"/>
	<guideline y="0"/>
	<outline>
		<contour>
			<point x="570" y="-125" type="line" name="hr02"/>
			<point x="570" y="110" type="line"/>
			<point x="485" y="110" type="line" name="sv01"/>
			<point x="377" y="281" type="line"/>
			<point x="545" y="530" type="line"/>
			<point x="402" y="530" type="line" name="hr01"/>
			<point x="288" y="360" type="line" name="ih01"/>
			<point x="172" y="530" type="line"/>
			<point x="25" y="530" type="line" name="at01"/>
			<point x="195" y="276" type="line"/>
			<point x="15" y="0" type="line" name="hr01"/>
			<point x="160" y="0" type="line" name="ab02"/>
			<point x="283" y="198" type="line" name="iv01"/>
			<point x="407" y="0" type="line"/>
			<point x="456" y="0" type="line" name="ab01"/>
			<point x="456" y="-125" type="line" name="av01"/>
		</contour>
	</outline>
</glyph>
<glyph name="uni04B8" format="2">
	<advance width="707" height="0"/>
	<unicode hex="04B8"/>
	<outline>
		<contour>
			<point x="627" y="0" type="line"/>
			<point x="627" y="700" type="line"/>
			<point x="476" y="700" type="line" name="at02"/>
			<point x="476" y="435" type="line"/>
			<point x="456" y="418" name="sv04"/>
			<point x="431" y="404"/>
			<point x="399" y="396" type="curve" name="sv03"/>
			<point x="399" y="513" type="line" name="iv01"/>
			<point x="280" y="513" type="line"/>
			<point x="280" y="392" type="line"/>
			<point x="220" y="404" name="at01"/>
			<point x="195" y="445"/>
			<point x="195" y="524" type="curve" smooth="yes" name="sv01"/>
			<point x="195" y="700" type="line" name="sv02"/>
			<point x="43" y="700" type="line"/>
			<point x="43" y="504" type="line" smooth="yes" name="ih01"/>
			<point x="43" y="343" name="iv02"/>
			<point x="115" y="269" name="ab01"/>
			<point x="280" y="266" type="curve" name="ih02"/>
			<point x="280" y="169" type="line" name="ih03"/>
			<point x="399" y="169" type="line"/>
			<point x="399" y="280" type="line"/>
			<point x="430" y="288"/>
			<point x="456" y="299"/>
			<point x="476" y="313" type="curve"/>
			<point x="476" y="0" type="line"/>
		</contour>
	</outline>
</glyph>
<glyph name="uni04B9" format="2">
	<advance width="608" height="0"/>
	<unicode hex="04B9"/>
	<guideline y="232"/>
	<outline>
		<contour>
			<point x="410" y="0" type="line"/>
			<point x="542" y="0" type="line" name="ab01"/>
			<point x="542" y="530" type="line"/>
			<point x="410" y="530" type="line" name="at02"/>
			<point x="410" y="326" type="line"/>
			<point x="401" y="318" name="sv04"/>
			<point x="380" y="310"/>
			<point x="349" y="306" type="curve" name="sv03"/>
			<point x="349" y="399" type="line" name="iv01"/>
			<point x="238" y="399" type="line"/>
			<point x="238" y="304" type="line"/>
			<point x="191" y="315" name="at01"/>
			<point x="174" y="339"/>
			<point x="174" y="394" type="curve" smooth="yes" name="sv01"/>
			<point x="174" y="530" type="line" name="sv02"/>
			<point x="42" y="530" type="line"/>
			<point x="42" y="379" type="line" smooth="yes" name="ih01"/>
			<point x="42" y="250"/>
			<point x="105" y="192" name="ih02"/>
			<point x="238" y="188" type="curve" name="ih03"/>
			<point x="238" y="98" type="line"/>
			<point x="349" y="98" type="line"/>
			<point x="349" y="200" type="line"/>
			<point x="372" y="205"/>
			<point x="393" y="213"/>
			<point x="410" y="223" type="curve"/>
		</contour>
	</outline>
</glyph>
<glyph name="uni04C3" format="2">
	<advance width="694" height="0"/>
	<unicode hex="04C3"/>
	<outline>
		<contour>
			<point x="80" y="0" type="line"/>
			<point x="231" y="0" type="line" name="ab01"/>
			<point x="231" y="303" type="line"/>
			<point x="360" y="303" type="line" smooth="yes" name="sv03"/>
			<point x="432" y="303"/>
			<point x="475" y="264"/>
			<point x="475" y="180" type="curve" smooth="yes" name="sv02"/>
			<point x="475" y="-3" type="line" smooth="yes"/>
			<point x="475" y="-67" name="ih01"/>
			<point x="453" y="-102" name="av01"/>
			<point x="389" y="-102" type="curve" smooth="yes"/>
			<point x="350" y="-102" type="line"/>
			<point x="350" y="-218" type="line" name="sv01"/>
			<point x="403" y="-218" type="line" smooth="yes"/>
			<point x="571" y="-218" name="at02"/>
			<point x="624" y="-113" name="iv01"/>
			<point x="624" y="-4" type="curve" smooth="yes"/>
			<point x="624" y="206" type="line" smooth="yes"/>
			<point x="624" y="325" name="at01"/>
			<point x="556" y="390" name="ih02"/>
			<point x="459" y="407" type="curve" name="ih03"/>
			<point x="653" y="700" type="line"/>
			<point x="487" y="700" type="line"/>
			<point x="313" y="414" type="line"/>
			<point x="231" y="414" type="line"/>
			<point x="231" y="700" type="line"/>
			<point x="80" y="700" type="line"/>
		</contour>
	</outline>
</glyph>
<glyph name="uni04C4" format="2">
	<advance width="577" height="0"/>
	<unicode hex="04C4"/>
	<outline>
		<contour>
			<point x="292" y="-205" type="line"/>
			<point x="309" y="-209" name="ab01"/>
			<point x="328" y="-209"/>
			<point x="344" y="-209" type="curve" smooth="yes"/>
			<point x="470" y="-209" name="sv03"/>
			<point x="513" y="-157"/>
			<point x="513" y="-8" type="curve" smooth="yes" name="at02"/>
			<point x="513" y="133" type="line" smooth="yes" name="iv01"/>
			<point x="513" y="230"/>
			<point x="473" y="289"/>
			<point x="394" y="311" type="curve" name="at01"/>
			<point x="542" y="530" type="line"/>
			<point x="397" y="530" type="line" name="hr02"/>
			<point x="269" y="322" type="line"/>
			<point x="192" y="322" type="line" name="sv02"/>
			<point x="192" y="530" type="line" name="hr01"/>
			<point x="60" y="530" type="line"/>
			<point x="60" y="0" type="line" name="sv01"/>
			<point x="192" y="0" type="line" name="ih01"/>
			<point x="192" y="218" type="line" name="ih02"/>
			<point x="283" y="218" type="line" smooth="yes" name="ih03"/>
			<point x="350" y="218"/>
			<point x="381" y="191" name="hr01"/>
			<point x="381" y="119" type="curve" smooth="yes"/>
			<point x="381" y="10" type="line" smooth="yes"/>
			<point x="381" y="-74"/>
			<point x="365" y="-97"/>
			<point x="326" y="-97" type="curve" smooth="yes"/>
			<point x="315" y="-97"/>
			<point x="304" y="-97"/>
			<point x="292" y="-94" type="curve" name="hr02"/>
		</contour>
	</outline>
</glyph>
<glyph name="uni04C8" format="2">
	<advance width="610" height="0"/>
	<unicode hex="04C8"/>
	<outline>
		<contour>
			<point x="60" y="0" type="line"/>
			<point x="192" y="0" type="line" name="ab01"/>
			<point x="192" y="215" type="line"/>
			<point x="418" y="215" type="line" name="sv02"/>
			<point x="418" y="10" type="line" smooth="yes"/>
			<point x="418" y="-74" name="sv01"/>
			<point x="400" y="-97"/>
			<point x="363" y="-97" type="curve" smooth="yes" name="ih01"/>
			<point x="352" y="-97" name="ab02"/>
			<point x="340" y="-97"/>
			<point x="329" y="-94" type="curve" name="hr01"/>
			<point x="329" y="-205" type="line" name="at02"/>
			<point x="345" y="-209" name="iv01"/>
			<point x="365" y="-209"/>
			<point x="380" y="-209" type="curve" smooth="yes" name="hr02"/>
			<point x="508" y="-209" name="at01"/>
			<point x="550" y="-157" name="ih02"/>
			<point x="550" y="-8" type="curve" smooth="yes" name="hr01"/>
			<point x="550" y="530" type="line"/>
			<point x="418" y="530" type="line" name="hr02"/>
			<point x="418" y="325" type="line"/>
			<point x="192" y="325" type="line"/>
			<point x="192" y="530" type="line"/>
			<point x="60" y="530" type="line"/>
		</contour>
	</outline>
</glyph>
<glyph name="uni04CB" format="2">
	<advance width="680" height="0"/>
	<unicode hex="04CB"/>
	<outline>
		<contour>
			<point x="370" y="-130" type="line"/>
			<point x="504" y="-130" type="line"/>
			<point x="504" y="0" type="line"/>
			<point x="600" y="0" type="line" name="hr01"/>
			<point x="600" y="700" type="line"/>
			<point x="449" y="700" type="line"/>
			<point x="449" y="408" type="line"/>
			<point x="421" y="389"/>
			<point x="380" y="372"/>
			<point x="315" y="372" type="curve" smooth="yes"/>
			<point x="239" y="372"/>
			<point x="201" y="407"/>
			<point x="201" y="495" type="curve" smooth="yes"/>
			<point x="201" y="700" type="line"/>
			<point x="50" y="700" type="line"/>
			<point x="50" y="475" type="line" smooth="yes"/>
			<point x="50" y="314"/>
			<point x="123" y="244"/>
			<point x="275" y="244" type="curve" smooth="yes"/>
			<point x="354" y="244"/>
			<point x="414" y="266"/>
			<point x="449" y="289" type="curve"/>
			<point x="449" y="126" type="line"/>
			<point x="370" y="126" type="line" name="hr02"/>
		</contour>
	</outline>
</glyph>
<glyph name="uni04D8" format="2">
	<advance width="725" height="0"/>
	<unicode hex="04D8"/>
	<guideline y="401"/>
	<guideline y="208"/>
	<anchor x="363" y="700" name="top"/>
	<outline>
		<contour>
			<point x="346" y="-12" type="curve" smooth="yes"/>
			<point x="530" y="-12"/>
			<point x="675" y="93"/>
			<point x="675" y="345" type="curve" smooth="yes" name="at01"/>
			<point x="675" y="365" type="line" smooth="yes"/>
			<point x="675" y="605" name="iv02"/>
			<point x="530" y="712" name="ih01"/>
			<point x="351" y="712" type="curve" smooth="yes" name="iv01"/>
			<point x="204" y="712"/>
			<point x="84" y="638"/>
			<point x="60" y="480" type="curve" name="ab01"/>
			<point x="217" y="480" type="line"/>
			<point x="237" y="553"/>
			<point x="289" y="584" name="iv03"/>
			<point x="353" y="584" type="curve" smooth="yes" name="sh01"/>
			<point x="436" y="584" name="ih02"/>
			<point x="506" y="536" name="ih03"/>
			<point x="517" y="402" type="curve"/>
			<point x="45" y="402" type="line"/>
			<point x="45" y="345" type="line" smooth="yes"/>
			<point x="45" y="93"/>
			<point x="166" y="-12"/>
		</contour>
		<contour>
			<point x="348" y="116" type="curve" smooth="yes"/>
			<point x="261" y="116"/>
			<point x="202" y="162"/>
			<point x="191" y="305" type="curve"/>
			<point x="516" y="305" type="line"/>
			<point x="505" y="168"/>
			<point x="441" y="116"/>
		</contour>
	</outline>
</glyph>
<glyph name="uni04D9" format="2">
	<advance width="587" height="0"/>
	<unicode hex="04D9"/>
	<anchor x="294" y="530" name="top"/>
	<outline>
		<contour>
			<point x="283" y="542" type="curve" smooth="yes"/>
			<point x="154" y="542"/>
			<point x="66" y="487" name="iv02"/>
			<point x="45" y="375" type="curve" name="sv01"/>
			<point x="168" y="375" type="line"/>
			<point x="183" y="411" name="iv01"/>
			<point x="216" y="433" name="hr01"/>
			<point x="283" y="433" type="curve" smooth="yes" name="ih01"/>
			<point x="351" y="433"/>
			<point x="414" y="396"/>
			<point x="417" y="300" type="curve" name="at01"/>
			<point x="35" y="300" type="line"/>
			<point x="35" y="245" type="line" smooth="yes" name="sh01"/>
			<point x="35" y="78" name="sv02"/>
			<point x="124" y="-12" name="ih02"/>
			<point x="293" y="-12" type="curve" smooth="yes" name="ih03"/>
			<point x="436" y="-12"/>
			<point x="552" y="75"/>
			<point x="552" y="250" type="curve" smooth="yes" name="hr01"/>
			<point x="552" y="270" type="line" smooth="yes"/>
			<point x="552" y="455"/>
			<point x="432" y="542"/>
		</contour>
		<contour>
			<point x="416" y="209" type="line"/>
			<point x="413" y="129"/>
			<point x="353" y="96"/>
			<point x="288" y="96" type="curve" smooth="yes"/>
			<point x="220" y="96"/>
			<point x="163" y="123"/>
			<point x="163" y="209" type="curve"/>
		</contour>
	</outline>
</glyph>
<glyph name="uni04E8" format="2">
	<advance width="773" height="0"/>
	<unicode hex="04E8"/>
	<anchor x="387" y="700" name="top"/>
	<outline>
		<contour>
			<point x="387" y="-12" type="curve" smooth="yes"/>
			<point x="567" y="-12"/>
			<point x="723" y="92"/>
			<point x="723" y="345" type="curve" smooth="yes" name="at01"/>
			<point x="723" y="365" type="line" smooth="yes"/>
			<point x="723" y="608"/>
			<point x="567" y="712" name="ih01"/>
			<point x="387" y="712" type="curve" smooth="yes"/>
			<point x="207" y="712"/>
			<point x="50" y="608" name="sv01"/>
			<point x="50" y="365" type="curve" smooth="yes" name="sh01"/>
			<point x="50" y="345" type="line" smooth="yes"/>
			<point x="50" y="92" name="iv01"/>
			<point x="207" y="-12"/>
		</contour>
		<contour>
			<point x="387" y="116" type="curve" smooth="yes" name="ih02"/>
			<point x="302" y="116" name="ih03"/>
			<point x="225" y="160"/>
			<point x="209" y="296" type="curve"/>
			<point x="563" y="296" type="line"/>
			<point x="547" y="160"/>
			<point x="471" y="116"/>
		</contour>
		<contour>
			<point x="387" y="584" type="curve" smooth="yes"/>
			<point x="470" y="584"/>
			<point x="547" y="542"/>
			<point x="563" y="414" type="curve"/>
			<point x="210" y="414" type="line"/>
			<point x="226" y="542"/>
			<point x="303" y="584"/>
		</contour>
	</outline>
</glyph>
<glyph name="uni04E9" format="2">
	<advance width="613" height="0"/>
	<unicode hex="04E9"/>
	<anchor x="307" y="530" name="top"/>
	<outline>
		<contour>
			<point x="307" y="-12" type="curve" smooth="yes"/>
			<point x="455" y="-12"/>
			<point x="578" y="79"/>
			<point x="578" y="260" type="curve" smooth="yes" name="at01"/>
			<point x="578" y="280" type="line" smooth="yes"/>
			<point x="578" y="451"/>
			<point x="455" y="542" name="ih01"/>
			<point x="307" y="542" type="curve" smooth="yes"/>
			<point x="158" y="542"/>
			<point x="35" y="451" name="sv01"/>
			<point x="35" y="280" type="curve" smooth="yes" name="sh01"/>
			<point x="35" y="260" type="line" smooth="yes"/>
			<point x="35" y="76" name="iv01"/>
			<point x="158" y="-12"/>
		</contour>
		<contour>
			<point x="307" y="100" type="curve" smooth="yes" name="ih02"/>
			<point x="236" y="100" name="ih03"/>
			<point x="183" y="142"/>
			<point x="172" y="226" type="curve"/>
			<point x="441" y="226" type="line"/>
			<point x="430" y="142"/>
			<point x="378" y="100"/>
		</contour>
		<contour>
			<point x="307" y="430" type="curve" smooth="yes"/>
			<point x="375" y="430"/>
			<point x="427" y="390"/>
			<point x="440" y="318" type="curve"/>
			<point x="173" y="318" type="line"/>
			<point x="188" y="390"/>
			<point x="239" y="430"/>
		</contour>
	</outline>
</glyph>
<glyph name="uni0513" format="2">
	<advance width="592" height="0"/>
	<unicode hex="0513"/>
	<guideline y="119"/>
	<outline>
		<contour>
			<point x="311" y="-205" type="line"/>
			<point x="327" y="-209" name="ab01"/>
			<point x="347" y="-209"/>
			<point x="362" y="-209" type="curve" smooth="yes"/>
			<point x="490" y="-209" name="at01"/>
			<point x="532" y="-157"/>
			<point x="532" y="-8" type="curve" smooth="yes" name="sv03"/>
			<point x="532" y="530" type="line"/>
			<point x="112" y="530" type="line"/>
			<point x="112" y="350" type="line" smooth="yes" name="ab02"/>
			<point x="112" y="165"/>
			<point x="88" y="109"/>
			<point x="37" y="109" type="curve" smooth="yes" name="sv02"/>
			<point x="29" y="109"/>
			<point x="24" y="109" name="sv01"/>
			<point x="22" y="110" type="curve" name="ih01"/>
			<point x="22" y="-9" type="line" name="ih02"/>
			<point x="33" y="-12" name="ih03"/>
			<point x="51" y="-12"/>
			<point x="62" y="-12" type="curve" smooth="yes"/>
			<point x="178" y="-12"/>
			<point x="237" y="55"/>
			<point x="237" y="330" type="curve" smooth="yes"/>
			<point x="237" y="420" type="line"/>
			<point x="400" y="420" type="line" name="hr01"/>
			<point x="400" y="10" type="line" smooth="yes"/>
			<point x="400" y="-74"/>
			<point x="382" y="-97"/>
			<point x="345" y="-97" type="curve" smooth="yes"/>
			<point x="334" y="-97"/>
			<point x="322" y="-97"/>
			<point x="311" y="-94" type="curve" name="hr02"/>
		</contour>
	</outline>
</glyph>
